<?xml version="1.0" encoding="UTF-8" standalone="no"?>
<!-- Created with Inkscape (http://www.inkscape.org/) -->

<svg
   xmlns:dc="http://purl.org/dc/elements/1.1/"
   xmlns:cc="http://creativecommons.org/ns#"
   xmlns:rdf="http://www.w3.org/1999/02/22-rdf-syntax-ns#"
   xmlns:svg="http://www.w3.org/2000/svg"
   xmlns="http://www.w3.org/2000/svg"
   xmlns:sodipodi="http://sodipodi.sourceforge.net/DTD/sodipodi-0.dtd"
   xmlns:inkscape="http://www.inkscape.org/namespaces/inkscape"
   width="9.6881933mm"
   height="8.7606878mm"
   viewBox="0 0 9.6881932 8.7606875"
   version="1.1"
   id="svg8"
   inkscape:version="0.92.4 (5da689c313, 2019-01-14)"
   sodipodi:docname="mf_logo_u1_full_color_reversed.svg">
  <defs
     id="defs2" />
  <sodipodi:namedview
     id="base"
     pagecolor="#ffffff"
     bordercolor="#666666"
     borderopacity="1.0"
     inkscape:pageopacity="0.0"
     inkscape:pageshadow="2"
     inkscape:zoom="2.0069149"
     inkscape:cx="47.142863"
     inkscape:cy="-9.96531"
     inkscape:document-units="mm"
     inkscape:current-layer="layer1"
     showgrid="false"
     inkscape:window-width="1366"
     inkscape:window-height="706"
     inkscape:window-x="-8"
     inkscape:window-y="-8"
     inkscape:window-maximized="1" />
  <metadata
     id="metadata5">
    <rdf:RDF>
      <cc:Work
         rdf:about="">
        <dc:format>image/svg+xml</dc:format>
        <dc:type
           rdf:resource="http://purl.org/dc/dcmitype/StillImage" />
        <dc:title></dc:title>
      </cc:Work>
    </rdf:RDF>
  </metadata>
  <g
     inkscape:label="Capa 1"
     inkscape:groupmode="layer"
     id="layer1"
     transform="translate(-78.14522,-75.929694)">
    <path
       style="fill:#000000;stroke-width:0.00583118"
       d="m 80.20434,84.688419 c -0.01012,-0.0011 -0.04736,-0.005 -0.08277,-0.0083 -0.702742,-0.06698 -1.349506,-0.458593 -1.700818,-1.029846 -0.339781,-0.552501 -0.366743,-1.236103 -0.07289,-1.84816 0.09996,-0.208205 0.225526,-0.391216 0.399555,-0.582346 0.08806,-0.09672 2.113094,-1.926693 2.2191,-2.005353 0.389592,-0.289089 0.816451,-0.456554 1.316174,-0.516361 0.101044,-0.01209 0.431729,-0.01392 0.530317,-0.0029 0.380375,0.0424 0.691823,0.142977 0.99013,0.319751 0.151402,0.08972 0.329818,0.228374 0.395323,0.307222 0.08386,0.100949 0.123548,0.209161 0.123362,0.3364 -1.85e-4,0.131649 -0.04379,0.244767 -0.133384,0.346066 -0.117171,0.132478 -0.288392,0.205946 -0.479473,0.205733 -0.168059,-1.89e-4 -0.300668,-0.05178 -0.447845,-0.174222 -0.175684,-0.146161 -0.374165,-0.223514 -0.620178,-0.241697 -0.183879,-0.01359 -0.402308,0.02321 -0.584438,0.09845 -0.100408,0.04148 -0.167985,0.07831 -0.270412,0.147371 -0.05529,0.03728 -2.027768,1.815736 -2.102423,1.895618 -0.316626,0.338799 -0.400606,0.772206 -0.218556,1.127936 0.08907,0.174053 0.280576,0.348475 0.474673,0.432339 0.376172,0.162534 0.8437,0.09728 1.220961,-0.170422 0.03186,-0.02261 0.298716,-0.258761 0.631476,-0.558825 l 0.576299,-0.519669 0.03566,0.02645 c 0.04069,0.03018 0.151443,0.08321 0.237162,0.113552 0.07544,0.0267 0.221775,0.06458 0.318804,0.0825 0.402532,0.07436 0.758381,0.0566 0.938017,-0.04681 0.02643,-0.0152 -1.69097,1.541461 -1.815344,1.645455 -0.41167,0.344212 -0.874089,0.543152 -1.418671,0.610334 -0.06354,0.0078 -0.413884,0.01532 -0.459813,0.0098 z m 3.047026,-2.756598 c -0.159796,-0.01423 -0.256222,-0.02785 -0.36785,-0.05201 -0.384131,-0.08315 -0.724686,-0.249091 -1.006706,-0.490545 -0.07794,-0.06673 -0.116583,-0.112412 -0.15513,-0.183398 -0.03603,-0.06634 -0.05334,-0.121023 -0.06066,-0.191651 -0.02133,-0.205704 0.08095,-0.397741 0.27444,-0.515243 0.04942,-0.03001 0.102357,-0.05174 0.170763,-0.07009 0.07697,-0.02065 0.201186,-0.0246 0.28376,-0.009 0.124282,0.02344 0.217371,0.06971 0.331065,0.164542 0.249385,0.208018 0.58216,0.287088 0.934953,0.222154 0.204479,-0.03763 0.413495,-0.13032 0.579364,-0.256906 0.03203,-0.02445 0.508139,-0.452091 1.058012,-0.95032 1.033214,-0.936172 1.038529,-0.941197 1.12255,-1.061162 0.14123,-0.201647 0.213325,-0.451106 0.192223,-0.665122 -0.01616,-0.163871 -0.06758,-0.299222 -0.162355,-0.427353 -0.129879,-0.175587 -0.316631,-0.305489 -0.524804,-0.365047 -0.126107,-0.03608 -0.1575,-0.03996 -0.321515,-0.03976 -0.136552,1.63e-4 -0.152767,0.0013 -0.225344,0.01529 -0.216554,0.04185 -0.423084,0.136012 -0.596189,0.271816 -0.03709,0.0291 -0.313981,0.276145 -0.61531,0.54899 l -0.547871,0.496084 -0.04375,-0.02988 c -0.173877,-0.118721 -0.536953,-0.213344 -0.902072,-0.235095 -0.245361,-0.01461 -0.474661,0.02032 -0.587155,0.08947 -0.02504,0.0154 1.691361,-1.540257 1.807191,-1.637934 0.116527,-0.09826 0.225073,-0.176123 0.349458,-0.250661 0.16703,-0.100093 0.30369,-0.165265 0.475283,-0.226656 0.219411,-0.0785 0.422781,-0.123194 0.662109,-0.145513 0.123611,-0.01153 0.395959,-0.0086 0.508739,0.0054 0.25859,0.03216 0.47003,0.08906 0.689821,0.185646 0.239527,0.10526 0.419468,0.221467 0.610165,0.394054 0.372624,0.337237 0.596234,0.770879 0.644043,1.248979 0.0095,0.0951 0.0042,0.346872 -0.0093,0.437315 -0.073,0.49042 -0.304531,0.923703 -0.69537,1.301262 -0.04698,0.04538 -0.522301,0.476964 -1.056282,0.95908 -0.700392,0.632364 -0.993623,0.893492 -1.052532,0.937299 -0.387885,0.288465 -0.819079,0.457892 -1.313108,0.515953 -0.07264,0.0085 -0.388493,0.01558 -0.450616,0.01006 z"
       id="path826"
       inkscape:connector-curvature="0" />
  </g>
</svg>
