<?xml version="1.0" encoding="UTF-8" standalone="no"?>
<!-- Created with Inkscape (http://www.inkscape.org/) -->

<svg
   xmlns:dc="http://purl.org/dc/elements/1.1/"
   xmlns:cc="http://creativecommons.org/ns#"
   xmlns:rdf="http://www.w3.org/1999/02/22-rdf-syntax-ns#"
   xmlns:svg="http://www.w3.org/2000/svg"
   xmlns="http://www.w3.org/2000/svg"
   xmlns:sodipodi="http://sodipodi.sourceforge.net/DTD/sodipodi-0.dtd"
   xmlns:inkscape="http://www.inkscape.org/namespaces/inkscape"
   width="237.47443mm"
   height="267.87033mm"
   viewBox="0 0 237.47443 267.87033"
   version="1.1"
   id="svg8"
   inkscape:version="0.92.4 (5da689c313, 2019-01-14)"
   sodipodi:docname="pdf.svg">
  <defs
     id="defs2" />
  <sodipodi:namedview
     id="base"
     pagecolor="#ffffff"
     bordercolor="#666666"
     borderopacity="1.0"
     inkscape:pageopacity="0.0"
     inkscape:pageshadow="2"
     inkscape:zoom="0.24748737"
     inkscape:cx="-487.63266"
     inkscape:cy="381.17786"
     inkscape:document-units="mm"
     inkscape:current-layer="layer1"
     showgrid="false"
     inkscape:window-width="1366"
     inkscape:window-height="706"
     inkscape:window-x="-8"
     inkscape:window-y="-8"
     inkscape:window-maximized="1" />
  <metadata
     id="metadata5">
    <rdf:RDF>
      <cc:Work
         rdf:about="">
        <dc:format>image/svg+xml</dc:format>
        <dc:type
           rdf:resource="http://purl.org/dc/dcmitype/StillImage" />
        <dc:title />
      </cc:Work>
    </rdf:RDF>
  </metadata>
  <g
     inkscape:label="Capa 1"
     inkscape:groupmode="layer"
     id="layer1"
     transform="translate(-9.8684459,-6.8663619)">
    <path
       style="fill:#000000;stroke-width:0.4282822"
       d="m 39.227312,274.43425 c -1.603024,-0.39837 -4.425943,-2.28992 -5.47007,-3.66527 -2.359306,-3.1079 -2.230265,-1.44407 -2.460408,-31.75136 l -0.214499,-28.24073 -5.143977,-0.2158 c -4.403673,-0.18423 -5.483551,-0.37844 -7.501796,-1.34281 -2.774696,-1.32622 -4.594061,-2.94026 -6.244809,-5.54026 -2.3340303,-3.6764 -2.3147411,-3.28501 -2.3220588,-47.04656 -0.00794,-44.39926 -0.049879,-43.45861 2.5558598,-47.25104 1.664052,-2.41426 3.555753,-3.97419 6.404278,-5.28116 1.928949,-0.88471 3.181437,-1.10048 7.394528,-1.27476 l 5.072308,-0.20915 V 59.525053 c 0,-47.058177 -0.08316,-45.443307 2.486517,-48.681017 0.710051,-0.8946575 2.225938,-2.1041944 3.367845,-2.6863047 L 39.227146,7.098743 104.94396,6.9825524 170.66077,6.8663619 173.53226,9.758657 c 2.98354,3.005165 5.34901,5.638852 13.16641,14.659328 2.54937,2.941759 5.83007,6.696515 7.2906,8.343752 1.46001,1.646575 6.10463,6.942669 10.32038,11.767033 4.21592,4.824532 7.8731,8.964374 8.12737,9.199741 0.25439,0.235683 1.60301,1.775709 2.99718,3.423115 1.3935,1.646575 4.03383,4.65788 5.86583,6.689873 1.83184,2.031995 3.6196,4.38467 3.97263,5.227876 0.53047,1.268125 0.64188,4.293045 0.64188,17.540336 v 16.006799 l 5.03705,0.18257 c 4.35694,0.16599 5.38411,0.34193 7.60888,1.36108 2.86183,1.31128 4.41364,2.61743 6.25479,5.26622 2.57944,3.71128 2.53373,2.85496 2.52643,47.19329 -0.01,44.43511 0.0497,43.49315 -2.60126,47.41488 -3.1545,4.67647 -6.97332,6.48008 -14.04259,6.63228 l -4.56895,0.0996 -0.2145,28.24093 c -0.17462,23.05817 -0.32426,28.4371 -0.81149,29.31051 -1.35859,2.43037 -3.19158,4.27478 -5.28266,5.31501 l -2.21829,1.10382 -88.75829,-0.05 c -48.817223,-0.033 -89.144242,-0.14923 -89.615835,-0.26222 z M 215.52282,236.26377 c 0.0833,-19.71988 -0.003,-25.07641 -0.42902,-25.34597 -0.62026,-0.39338 -171.805885,-0.488 -172.831054,-0.0996 -0.606953,0.23236 -0.678456,2.8503 -0.678456,25.17433 0,13.70293 0.133047,25.04338 0.28601,25.2009 0.149652,0.14926 39.268922,0.23741 86.91364,0.17759 l 86.62664,-0.11614 z m -79.201,-38.31241 c 17.9196,-3.27871 28.40694,-11.85351 32.72147,-26.75434 4.27195,-14.75395 1.5548,-30.27706 -6.89301,-39.38534 -5.56318,-5.99772 -11.95815,-9.41752 -21.30142,-11.39109 -6.22135,-1.3146 -26.43824,-1.2399 -37.21558,0.1328 l -2.03854,0.26062 0.1164,38.56171 0.1164,38.56171 4.28676,0.49962 c 6.43885,0.75027 25.10362,0.44817 30.22131,-0.48799 z m -15.96805,-12.91166 -1.17899,-0.2075 v -25.58895 -25.58913 l 1.60802,-0.26557 c 0.88465,-0.14939 3.82597,-0.26392 6.5373,-0.26226 12.79078,0.006 20.35408,5.15384 23.62946,16.08049 1.26049,4.20624 1.25051,13.08745 -0.0165,17.92492 -3.06969,11.68122 -10.89641,17.36008 -24.70169,17.92328 -2.5818,0.0996 -5.22479,0.0996 -5.87315,-0.0163 z m -68.909226,-0.72867 v -13.84286 l 6.108618,-0.0332 c 7.157069,-0.0332 12.759506,-1.03242 17.568076,-3.13945 3.700092,-1.62166 4.967712,-2.46305 7.967394,-5.29326 2.994029,-2.82474 4.98916,-6.45451 6.089329,-11.0782 3.235979,-13.6 -2.604416,-25.18114 -14.813505,-29.3741 -4.691669,-1.61171 -9.355403,-2.13191 -19.061845,-2.12859 -8.274692,0.003 -20.400471,0.85482 -21.4579,1.50715 -0.46062,0.28383 -0.578684,76.4751 -0.116401,76.9342 0.149652,0.14938 4.208105,0.2855 9.002043,0.2855 h 8.716357 z m 1.928952,-27.59376 -1.714606,-0.28218 -0.116401,-11.45696 c -0.09978,-10.61426 -0.06651,-11.47888 0.643535,-11.75774 0.41572,-0.16599 2.975571,-0.30541 5.686909,-0.3104 6.237991,-0.0109 8.747622,0.76519 11.571038,3.58396 2.411186,2.40694 3.216857,4.84494 2.900576,8.77796 -0.410734,5.10455 -3.122736,8.6105 -8.067001,10.42787 -2.585126,0.94943 -8.161949,1.47062 -10.905717,1.01748 z m 147.249364,25.82435 v -15.61225 l 14.03909,-0.11614 14.0391,-0.11613 0.11637,-7.16725 0.11638,-7.16709 h -14.15649 -14.15665 v -8.98577 -8.98562 h 15.00358 15.00356 v -7.27415 -7.27414 h -24.0056 -24.00579 v 39.15197 39.15211 h 9.00221 9.00204 z m 14.90263,-92.965249 -0.11637,-13.157659 -24.22013,-0.214108 c -25.79288,-0.22741 -25.19972,-0.175953 -26.62133,-2.309854 -0.49223,-0.738635 -0.63855,-5.871734 -0.81315,-28.712314 l -0.21457,-27.812837 -60.01427,-0.116188 c -33.007816,-0.06639 -60.448288,-0.01298 -60.97875,0.11619 l -0.964474,0.232374 v 42.566945 42.56711 h 87.026894 87.02688 z"
       id="path826"
       inkscape:connector-curvature="0" />
  </g>
</svg>
