; Drill file
; Format: 3.2 (000.00)
M48
METRIC
T01C0.9
%
G05
G90
T01
X-00545Y07209
X-00555Y07679
X-00565Y08199
X-00565Y08699
X-01425Y08687
X-02009Y08128
X-01995Y07476
X-02535Y07476
X-03075Y07476
X-03406Y07493
X-03914Y07620
X-04168Y07620
X-05184Y07620
X-05184Y08814
X-04168Y08814
X-03914Y08636
X-03914Y09017
X-03406Y08509
X-03025Y08128
X-03152Y09017
X-02875Y09147
X-02576Y08919
X-02274Y09144
X-01425Y07671
M30
