%FSLAX34Y34*%
%MOMM*%
%LNSILK_TOP*%
G71*
G01*
%ADD10C, 2.90*%
%ADD11C, 3.00*%
%ADD12C, 4.70*%
%ADD13C, 2.80*%
%ADD14C, 3.10*%
%ADD15C, 3.90*%
%ADD16C, 2.90*%
%ADD17C, 2.10*%
%ADD18C, 3.60*%
%ADD19C, 4.70*%
%ADD20C, 4.10*%
%ADD21C, 3.50*%
%ADD22C, 3.00*%
%ADD23C, 4.00*%
%ADD24C, 4.40*%
%ADD25C, 1.10*%
%ADD26C, 2.10*%
%ADD27C, 2.20*%
%ADD28C, 3.90*%
%ADD29C, 2.00*%
%ADD30C, 2.30*%
%ADD31C, 3.10*%
%ADD32C, 1.30*%
%ADD33C, 2.80*%
%ADD34C, 3.30*%
%ADD35C, 2.70*%
%ADD36C, 2.20*%
%ADD37C, 3.20*%
%ADD38C, 0.30*%
%LPD*%
G36*
X0Y1000000D02*
X-564000Y1000000D01*
X-564000Y682000D01*
X0Y682000D01*
X0Y1000000D01*
G37*
%LPC*%
X-307520Y747600D02*
G54D10*
D03*
X-253520Y747600D02*
G54D10*
D03*
X-199520Y747600D02*
G54D10*
D03*
X-142500Y868680D02*
G54D11*
D03*
X-142500Y767080D02*
G54D11*
D03*
X-54520Y720900D02*
G54D12*
D03*
X-55520Y767900D02*
G54D12*
D03*
X-56520Y819900D02*
G54D12*
D03*
X-56520Y869900D02*
G54D12*
D03*
X-302520Y812800D02*
G54D13*
D03*
X-200920Y812800D02*
G54D13*
D03*
X-340620Y850900D02*
G54D13*
D03*
X-340620Y749300D02*
G54D13*
D03*
X-391420Y762000D02*
G54D13*
D03*
X-391420Y863600D02*
G54D13*
D03*
X-391420Y901700D02*
G54D14*
D03*
X-315220Y901700D02*
G54D14*
D03*
X-416820Y762000D02*
G54D13*
D03*
X-518420Y762000D02*
G54D13*
D03*
X-416820Y881380D02*
G54D11*
D03*
X-518420Y881380D02*
G54D11*
D03*
X-287479Y914670D02*
G54D14*
D03*
X-227439Y914400D02*
G54D14*
D03*
X-257639Y891900D02*
G54D14*
D03*
G54D15*
X-518420Y762000D02*
X-518607Y913466D01*
G54D15*
X-480320Y951230D02*
X-91319Y951217D01*
G54D15*
X-52330Y914400D02*
X-52330Y876300D01*
G54D16*
X-416820Y762000D02*
X-391420Y762000D01*
X-302520Y812800D01*
G54D17*
X-391420Y901700D02*
X-390020Y901700D01*
X-409820Y881900D01*
X-392520Y863900D01*
X-364520Y863900D01*
X-353520Y852900D01*
G54D18*
X-285351Y914959D02*
X-315220Y901700D01*
G54D15*
G75*
G01X-480320Y951230D02*
G03X-518420Y913130I0J-38100D01*
G01*
G54D15*
G75*
G01X-52330Y913130D02*
G03X-90430Y951230I-38100J0D01*
G01*
G54D19*
X-56520Y820464D02*
X-55403Y768324D01*
G54D20*
X-340620Y749300D02*
X-306990Y747624D01*
G36*
X-302520Y812800D02*
X-416820Y762000D01*
X-391420Y762000D01*
X-302520Y812800D01*
G37*
G54D21*
X-302520Y812800D02*
X-416820Y762000D01*
X-391420Y762000D01*
X-302520Y812800D01*
G36*
X-54870Y869950D02*
X-118370Y869950D01*
X-131070Y857250D01*
X-170718Y858374D01*
X-226320Y914400D01*
X-258424Y946505D01*
X-77831Y943711D01*
X-54870Y869950D01*
G37*
G54D22*
X-54870Y869950D02*
X-118370Y869950D01*
X-131070Y857250D01*
X-170718Y858374D01*
X-226320Y914400D01*
X-258424Y946505D01*
X-77831Y943711D01*
X-54870Y869950D01*
G36*
X-391516Y901731D02*
X-340425Y850726D01*
X-392065Y864071D01*
X-417476Y881621D01*
X-391699Y901731D01*
X-391516Y901731D01*
G37*
G54D23*
X-391516Y901731D02*
X-340425Y850726D01*
X-392065Y864071D01*
X-417476Y881621D01*
X-391699Y901731D01*
X-391516Y901731D01*
G36*
X-256872Y747895D02*
X-198772Y747896D01*
X-135084Y748454D01*
X-130056Y753482D01*
X-201565Y813259D01*
X-203200Y838200D01*
X-256872Y892588D01*
X-256872Y747895D01*
G37*
G54D24*
X-256872Y747895D02*
X-198772Y747896D01*
X-135084Y748454D01*
X-130056Y753482D01*
X-201565Y813259D01*
X-203200Y838200D01*
X-256872Y892588D01*
X-256872Y747895D01*
G54D19*
X-54637Y721080D02*
X-98771Y721080D01*
X-99330Y721639D01*
G54D19*
G75*
G01X-129246Y749300D02*
G03X-101600Y721654I27646J0D01*
G01*
G54D25*
X-12700Y990600D02*
X-558800Y990600D01*
X-558800Y685800D01*
X-12700Y685800D01*
X-12700Y990600D01*
%LPD*%
X-307520Y747600D02*
G54D26*
D03*
X-253520Y747600D02*
G54D26*
D03*
X-199520Y747600D02*
G54D26*
D03*
X-142500Y868680D02*
G54D27*
D03*
X-142500Y767080D02*
G54D27*
D03*
X-54520Y720900D02*
G54D28*
D03*
X-55520Y767900D02*
G54D28*
D03*
X-56520Y819900D02*
G54D28*
D03*
X-56520Y869900D02*
G54D28*
D03*
X-302520Y812800D02*
G54D29*
D03*
X-200920Y812800D02*
G54D29*
D03*
X-340620Y850900D02*
G54D29*
D03*
X-340620Y749300D02*
G54D29*
D03*
X-391420Y762000D02*
G54D29*
D03*
X-391420Y863600D02*
G54D29*
D03*
X-391420Y901700D02*
G54D30*
D03*
X-315220Y901700D02*
G54D30*
D03*
X-416820Y762000D02*
G54D29*
D03*
X-518420Y762000D02*
G54D29*
D03*
X-416820Y881380D02*
G54D27*
D03*
X-518420Y881380D02*
G54D27*
D03*
X-287479Y914670D02*
G54D30*
D03*
X-227439Y914400D02*
G54D30*
D03*
X-257639Y891900D02*
G54D30*
D03*
G54D31*
X-518420Y762000D02*
X-518607Y913466D01*
G54D31*
X-480320Y951230D02*
X-91319Y951217D01*
G54D31*
X-52330Y914400D02*
X-52330Y876300D01*
G54D17*
X-416820Y762000D02*
X-391420Y762000D01*
X-302520Y812800D01*
G54D32*
X-391420Y901700D02*
X-390020Y901700D01*
X-409820Y881900D01*
X-392520Y863900D01*
X-364520Y863900D01*
X-353520Y852900D01*
G54D33*
X-285351Y914959D02*
X-315220Y901700D01*
G54D31*
G75*
G01X-480320Y951230D02*
G03X-518420Y913130I0J-38100D01*
G01*
G54D31*
G75*
G01X-52330Y913130D02*
G03X-90430Y951230I-38100J0D01*
G01*
G54D15*
X-56520Y820464D02*
X-55403Y768324D01*
G54D34*
X-340620Y749300D02*
X-306990Y747624D01*
G36*
X-302520Y812800D02*
X-416820Y762000D01*
X-391420Y762000D01*
X-302520Y812800D01*
G37*
G54D35*
X-302520Y812800D02*
X-416820Y762000D01*
X-391420Y762000D01*
X-302520Y812800D01*
G36*
X-54870Y869950D02*
X-118370Y869950D01*
X-131070Y857250D01*
X-170718Y858374D01*
X-226320Y914400D01*
X-258424Y946505D01*
X-77831Y943711D01*
X-54870Y869950D01*
G37*
G54D36*
X-54870Y869950D02*
X-118370Y869950D01*
X-131070Y857250D01*
X-170718Y858374D01*
X-226320Y914400D01*
X-258424Y946505D01*
X-77831Y943711D01*
X-54870Y869950D01*
G36*
X-391516Y901731D02*
X-340425Y850726D01*
X-392065Y864071D01*
X-417476Y881621D01*
X-391699Y901731D01*
X-391516Y901731D01*
G37*
G54D37*
X-391516Y901731D02*
X-340425Y850726D01*
X-392065Y864071D01*
X-417476Y881621D01*
X-391699Y901731D01*
X-391516Y901731D01*
G36*
X-256872Y747895D02*
X-198772Y747896D01*
X-135084Y748454D01*
X-130056Y753482D01*
X-201565Y813259D01*
X-203200Y838200D01*
X-256872Y892588D01*
X-256872Y747895D01*
G37*
G54D18*
X-256872Y747895D02*
X-198772Y747896D01*
X-135084Y748454D01*
X-130056Y753482D01*
X-201565Y813259D01*
X-203200Y838200D01*
X-256872Y892588D01*
X-256872Y747895D01*
G54D15*
X-54637Y721080D02*
X-98771Y721080D01*
X-99330Y721639D01*
G54D15*
G75*
G01X-129246Y749300D02*
G03X-101600Y721654I27646J0D01*
G01*
G54D38*
X-12700Y990600D02*
X-558800Y990600D01*
X-558800Y685800D01*
X-12700Y685800D01*
X-12700Y990600D01*
%LNAUGENFREISTANZEN*%
%LPC*%
X-307520Y747600D02*
G54D38*
D03*
X-253520Y747600D02*
G54D38*
D03*
X-199520Y747600D02*
G54D38*
D03*
X-142500Y868680D02*
G54D38*
D03*
X-142500Y767080D02*
G54D38*
D03*
X-54520Y720900D02*
G54D38*
D03*
X-55520Y767900D02*
G54D38*
D03*
X-56520Y819900D02*
G54D38*
D03*
X-56520Y869900D02*
G54D38*
D03*
X-302520Y812800D02*
G54D38*
D03*
X-200920Y812800D02*
G54D38*
D03*
X-340620Y850900D02*
G54D38*
D03*
X-340620Y749300D02*
G54D38*
D03*
X-391420Y762000D02*
G54D38*
D03*
X-391420Y863600D02*
G54D38*
D03*
X-391420Y901700D02*
G54D38*
D03*
X-315220Y901700D02*
G54D38*
D03*
X-416820Y762000D02*
G54D38*
D03*
X-518420Y762000D02*
G54D38*
D03*
X-416820Y881380D02*
G54D38*
D03*
X-518420Y881380D02*
G54D38*
D03*
X-287479Y914670D02*
G54D38*
D03*
X-227439Y914400D02*
G54D38*
D03*
X-257639Y891900D02*
G54D38*
D03*
M02*
