<?xml version="1.0" encoding="UTF-8" standalone="no"?>
<!-- Created with Inkscape (http://www.inkscape.org/) -->

<svg
   xmlns:dc="http://purl.org/dc/elements/1.1/"
   xmlns:cc="http://creativecommons.org/ns#"
   xmlns:rdf="http://www.w3.org/1999/02/22-rdf-syntax-ns#"
   xmlns:svg="http://www.w3.org/2000/svg"
   xmlns="http://www.w3.org/2000/svg"
   xmlns:sodipodi="http://sodipodi.sourceforge.net/DTD/sodipodi-0.dtd"
   xmlns:inkscape="http://www.inkscape.org/namespaces/inkscape"
   width="210mm"
   height="297mm"
   viewBox="0 0 210 297"
   version="1.1"
   id="svg5836"
   inkscape:version="0.92.5 (2060ec1f9f, 2020-04-08)"
   sodipodi:docname="regulador.svg">
  <defs
     id="defs5830" />
  <sodipodi:namedview
     id="base"
     pagecolor="#ffffff"
     bordercolor="#666666"
     borderopacity="1.0"
     inkscape:pageopacity="0.0"
     inkscape:pageshadow="2"
     inkscape:zoom="2.0261838"
     inkscape:cx="252.28074"
     inkscape:cy="995.04631"
     inkscape:document-units="mm"
     inkscape:current-layer="layer1"
     showgrid="false"
     inkscape:window-width="1360"
     inkscape:window-height="706"
     inkscape:window-x="-8"
     inkscape:window-y="-8"
     inkscape:window-maximized="1" />
  <metadata
     id="metadata5833">
    <rdf:RDF>
      <cc:Work
         rdf:about="">
        <dc:format>image/svg+xml</dc:format>
        <dc:type
           rdf:resource="http://purl.org/dc/dcmitype/StillImage" />
        <dc:title />
      </cc:Work>
    </rdf:RDF>
  </metadata>
  <g
     inkscape:label="Capa 1"
     inkscape:groupmode="layer"
     id="layer1">
    <rect
       style="opacity:1;fill:none;fill-opacity:1;stroke:#000000;stroke-width:0.05;stroke-miterlimit:4;stroke-dasharray:none;stroke-opacity:1"
       id="rect6773"
       width="87.428131"
       height="32.435169"
       x="14.520151"
       y="9.6188145" />
    <g
       id="g2272">
      <g
         style="stroke:#000000;stroke-opacity:1;fill:#000000;fill-opacity:1"
         transform="translate(-79.919682,-117.15125)"
         id="g6575">
        <path
           id="path6482"
           d="m 175.54957,155.49806 v 0 0 l 0.5,-0.5 v 0 0 0 0 0 0 0 0 -1.565 0 0 0 0 0 0 0 0 l -0.5,-0.49999 v 0 0 -1.24501 0 0 l 0.87749,-0.87749 v 0 0 h 1.24501 v 0 0 l 0.87749,0.87749 v 0 0 1.24501 0 0 l -0.5,0.49999 v 0 0 0 0 0 0 0 0 1.565 0 0 0 0 0 0 0 0 l 0.5,0.5 v 0 0 1.24501 0 0 l -0.87749,0.87749 v 0 0 h -1.24501 v 0 0 l -0.87749,-0.87749 v 0 0 z"
           inkscape:connector-curvature="0"
           style="opacity:1;fill:#000000;fill-opacity:1;fill-rule:evenodd;stroke:#000000;stroke-width:0.10000006;stroke-miterlimit:4;stroke-dasharray:none;stroke-opacity:1" />
        <path
           id="path6484"
           d="m 109.46287,152.68276 v 0 l -0.0225,-0.001 v 0 l -0.0223,-0.003 v 0 l -0.0219,-0.005 v 0 l -0.0213,-0.008 v 0 l -0.0204,-0.01 v 0 l -0.0194,-0.0116 v 0 l -0.0181,-0.0135 v 0 l -0.0167,-0.0152 v 0 l -0.0152,-0.0167 v 0 l -0.0134,-0.0181 v 0 l -0.0116,-0.0194 v 0 l -0.01,-0.0204 v 0 l -0.008,-0.0213 v 0 l -0.005,-0.0219 v 0 l -0.003,-0.0223 v 0 l -0.001,-0.0225 v 0 l 0.001,-0.0225 v 0 l 0.003,-0.0223 v 0 l 0.005,-0.0219 v 0 l 0.008,-0.0213 v 0 l 0.01,-0.0204 v 0 l 0.0116,-0.0194 v 0 l 0.0134,-0.0181 v 0 l 0.0152,-0.0167 v 0 l 0.0167,-0.0152 v 0 l 0.0181,-0.0135 v 0 l 0.0194,-0.0116 v 0 l 0.0204,-0.01 v 0 l 0.0213,-0.008 v 0 l 0.0219,-0.005 v 0 l 0.0223,-0.003 v 0 l 0.0225,-0.001 v 0 h 0.54341 v 0 0 0 0 0 0 0 0 0 0 0 0 0 0 0 0 -0.4144 0 l 10e-4,-0.0225 v 0 l 0.003,-0.0223 v 0 l 0.005,-0.0219 v 0 l 0.008,-0.0213 v 0 l 0.01,-0.0204 v 0 l 0.0116,-0.0194 v 0 l 0.0134,-0.0181 v 0 l 0.0152,-0.0167 v 0 l 0.0167,-0.0152 v 0 l 0.0181,-0.0135 v 0 l 0.0194,-0.0116 v 0 l 0.0204,-0.01 v 0 l 0.0213,-0.008 v 0 l 0.0219,-0.005 v 0 l 0.0223,-0.003 v 0 l 0.0225,-10e-4 v 0 l 0.0225,10e-4 v 0 l 0.0223,0.003 v 0 l 0.0219,0.005 v 0 l 0.0213,0.008 v 0 l 0.0204,0.01 v 0 l 0.0194,0.0116 v 0 l 0.0181,0.0135 v 0 l 0.0167,0.0152 v 0 l 0.0152,0.0167 v 0 l 0.0135,0.0181 v 0 l 0.0116,0.0194 v 0 l 0.01,0.0204 v 0 l 0.008,0.0213 v 0 l 0.005,0.0219 v 0 l 0.003,0.0223 v 0 l 0.001,0.0225 v 0 0.4144 0 0 0 0 0 0 0 0 0 0 0 0 0 0 0 0 h 0.54329 v 0 l 0.0225,0.001 v 0 l 0.0223,0.003 v 0 l 0.0219,0.005 v 0 l 0.0212,0.008 v 0 l 0.0204,0.01 v 0 l 0.0194,0.0116 v 0 l 0.0181,0.0135 v 0 l 0.0167,0.0152 v 0 l 0.0152,0.0167 v 0 l 0.0135,0.0181 v 0 l 0.0116,0.0194 v 0 l 0.01,0.0204 v 0 l 0.008,0.0213 v 0 l 0.005,0.0219 v 0 l 0.003,0.0223 v 0 l 0.001,0.0225 v 0 l -0.001,0.0225 v 0 l -0.003,0.0223 v 0 l -0.005,0.0219 v 0 l -0.008,0.0213 v 0 l -0.01,0.0204 v 0 l -0.0116,0.0194 v 0 l -0.0135,0.0181 v 0 l -0.0152,0.0167 v 0 l -0.0167,0.0152 v 0 l -0.0181,0.0135 v 0 l -0.0194,0.0116 v 0 l -0.0204,0.01 v 0 l -0.0212,0.008 v 0 l -0.0219,0.005 v 0 l -0.0223,0.003 v 0 l -0.0225,0.001 v 0 h -0.54331 v 0 0 0 0 0 0 0 0 0 0 0 0 0 0 0 0 0.4145 0 l -10e-4,0.0225 v 0 l -0.003,0.0223 v 0 l -0.005,0.0219 v 0 l -0.008,0.0213 v 0 l -0.01,0.0204 v 0 l -0.0116,0.0194 v 0 l -0.0134,0.0181 v 0 l -0.0152,0.0167 v 0 l -0.0167,0.0152 v 0 l -0.0181,0.0135 v 0 l -0.0194,0.0116 v 0 l -0.0204,0.01 v 0 l -0.0213,0.008 v 0 l -0.0219,0.005 v 0 l -0.0223,0.003 v 0 l -0.0225,0.001 v 0 l -0.0225,-0.001 v 0 l -0.0223,-0.003 v 0 l -0.0219,-0.005 v 0 l -0.0212,-0.008 v 0 l -0.0204,-0.01 v 0 l -0.0194,-0.0116 v 0 l -0.0181,-0.0135 v 0 l -0.0167,-0.0152 v 0 l -0.0151,-0.0167 v 0 l -0.0135,-0.0181 v 0 l -0.0116,-0.0194 v 0 l -0.01,-0.0204 v 0 l -0.008,-0.0213 v 0 l -0.005,-0.0219 v 0 l -0.003,-0.0223 v 0 l -10e-4,-0.0225 v 0 -0.4145 0 0 0 0 0 0 0 0 0 0 0 0 0 0 0 0 z"
           inkscape:connector-curvature="0"
           style="opacity:1;fill:#000000;fill-opacity:1;fill-rule:evenodd;stroke:#000000;stroke-width:0.10000006;stroke-miterlimit:4;stroke-dasharray:none;stroke-opacity:1" />
        <path
           id="path6486"
           d="m 118.34957,154.22376 v 0 -1.28641 0 0 l 0.9068,-0.9068 v 0 0 h 1.28641 v 0 0 l 0.90681,0.9068 v 0 0 1.28641 0 0 l -0.254,0.254 v 0 0 0 0 0 0 0 0 0 0 0 0 0 0 0 l 0.082,0.10973 v 0 l 0.15519,0.15519 v 0 l 0.17552,0.13157 v 0 l 0.19253,0.10516 v 0 l 0.20549,0.0767 v 0 l 0.21437,0.0467 v 0 l 0.25451,0.0182 v 0 h 8.1738 v 0 0 0 0 0 0 0 0 0 0 0 0 0 0 0 0 0 0 0 0 0 0 0 l -0.37973,-0.4446 v 0 l -0.0485,-0.0617 v 0 l -0.0437,-0.0653 v 0 l -0.41651,-0.67968 v 0 l -0.0384,-0.0686 v 0 l -0.0328,-0.0714 v 0 l -0.30506,-0.73647 v 0 l -0.0272,-0.0737 v 0 l -0.0213,-0.0757 v 0 l -0.18618,-0.77514 v 0 l -0.0153,-0.077 v 0 l -0.009,-0.078 v 0 l -0.0625,-0.79469 v 0 l -3.2e-4,-0.0109 v 0 0 0 0 0 0 0 0 l -0.65276,-0.65276 v 0 0 -1.36959 0 0 l 0.9652,-0.9652 v 0 0 h 1.36959 v 0 0 l 0.9652,0.9652 v 0 0 1.36959 0 0 l -0.64239,0.64242 v 0 0 0 0 0 0 0 0 0 l 0.0457,0.58057 v 0 0 l 0.14935,0.62207 v 0 0 l 0.24486,0.59103 v 0 0 l 0.33426,0.54547 v 0 0 l 0.41547,0.48646 v 0 0 l 0.48646,0.41546 v 0 0 l 0.54547,0.33427 v 0 0 l 0.59103,0.24485 v 0 0 l 0.62207,0.14936 v 0 0 l 0.67706,0.0533 v 0 h 11.53821 v 0 0 0 0 0 0 0 0 l 0.5,-0.5 v 0 0 h 1.24501 v 0 0 l 0.5,0.5 v 0 0 0 0 0 0 0 0 h 16.805 v 0 0 0 0 0 0 0 0 l 0.5,-0.5 v 0 0 h 1.245 v 0 0 l 0.8775,0.87749 v 0 0 1.24501 0 0 l -0.8775,0.87749 v 0 0 h -1.245 v 0 0 l -0.5,-0.5 v 0 0 0 0 0 0 0 0 h -16.805 v 0 0 0 0 0 0 0 0 l -0.5,0.5 v 0 0 h -1.24501 v 0 0 l -0.5,-0.5 v 0 0 0 0 0 0 0 0 h -24.27763 v 0 l -0.0356,-0.002 v 0 l -0.0358,-7.9e-4 v 0 l -0.36147,-0.0259 v 0 l -0.14123,-0.0203 v 0 l -0.35412,-0.077 v 0 l -0.13691,-0.0401 v 0 l -0.33955,-0.12675 v 0 l -0.12979,-0.0592 v 0 l -0.31808,-0.17374 v 0 l -0.12015,-0.0772 v 0 l -0.29012,-0.21717 v 0 l -0.10795,-0.0935 v 0 l -0.25626,-0.25626 v 0 l -0.0935,-0.10795 v 0 l -0.21717,-0.29012 v 0 l -0.0772,-0.12014 v 0 l -0.1651,-0.30249 v 0 0 0 0 0 0 0 0 0 0 0 h -0.004 v 0 0 l -0.9068,-0.90681 z"
           inkscape:connector-curvature="0"
           style="opacity:1;fill:#000000;fill-opacity:1;fill-rule:evenodd;stroke:#000000;stroke-width:0.10000006;stroke-miterlimit:4;stroke-dasharray:none;stroke-opacity:1" />
        <path
           id="path6488"
           d="m 162.84957,152.93306 v 0 -1.24501 0 0 l 0.87749,-0.87749 v 0 0 h 1.24501 v 0 0 l 0.5,0.5 v 0 0 0 0 0 0 0 0 h 0.29499 v 0 0 0 0 0 0 0 0 l 0.5,-0.5 v 0 0 h 1.24501 v 0 0 l 0.87749,0.87749 v 0 0 1.24501 0 0 l -0.87749,0.87749 v 0 0 h -1.24501 v 0 0 l -0.5,-0.49999 v 0 0 0 0 0 0 0 0 h -0.29499 v 0 0 0 0 0 0 0 0 l -0.5,0.49999 v 0 0 h -1.24501 v 0 0 z"
           inkscape:connector-curvature="0"
           style="opacity:1;fill:#000000;fill-opacity:1;fill-rule:evenodd;stroke:#000000;stroke-width:0.10000006;stroke-miterlimit:4;stroke-dasharray:none;stroke-opacity:1" />
        <path
           id="path6490"
           d="m 95.289569,137.92376 v 0 -1.4524 0 0 l 1.0238,-1.02379 v 0 0 h 1.4524 v 0 0 l 0.733717,0.73373 v 0 0 0 0 0 0 0 0 l 9.958974,-0.11075 v 0 l 0.0448,0.002 v 0 l 0.0447,0.001 v 0 l 0.99337,0.0782 v 0 l 0.078,0.009 v 0 l 0.077,0.0153 v 0 l 0.96891,0.23266 v 0 l 0.0757,0.0213 v 0 l 0.0737,0.0272 v 0 l 0.92057,0.38133 v 0 l 0.0714,0.0328 v 0 l 0.0686,0.0384 v 0 l 0.8496,0.52062 v 0 l 0.0653,0.0437 v 0 l 0.0617,0.0485 v 0 l 0.75768,0.64714 v 0 l 0.0577,0.0533 v 0 l 0.0533,0.0577 v 0 l 0.64714,0.75768 v 0 l 0.0485,0.0617 v 0 l 0.0437,0.0653 v 0 l 0.52062,0.84961 v 0 l 0.0384,0.0686 v 0 l 0.0328,0.0714 v 0 l 0.38133,0.92057 v 0 l 0.0272,0.0737 v 0 l 0.0213,0.0757 v 0 l 0.23267,0.9689 v 0 l 0.0153,0.077 v 0 l 0.009,0.078 v 0 l 0.0782,0.99337 v 0 l 0.001,0.0394 v 0 l 0.002,0.0389 v 0 8.89 0 l -0.004,0.0731 v 0 0 0 0 0 0 0 0 0 l 0.5536,0.55359 v 0 0 1.28641 0 0 l -0.90681,0.90681 v 0 0 h -1.28641 v 0 0 l -0.9068,-0.90681 v 0 0 -1.28641 0 0 l 0.55359,-0.55359 v 0 0 0 0 0 0 0 0 0 l -0.004,-0.0731 v 0 -8.85071 0 l -0.0688,-0.87574 v 0 0 l -0.19583,-0.81585 v 0 0 l -0.32108,-0.77516 v 0 0 l -0.43838,-0.71539 v 0 0 l -0.54491,-0.63799 v 0 0 l -0.63799,-0.54491 v 0 0 l -0.71539,-0.43838 v 0 0 l -0.77516,-0.32108 v 0 0 l -0.81585,-0.19583 v 0 0 l -0.87018,-0.0686 v 0 l -9.903534,0.10998 v 0 0 0 0 0 0 0 0 l -0.766524,0.76652 v 0 0 h -1.4524 v 0 0 l -1.0238,-1.0238 z"
           inkscape:connector-curvature="0"
           style="opacity:1;fill:#000000;fill-opacity:1;fill-rule:evenodd;stroke:#000000;stroke-width:0.10000006;stroke-miterlimit:4;stroke-dasharray:none;stroke-opacity:1" />
        <path
           id="path6492"
           d="m 136.67957,142.43591 v 0 0 0 0 l -0.0163,-0.0343 v 0 l -0.0363,-0.1016 v 0 l -0.0262,-0.10465 v 0 l -0.0158,-0.10668 v 0 l -0.005,-0.1077 v 0 -2.19999 0 l 0.005,-0.1077 v 0 l 0.0158,-0.10668 v 0 l 0.0262,-0.10465 v 0 l 0.0363,-0.1016 v 0 l 0.0462,-0.0975 v 0 l 0.0554,-0.0927 v 0 l 0.0643,-0.0866 v 0 l 0.0724,-0.08 v 0 l 0.08,-0.0724 v 0 l 0.0866,-0.0643 v 0 l 0.0927,-0.0554 v 0 l 0.0975,-0.0462 v 0 l 0.1016,-0.0363 v 0 l 0.10465,-0.0262 v 0 l 0.10668,-0.0158 v 0 l 0.10822,-0.006 v 0 l 0.10769,0.005 v 0 l 0.10668,0.0158 v 0 l 0.10465,0.0262 v 0 l 0.1016,0.0363 v 0 l 0.0975,0.0462 v 0 l 0.0927,0.0554 v 0 l 0.0866,0.0643 v 0 l 0.08,0.0724 v 0 l 0.0724,0.08 v 0 l 0.0643,0.0866 v 0 l 0.0554,0.0927 v 0 l 0.0462,0.0975 v 0 l 0.0363,0.1016 v 0 l 0.0262,0.10465 v 0 l 0.0158,0.10668 v 0 l 0.005,0.1077 v 0 2.19999 0 l -0.005,0.1077 v 0 l -0.0158,0.10668 v 0 l -0.0262,0.10465 v 0 l -0.0363,0.1016 v 0 l -0.0163,0.0343 v 0 0 0 0 0.94894 0 l 0.0182,0.25451 v 0 l 0.0467,0.21437 v 0 l 0.0767,0.20549 v 0 l 0.10516,0.19253 v 0 l 0.13157,0.17552 v 0 l 0.1552,0.15519 v 0 l 0.17551,0.13157 v 0 l 0.19253,0.10516 v 0 l 0.20549,0.0767 v 0 l 0.21437,0.0467 v 0 l 0.254,0.0182 v 0 l 13.72548,-0.017 v 0 0 0 0 0 0 0 0 l 0.75184,-0.75184 v 0 0 h 1.45239 v 0 0 l 1.0238,1.0238 v 0 0 1.45239 0 0 l -0.4398,0.4398 v 0 0 0 0 0 0 0 0 0 0 0 0 0 0 0 0 l 0.39291,0.39292 v 0 0 0 0 0 0 0 0 h 3.52579 v 0 0 0 0 0 0 0 0 l 0.12243,-0.12243 v 0 0 0 0 0 0 0 0 -1.565 0 0 0 0 0 0 0 0 l -0.5,-0.5 v 0 0 -1.245 0 0 l 0.87749,-0.8775 v 0 0 h 1.24501 v 0 0 l 0.87749,0.8775 v 0 0 1.245 0 0 l -0.5,0.5 v 0 0 0 0 0 0 0 0 1.565 0 0 0 0 0 0 0 0 l 0.5,0.5 v 0 0 1.245 0 0 l -0.87749,0.8775 v 0 0 h -1.24501 v 0 0 l -0.5,-0.5 v 0 0 0 0 0 0 0 0 h -3.94 v 0 l -0.098,-0.005 v 0 l -0.097,-0.0144 v 0 l -0.0953,-0.0238 v 0 l -0.0924,-0.033 v 0 l -0.0887,-0.0419 v 0 l -0.0841,-0.0505 v 0 l -0.0787,-0.0584 v 0 l -0.0726,-0.0658 v 0 l -1.2889,-1.2889 v 0 l -0.0658,-0.0727 v 0 l -0.0584,-0.0787 v 0 l -0.0505,-0.0841 v 0 l -0.0419,-0.0887 v 0 l -0.033,-0.0924 v 0 l -0.0137,-0.0546 v 0 0 0 0 0 0 l -0.50373,-0.50373 v 0 0 0 0 0 0 0 0 l -13.76299,0.0171 v 0 l -0.0363,-0.002 v 0 l -0.0363,-8.1e-4 v 0 l -0.36149,-0.0259 v 0 l -0.14122,-0.0203 v 0 l -0.35413,-0.077 v 0 l -0.13691,-0.0401 v 0 l -0.33954,-0.12674 v 0 l -0.1298,-0.0592 v 0 l -0.31808,-0.17374 v 0 l -0.12014,-0.0772 v 0 l -0.29012,-0.21717 v 0 l -0.10795,-0.0935 v 0 l -0.25626,-0.25626 v 0 l -0.0935,-0.10795 v 0 l -0.21717,-0.29012 v 0 l -0.0772,-0.12014 v 0 l -0.17374,-0.31808 v 0 l -0.0592,-0.1298 v 0 l -0.12674,-0.33955 v 0 l -0.0401,-0.1369 v 0 l -0.077,-0.35413 v 0 l -0.0203,-0.14122 v 0 l -0.0259,-0.36147 v 0 l -8e-4,-0.0358 v 0 l -0.001,-0.035 v 0 z"
           inkscape:connector-curvature="0"
           style="opacity:1;fill:#000000;fill-opacity:1;fill-rule:evenodd;stroke:#000000;stroke-width:0.10000006;stroke-miterlimit:4;stroke-dasharray:none;stroke-opacity:1" />
        <path
           id="path6494"
           d="m 119.62287,148.87276 v 0 l -0.0226,-0.001 v 0 l -0.0223,-0.003 v 0 l -0.0219,-0.005 v 0 l -0.0212,-0.008 v 0 l -0.0204,-0.01 v 0 l -0.0194,-0.0116 v 0 l -0.0181,-0.0135 v 0 l -0.0167,-0.0152 v 0 l -0.0152,-0.0167 v 0 l -0.0135,-0.0181 v 0 l -0.0116,-0.0194 v 0 l -0.01,-0.0204 v 0 l -0.008,-0.0213 v 0 l -0.005,-0.0219 v 0 l -0.003,-0.0223 v 0 l -10e-4,-0.0225 v 0 l 10e-4,-0.0225 v 0 l 0.003,-0.0223 v 0 l 0.005,-0.0219 v 0 l 0.008,-0.0213 v 0 l 0.01,-0.0204 v 0 l 0.0116,-0.0194 v 0 l 0.0135,-0.0181 v 0 l 0.0152,-0.0167 v 0 l 0.0167,-0.0152 v 0 l 0.0181,-0.0135 v 0 l 0.0194,-0.0116 v 0 l 0.0204,-0.01 v 0 l 0.0212,-0.008 v 0 l 0.0219,-0.005 v 0 l 0.0223,-0.003 v 0 l 0.0226,-0.001 v 0 h 1.5467 v 0 l 0.0225,0.001 v 0 l 0.0223,0.003 v 0 l 0.0219,0.005 v 0 l 0.0212,0.008 v 0 l 0.0204,0.01 v 0 l 0.0194,0.0116 v 0 l 0.0181,0.0135 v 0 l 0.0167,0.0152 v 0 l 0.0152,0.0167 v 0 l 0.0135,0.0181 v 0 l 0.0116,0.0194 v 0 l 0.01,0.0204 v 0 l 0.008,0.0213 v 0 l 0.005,0.0219 v 0 l 0.003,0.0223 v 0 l 0.001,0.0225 v 0 l -0.001,0.0225 v 0 l -0.003,0.0223 v 0 l -0.005,0.0219 v 0 l -0.008,0.0213 v 0 l -0.01,0.0204 v 0 l -0.0116,0.0194 v 0 l -0.0135,0.0181 v 0 l -0.0152,0.0167 v 0 l -0.0167,0.0152 v 0 l -0.0181,0.0135 v 0 l -0.0194,0.0116 v 0 l -0.0204,0.01 v 0 l -0.0212,0.008 v 0 l -0.0219,0.005 v 0 l -0.0223,0.003 v 0 l -0.0225,0.001 v 0 z"
           inkscape:connector-curvature="0"
           style="opacity:1;fill:#000000;fill-opacity:1;fill-rule:evenodd;stroke:#000000;stroke-width:0.10000006;stroke-miterlimit:4;stroke-dasharray:none;stroke-opacity:1" />
        <path
           id="path6496"
           d="m 97.852769,143.97496 v 0 l 0.05989,-0.001 v 0 0 l 0.0809,0.0107 v 0 0 l 0.0967,0.0604 v 0 l 0.162204,0.10694 v 0 0 l 0.155093,0.14884 v 0 l 0.258399,0.21946 v 0 l 0.226594,0.21463 v 0 l 0.229895,0.23368 0.165303,0.16789 v 0 l 0.271,0.24232 v 0 l 0.160503,0.16281 v 0 l 0.160503,0.143 v 0 l 0.147597,0.1171 v 0 0 0 l 0.14791,0.0655 v 0 0 l 0.1033,0.0259 v 0 0 0 0 0 0 l 0.0771,-0.0262 v 0 0 0 0 0 0 l 0.0372,-0.0526 v 0 0 0 0 0 0 0 0 l -0.0233,-0.11151 v 0 0 0 0 l -0.15791,-0.21184 v 0 l -0.176,-0.22707 v 0 l -0.130505,-0.17399 v 0 l -0.118491,-0.18796 v 0 l -0.150013,-0.24994 v 0 0 l -0.07501,-0.1999 v 0 l -0.025,-0.10007 v 0 0 -0.3 0 0 l 0.05001,-0.12497 v 0 0 l 0.07501,-0.10008 v 0 l 0.1,-0.10007 v 0 0 l 0.124994,-0.025 v 0 0 0 l 0.049,-0.0262 v 0 0 l 0.100985,0.001 v 0 l 0.14052,0.0224 v 0 0 l 0.15951,0.0526 v 0 l 0.1381,0.0554 v 0 0 l 0.17701,0.12065 v 0 0 l 0.20991,0.19888 v 0 l 0.2,0.1999 v 0 l 0.22499,0.275 v 0 l 0.2,0.24994 v 0 0 0 0 0 0 0 0 0 0 0 0 0 0 0 0 0 0 0 0 0 0 0 0 0 0 0 0 l -0.05,-0.17501 v 0 l -0.1,-0.32499 v 0 l -0.025,-0.15011 v 0 0 l 0.05,-0.3 v 0 0 l 0.075,-0.10008 v 0 l 0.075,-0.0749 v 0 0 l 0.075,-0.05 v 0 0 h 0.22499 v 0 0 l 0.17501,0.05 v 0 0 l 0.22499,0.12497 v 0 0 l 0.325,0.3 v 0 l 0.5535,0.58331 v 0 0 0 0 0 0 0 0 0 0 0 0 0 0 0 0 0 0 0 0 0 0 0 0 0 0 0 0 l -0.0975,-0.2667 v 0 0 l -0.0253,-0.25121 v 0 0 l 0.0145,-0.17399 v 0 0 l 0.0421,-0.16611 v 0 0 l 0.053,-0.0815 v 0 0 l 0.13081,-0.0813 v 0 0 l 0.15771,0.007 v 0 0 l 0.17228,0.10389 v 0 0 l 0.1362,0.143 v 0 l 0.5456,0.54529 v 0 l 0.829,0.8148 v 0 l 0.4211,0.38349 v 0 l 0.1718,0.12929 v 0 0 0 0 l 0.0835,0.0245 v 0 0 0 l 0.089,-0.003 v 0 0 0 l 0.0641,-0.0257 v 0 0 0 0 0 0 0 0 0 0 0 0 l -0.001,-0.10363 v 0 0 0 l -0.0559,-0.16738 v 0 0 l -0.6256,-1.16261 v 0 l -0.4073,-0.72741 v 0 l -1.1265,-2.09819 v 0 0 l 0.6827,0.0343 v 0 0 l 0.8127,1.34869 v 0 l 0.2127,0.35199 v 0 l 0.272,0.43861 v 0 0 l 0.2718,0.30841 v 0 l 0.2159,0.23164 v 0 l 0.25169,0.24994 v 0 l 0.22649,0.23266 v 0 l 0.21689,0.21489 v 0 l 0.1646,0.15748 v 0 l 0.18989,0.1877 v 0 0 l 0.1873,0.1265 v 0 l 0.1767,0.11607 v 0 0 0 0 0 l 0.3686,0.0505 v 0 0 0 0 0 0 0 0 0 0 0 0 0 0 0 0 0 0 0 0 0 l -0.15001,-0.4 v 0 l -0.325,-0.74998 v 0 l -0.72076,-1.46637 v 0 0 0 0 0 0 0 0 0 l -0.0125,-0.003 v 0 0 l -0.053,-0.13563 v 0 l -0.20841,-0.40109 v 0 l -0.248,-0.46122 v 0 l -0.246,-0.4319 v 0 l -0.16881,-0.3269 v 0 l -0.0196,-0.0546 v 0 l -0.0283,-0.0551 v 0 0 l 0.0366,-0.018 v 0 0 l 0.11678,0.005 v 0 0 l 0.23511,0.10414 v 0 l 0.3083,0.18516 v 0 l 0.3318,0.22022 v 0 l 0.22679,0.18948 v 0 l 0.3176,0.25121 v 0 l 0.3083,0.2793 v 0 l 0.6336,0.6111 v 0 l 0.5753,0.60871 v 0 l 0.127,0.13055 v 0 0 0 0 0 0 0 0 0 0 0 0 0 0 0 0 l 0.13005,-0.13639 v 0 0 l 0.15824,-0.10999 v 0 l 0.15799,-0.082 v 0 0 l 0.20498,-0.0447 v 0 0 l 0.18669,-0.008 v 0 0 l 0.21692,0.047 v 0 0 l 0.15163,0.0983 v 0 0 l 0.14809,0.14681 v 0 0 l 0.0874,0.13259 v 0 0 l 0.0312,0.13411 v 0 l 0.0135,0.143 v 0 l 0.001,0.14605 v 0 0 l -0.025,0.12751 v 0 0 l -0.05,0.12497 v 0 l -0.0749,0.175 v 0 l -0.15011,0.24994 v 0 l -0.0749,0.10007 v 0 0 0 0 0 0 0 0 0 0 0 0 0 0 0 l 0.24994,0.24994 v 0 l 0.32499,0.3 v 0 l 0.22504,0.17501 v 0 l 0.1999,0.15011 v 0 0 0 l 0.3,0.12497 v 0 l 0.3095,0.10947 v 0 0 0 0 l 0.34051,-0.01 v 0 0 0 0 l 0.24994,-0.10007 v 0 0 0 0 l 0.12928,-0.11608 v 0 0 0 0 0 0 0 0 0 0 l -0.0295,-0.1839 v 0 0 0 0 0 l -0.10008,-0.12496 v 0 0 0 0 0 l -0.19989,-0.0749 v 0 l -0.22505,-0.05 v 0 0 l -0.1999,-0.15012 v 0 0 l -0.05,-0.22504 v 0 0 l 0.05,-0.17501 v 0 0 l 0.0818,-0.0843 v 0 0 l 0.0965,-0.0625 v 0 l 0.0968,-0.0533 v 0 0 l 0.31869,0.0397 v 0 0 l 0.2319,0.1364 v 0 0 l 0.17501,0.22504 v 0 0 l 0.05,0.3 v 0 0 0.22505 0 0 l -0.05,0.10007 v 0 l -0.05,0.15012 v 0 0 l -0.10008,0.10007 v 0 l -0.13513,0.10897 v 0 0 l -0.18973,0.0909 v 0 0 l -0.15139,0.0267 v 0 l -0.1877,0.009 v 0 0 l -0.30341,-0.0503 v 0 0 l -0.33251,-0.10998 v 0 l -0.3,-0.15012 v 0 0 l -0.4,-0.35001 v 0 l -0.375,-0.32499 v 0 l -0.15012,-0.10008 v 0 0 0 0 0 0 0 0 0 0 0 0 l -0.22504,0.15011 v 0 l -0.1999,0.15012 v 0 l -0.275,0.15926 v 0 l -0.27681,0.12039 v 0 0 l -0.11735,0.03 v 0 0 0 0 0 0 0 0 0 0 0 0 0 0 0 0 0 l 0.14707,0.35131 v 0 0 l -0.37011,-0.0498 v 0 l -0.4268,-0.048 v 0 l -0.18339,-0.0259 v 0 0 l -0.0532,-0.12827 v 0 0 0 0 0 0 0 0 0 0 0 0 l -0.1605,0.006 v 0 0 l -0.2429,-0.0947 v 0 l -0.19299,-0.08 v 0 0 l -0.14579,-0.111 v 0 l -0.17961,-0.14478 v 0 l -0.2433,-0.20523 v 0 l -0.20399,-0.20752 v 0 l -0.21031,-0.21107 -0.25101,-0.25451 v 0 l -0.2318,-0.22631 v 0 0 0 0 0 0 0 0 0 0 0 0 0 0 0 0 0 0 0 0 0 0 0 0 0 0 0 0 l 0.17181,0.39169 v 0 l 0.17371,0.34869 v 0 l 0.0971,0.29701 v 0 l 0.0505,0.13284 v 0 0 l 0.0113,0.14579 v 0 0 l -0.0172,0.11202 v 0 0 l -0.0433,0.0861 v 0 l -0.0302,0.0749 v 0 0 l -0.10399,0.10846 v 0 0 l -0.11811,0.0686 v 0 0 l -0.1052,0.0168 v 0 l -0.10119,0.0145 v 0 0 l -0.082,-0.0113 v 0 0 l -0.11379,-0.045 v 0 l -0.14671,-0.0711 v 0 0 l -0.5504,-0.4491 v 0 l -0.63191,-0.64759 v 0 l -0.5613,-0.56211 v 0 0 0 l -0.0813,-0.0424 v 0 0 0 0 0 0 0 0 0 0 l -0.0764,0.0406 v 0 0 0 0 0 0 0 0 0 0 l -0.0123,0.1115 v 0 0 0 0 0 l 0.0953,0.20803 v 0 0 l 0.5356,0.81981 v 0 l 0.4435,0.62451 v 0 0 l -0.8844,-0.0521 v 0 0 l -0.7577,-1.01821 v 0 l -0.6687,-0.75771 v 0 l -0.225,-0.1999 v 0 l -0.175,-0.12497 v 0 0 0 0 0 0 h -0.125 v 0 0 0 0 0 0 0 0 0 0 0 0 0 l -0.025,0.0749 v 0 0 0 0.10008 0 0 0 l 0.125,0.37501 v 0 0 l 0.25001,0.475 v 0 l 0.7,1.12499 v 0 0 l -0.875,-0.05 v 0 0 l -0.45,-0.72499 v 0 l -0.17501,-0.24993 v 0 l -0.22499,-0.27501 v 0 l -0.288,-0.375 v 0 l -0.25001,-0.24359 v 0 l -0.2631,-0.21946 v 0 0 0 l -0.2108,-0.0991 v 0 0 0 l -0.175,-0.0259 v 0 0 0 0 0 0 0 0 0 l -0.06909,0.0688 v 0 0 0 0 0 l -0.019,0.0691 v 0 0 0 0 0 0 0 l 0.04999,0.10007 v 0 0 l 0.15001,0.1999 v 0 l 0.162,0.18568 v 0 l 0.138,0.18948 v 0 l 0.175,0.24994 v 0 l 0.14451,0.24358 v 0 0 l 0.0694,0.1745 v 0 l 0.064,0.13589 v 0 0 l 0.0124,0.159 v 0 0 l -0.0264,0.13818 v 0 0 l -0.0652,0.12751 v 0 0 l -0.0715,0.0965 v 0 0 l -0.1432,0.0968 v 0 0 l -0.0944,0.0192 v 0 l -0.1174,0.009 v 0 l -0.13031,-0.008 v 0 0 l -0.12369,-0.0368 v 0 l -0.146507,-0.0637 -0.147193,-0.0648 v 0 0 l -0.13429,-0.1171 v 0 l -0.173508,-0.16916 v 0 l -0.173405,-0.17882 v 0 l -0.228702,-0.22352 v 0 l -0.21651,-0.20878 v 0 l -0.236296,-0.2474 v 0 l -0.277,-0.2765 v 0 l -0.211607,-0.20016 v 0 l -0.157912,-0.13919 v 0 l -0.174193,-0.11811 z m 10.757461,1.34071 v 0 0 0 0 0 0 0 0 0 0 0 0 0 0 0 0 0 0 0 0 0 0 0 0 0 0 0 l 1.4e-4,5.9e-4 v 0 0 0 0 0 l 0.19659,0.22377 v 0 0 l 0.0406,0.0325 v 0 0 0 0 0 0 0 0 0 0 l 0.23902,-0.0704 v 0 0 l 0.275,-0.15011 v 0 l 0.3,-0.1999 v 0 0 l 0.35002,-0.35001 v 0 l 0.0749,-0.10008 v 0 0 0 0 l 0.0612,-0.21564 v 0 0 0 l -1e-4,-0.0952 v 0 l -0.009,-0.10948 v 0 l -0.0119,-0.0945 v 0 0 0 l -0.0399,-0.0851 v 0 l -0.0749,-0.12497 v 0 0 l -0.175,-0.1999 v 0 0 0 0 l -0.15647,-0.0843 v 0 0 l -0.19355,-0.0658 v 0 0 0 l -0.14376,-0.006 v 0 0 0 0 l -0.13437,0.0495 v 0 0 0 l -0.1811,0.127 v 0 0 0 0 0 0 0 0 0 0 0 0 0 0 0 0 0 l 0.17552,0.21005 v 0 l 0.29479,0.34059 v 0 l 0.4763,0.47841 v 0 0 l -0.0871,0.0914 v 0 0 l -0.67991,-0.74981 v 0 l -0.2748,-0.2669 v 0 0 0 0 0 0 0 0 0 0 0 0 0 0 0 0 0 0 0 l -0.10973,0.23292 v 0 l -0.081,0.1778 v 0 0 0 l -0.034,0.19786 v 0 l -0.0272,0.2585 v 0 0 l 0.0212,0.278 v 0 l 0.033,0.18923 v 0 l 0.0757,0.30061 v 0 0 z m -1.27127,-2.13497 v 0 0 0 0 0 0 0 0 0 0 0 0 0 0 0 0 0 0 0 0 0 0 0 0 l 0.61991,0.98664 v 0 l 0.4828,0.786 v 0 l 0.13551,0.2281 v 0 0 l 0.0264,0.10718 v 0 0 0 0 0 0 0 0 0 0 0 0 0 0 0 0 0 0 0 0 0 0 0 0 0 0 0 0 0 0 0 l -0.0223,-0.16103 v 0 l -0.0179,-0.16053 v 0 l -0.008,-0.29309 v 0 l 0.0169,-0.14351 v 0 l 0.0356,-0.18999 v 0 0 l 0.0803,-0.20397 v 0 l 0.0793,-0.16484 v 0 l 0.0937,-0.1811 v 0 0 0 0 0 0 0 0 0 0 0 0 l -0.12218,-0.1392 v 0 l -0.3883,-0.40419 v 0 l -0.6658,-0.6831 v 0 l -0.6485,-0.6123 v 0 l -0.5501,-0.4017 v 0 l -0.2848,-0.15951 v 0 l -0.14331,-0.0701 v 0 0 0 0 0 0 0 0 0 0 0 0 0 0 0 0 0 0 0 0 0 0 0 0 0 0 0 l 0.328,0.47899 0.30341,0.44399 v 0 l 0.299,0.43391 v 0 l 0.3609,0.50579 v 0 0 z"
           inkscape:connector-curvature="0"
           style="opacity:1;fill:#000000;fill-opacity:1;fill-rule:evenodd;stroke:#000000;stroke-width:0.10000006;stroke-miterlimit:4;stroke-dasharray:none;stroke-opacity:1" />
        <path
           id="path6498"
           d="m 120.68957,137.92376 v 0 -1.4524 0 0 l 0.98019,-0.98018 v 0 0 0 0 0 0 l 0.0432,-0.18034 v 0 l 0.0213,-0.0757 v 0 l 0.0272,-0.0737 v 0 l 0.32126,-0.77562 v 0 l 0.0328,-0.0714 v 0 l 0.0384,-0.0686 v 0 l 0.43863,-0.7158 v 0 l 0.0437,-0.0653 v 0 l 0.0485,-0.0617 v 0 l 0.54521,-0.63838 v 0 l 0.0533,-0.0577 v 0 l 0.0577,-0.0533 v 0 l 0.63838,-0.54521 v 0 l 0.0617,-0.0485 v 0 l 0.0653,-0.0437 v 0 l 0.7158,-0.43863 v 0 l 0.0686,-0.0384 v 0 l 0.0714,-0.0328 v 0 l 0.77561,-0.32126 v 0 l 0.0737,-0.0272 v 0 l 0.0757,-0.0213 v 0 l 0.81633,-0.19609 v 0 l 0.077,-0.0153 v 0 l 0.078,-0.009 v 0 l 0.83693,-0.0658 v 0 l 0.045,-0.001 v 0 l 0.045,-0.002 v 0 l 12.446,0.143 v 0 l 0.0335,0.002 v 0 l 0.0335,9.9e-4 v 0 l 0.39736,0.0312 v 0 l 0.078,0.009 v 0 l 0.077,0.0153 v 0 l 0.38755,0.093 v 0 l 0.0757,0.0213 v 0 l 0.0737,0.0272 v 0 l 0.36823,0.15266 v 0 l 0.0714,0.0328 v 0 l 0.0686,0.0384 v 0 l 0.33983,0.20828 v 0 l 0.0653,0.0437 v 0 l 0.0617,0.0485 v 0 l 0.30307,0.25885 v 0 l 0.0577,0.0533 v 0 l 0.0533,0.0577 v 0 l 0.25885,0.30307 v 0 l 0.0485,0.0617 v 0 l 0.0437,0.0653 v 0 l 0.20828,0.33983 v 0 l 0.0383,0.0686 v 0 l 0.0328,0.0714 v 0 l 0.15265,0.36823 v 0 l 0.0272,0.0737 v 0 l 0.0213,0.0757 v 0 l 0.093,0.38755 v 0 l 0.0153,0.077 v 0 l 0.009,0.078 v 0 l 0.0312,0.39733 v 0 l 10e-4,0.0394 v 0 l 0.002,0.0392 v 0 4.79465 0 0 0 0 l 0.0163,0.0343 v 0 l 0.0363,0.1016 v 0 l 0.0262,0.10465 v 0 l 0.0158,0.10668 v 0 l 0.005,0.1077 v 0 2.19999 0 l -0.005,0.1077 v 0 l -0.0158,0.10668 v 0 l -0.0262,0.10465 v 0 l -0.0363,0.1016 v 0 l -0.0462,0.0975 v 0 l -0.0554,0.0927 v 0 l -0.0643,0.0866 v 0 l -0.0724,0.08 v 0 l -0.08,0.0724 v 0 l -0.0866,0.0643 v 0 l -0.0927,0.0554 v 0 l -0.0975,0.0462 v 0 l -0.1016,0.0363 v 0 l -0.10464,0.0262 v 0 l -0.10668,0.0158 v 0 l -0.10822,0.006 v 0 l -0.1077,-0.005 v 0 l -0.10668,-0.0158 v 0 l -0.10464,-0.0262 v 0 l -0.1016,-0.0363 v 0 l -0.0975,-0.0462 v 0 l -0.0927,-0.0554 v 0 l -0.0866,-0.0643 v 0 l -0.08,-0.0724 v 0 l -0.0724,-0.08 v 0 l -0.0643,-0.0866 v 0 l -0.0554,-0.0927 v 0 l -0.0462,-0.0975 v 0 l -0.0363,-0.1016 v 0 l -0.0262,-0.10465 v 0 l -0.0158,-0.10668 v 0 l -0.005,-0.1077 v 0 -2.19999 0 l 0.005,-0.1077 v 0 l 0.0158,-0.10668 v 0 l 0.0262,-0.10465 v 0 l 0.0363,-0.1016 v 0 l 0.0163,-0.0343 v 0 0 0 0 -4.75536 0 l -0.022,-0.27973 v 0 0 l -0.0564,-0.23444 v 0 0 l -0.0922,-0.22276 v 0 0 l -0.12598,-0.20574 v 0 0 l -0.15672,-0.18339 v 0 0 l -0.18339,-0.15672 v 0 0 l -0.20574,-0.12598 v 0 0 l -0.22275,-0.0922 v 0 0 l -0.23445,-0.0564 v 0 0 l -0.27973,-0.022 v 0 h -6.27141 v 0 l -0.47839,0.0376 v 0 0 l -0.42829,0.10287 v 0 0 l -0.40693,0.16865 v 0 0 l -0.37554,0.23013 v 0 0 l -0.33493,0.28605 v 0 0 l -0.28605,0.33493 v 0 0 l -0.23013,0.37554 v 0 0 l -0.16865,0.40693 v 0 0 l -0.10287,0.42829 v 0 0 l -0.0376,0.47846 v 0 l -0.001,7.51464 v 0 0 0 0 0 0 0 0 l 0.65118,0.65118 v 0 0 1.3696 0 0 l -0.9652,0.9652 v 0 0 h -1.36959 v 0 0 l -0.9652,-0.9652 v 0 0 -1.3696 0 0 l 0.64881,-0.64882 v 0 0 0 0 0 0 0 0 l 0.001,-7.55655 v 0 l 0.002,-0.0391 v 0 l 0.001,-0.0391 v 0 l 0.047,-0.59601 v 0 l 0.009,-0.078 v 0 l 0.0153,-0.077 v 0 l 0.13944,-0.58133 v 0 l 0.0213,-0.0757 v 0 l 0.0272,-0.0737 v 0 l 0.22885,-0.55235 v 0 l 0.0328,-0.0714 v 0 l 0.0384,-0.0686 v 0 l 0.31237,-0.50976 v 0 l 0.0437,-0.0653 v 0 l 0.0485,-0.0617 v 0 l 0.0323,-0.0378 v 0 0 0 0 0 0 0 0 0 0 0 0 0 0 0 0 0 0 0 0 0 0 0 l -2.25194,-0.0259 v 0 l -0.71356,0.0561 v 0 0 l -0.66327,0.15926 v 0 0 l -0.63018,0.26104 v 0 0 l -0.58158,0.35641 v 0 0 l -0.51867,0.443 v 0 0 l -0.443,0.51867 v 0 0 l -0.35641,0.58158 v 0 0 l -0.26104,0.6302 v 0 0 l -0.013,0.0538 v 0 0 0 0 0 0 0 0 0 0 l 0.56312,0.56312 v 0 0 1.4524 0 0 l -1.0238,1.02379 v 0 0 h -1.4524 v 0 0 l -1.0238,-1.02379 z"
           inkscape:connector-curvature="0"
           style="opacity:1;fill:#000000;fill-opacity:1;fill-rule:evenodd;stroke:#000000;stroke-width:0.10000006;stroke-miterlimit:4;stroke-dasharray:none;stroke-opacity:1" />
        <path
           id="path6500"
           d="m 165.38957,130.07306 v 0 -1.24501 0 0 l 0.87749,-0.87749 v 0 0 h 1.24501 v 0 0 l 0.5,0.5 v 0 0 0 0 0 0 0 0 h 1.4175 v 0 l 0.0356,0.002 v 0 l 0.0358,8e-4 v 0 l 0.18085,0.0129 v 0 l 0.14122,0.0203 v 0 l 0.17704,0.0386 v 0 l 0.13691,0.0401 v 0 l 0.16967,0.0633 v 0 l 0.12979,0.0592 v 0 l 0.15901,0.0869 v 0 l 0.12014,0.0772 v 0 l 0.14503,0.10871 v 0 l 0.10795,0.0935 v 0 l 0.12802,0.12801 v 0 l 0.0935,0.10795 v 0 l 0.10871,0.14504 v 0 l 0.0772,0.12014 v 0 l 0.0869,0.159 v 0 l 0.0592,0.1298 v 0 l 0.0633,0.16967 v 0 l 0.0401,0.1369 v 0 l 0.0386,0.17704 v 0 l 0.0203,0.14123 v 0 l 0.0129,0.18084 v 0 l 8e-4,0.0358 v 0 l 0.002,0.0353 v 0 2.50071 0 l 0.0376,0.47838 v 0 0 l 0.10287,0.42829 v 0 0 0 l 0.0716,0.17272 v 0 0 0 0 0 0 0 0 0 0 0 0 h 0.68052 v 0 0 l 0.87749,0.8775 v 0 0 0.68052 0 0 0 0 0 0 0 0 0 0 0 0 l 0.17272,0.0716 v 0 0 l 0.42829,0.10287 v 0 0 0 l 0.514,0.0404 v 0 l 0.17729,0.0127 v 0 l 0.14123,0.0203 v 0 l 0.17703,0.0386 v 0 l 0.13691,0.0401 v 0 l 0.16967,0.0632 v 0 l 0.1298,0.0592 v 0 l 0.159,0.0869 v 0 l 0.12014,0.0772 v 0 l 0.14504,0.10871 v 0 l 0.10795,0.0935 v 0 l 0.12801,0.12802 v 0 l 0.0935,0.10795 v 0 l 0.10872,0.14503 v 0 l 0.0772,0.12014 v 0 l 0.0869,0.15901 v 0 l 0.0592,0.12979 v 0 l 0.0632,0.16967 v 0 l 0.0401,0.13691 v 0 l 0.0386,0.17704 v 0 l 0.0203,0.14122 v 0 l 0.0129,0.18085 v 0 l 8e-4,0.0358 v 0 l 10e-4,0.0352 v 0 8.89 0 l -0.002,0.0391 v 0 l -0.001,0.0394 v 0 l -0.0156,0.19862 v 0 l -0.009,0.078 v 0 l -0.0153,0.077 v 0 l -0.0465,0.19381 v 0 l -0.0213,0.0757 v 0 l -0.0272,0.0737 v 0 l -0.0762,0.18415 v 0 l -0.0328,0.0714 v 0 l -0.0384,0.0686 v 0 l -0.10414,0.16993 v 0 l -0.0437,0.0653 v 0 l -0.0485,0.0617 v 0 l -0.12954,0.15164 v 0 l -0.0533,0.0577 v 0 l -0.0577,0.0533 v 0 l -0.15164,0.12954 v 0 l -0.0617,0.0485 v 0 l -0.0653,0.0437 v 0 l -0.16992,0.10414 v 0 l -0.0686,0.0384 v 0 l -0.0714,0.0328 v 0 l -0.18415,0.0762 v 0 l -0.0737,0.0272 v 0 l -0.0757,0.0213 v 0 l -0.1938,0.0465 v 0 l -0.077,0.0153 v 0 l -0.078,0.009 v 0 l -0.19863,0.0156 v 0 l -0.0394,0.001 v 0 l -0.0388,0.002 v 0 h -1.4175 v 0 0 0 0 0 0 0 0 l -0.5,0.5 v 0 0 h -1.245 v 0 0 l -0.8775,-0.87749 v 0 0 -1.24501 0 0 l 0.8775,-0.87749 v 0 0 h 1.245 v 0 0 l 0.5,0.49999 v 0 0 0 0 0 0 0 0 h 1.37821 v 0 l 0.081,-0.006 v 0 0 l 0.0406,-0.01 v 0 0 l 0.0386,-0.016 v 0 0 l 0.0358,-0.0219 v 0 0 l 0.0318,-0.0272 v 0 0 l 0.0272,-0.0317 v 0 0 l 0.0219,-0.0358 v 0 0 l 0.016,-0.0386 v 0 0 l 0.01,-0.0406 v 0 0 l 0.006,-0.081 v 0 -8.81499 0 l -0.005,-0.0737 v 0 l -0.008,-0.0373 v 0 l -0.0133,-0.0358 v 0 l -0.0183,-0.0335 v 0 l -0.0229,-0.0305 v 0 l -0.0269,-0.0269 v 0 l -0.0305,-0.0229 v 0 l -0.0335,-0.0183 v 0 l -0.0358,-0.0133 v 0 l -0.0373,-0.008 v 0 l -0.10948,-0.008 v 0 l -0.004,-4.3e-4 v 0 l -0.004,-1.1e-4 v 0 l -0.59601,-0.047 v 0 l -0.078,-0.009 v 0 l -0.077,-0.0153 v 0 l -0.58133,-0.13945 v 0 l -0.0757,-0.0213 v 0 l -0.0737,-0.0272 v 0 l -0.55235,-0.22886 v 0 l -0.0714,-0.0328 v 0 l -0.0686,-0.0384 v 0 l -0.33841,-0.20726 v 0 0 0 0 0 0 h -0.5719 v 0 0 l -0.8775,-0.8775 v 0 0 -0.57188 0 0 0 0 0 0 l -0.20726,-0.3384 v 0 l -0.0383,-0.0686 v 0 l -0.0328,-0.0714 v 0 l -0.22885,-0.55234 v 0 l -0.0272,-0.0737 v 0 l -0.0213,-0.0757 v 0 l -0.13944,-0.58133 v 0 l -0.0153,-0.077 v 0 l -0.009,-0.078 v 0 l -0.047,-0.59601 v 0 l -0.001,-0.0391 v 0 l -0.002,-0.0397 v 0 -2.50429 0 l -0.005,-0.0737 v 0 l -0.008,-0.0373 v 0 l -0.0133,-0.0358 v 0 l -0.0183,-0.0335 v 0 l -0.0229,-0.0305 v 0 l -0.0269,-0.0269 v 0 l -0.0305,-0.0229 v 0 l -0.0335,-0.0183 v 0 l -0.0358,-0.0133 v 0 l -0.0373,-0.008 v 0 l -0.0737,-0.005 v 0 h -1.38179 v 0 0 0 0 0 0 0 0 l -0.5,0.5 v 0 0 h -1.245 v 0 0 l -0.8775,-0.87749 z"
           inkscape:connector-curvature="0"
           style="opacity:1;fill:#000000;fill-opacity:1;fill-rule:evenodd;stroke:#000000;stroke-width:0.10000006;stroke-miterlimit:4;stroke-dasharray:none;stroke-opacity:1" />
        <path
           id="path6502"
           d="m 132.8715,149.80978 v 0 l -0.002,-0.0392 v 0 -11.43 0 l 0.002,-0.0391 v 0 l 0.001,-0.0394 v 0 l 0.0312,-0.39733 v 0 l 0.009,-0.078 v 0 l 0.0153,-0.077 v 0 l 0.093,-0.38755 v 0 l 0.0213,-0.0757 v 0 l 0.0272,-0.0737 v 0 l 0.15265,-0.36823 v 0 l 0.0328,-0.0714 v 0 l 0.0383,-0.0686 v 0 l 0.20828,-0.33983 v 0 l 0.0437,-0.0653 v 0 l 0.0485,-0.0617 v 0 l 0.25885,-0.30307 v 0 l 0.0533,-0.0577 v 0 l 0.0577,-0.0533 v 0 l 0.30307,-0.25885 v 0 l 0.0617,-0.0485 v 0 l 0.0653,-0.0437 v 0 l 0.33983,-0.20828 v 0 l 0.0686,-0.0384 v 0 l 0.0714,-0.0328 v 0 l 0.36823,-0.15266 v 0 l 0.0737,-0.0272 v 0 l 0.0757,-0.0213 v 0 l 0.38755,-0.093 v 0 l 0.077,-0.0153 v 0 l 0.078,-0.009 v 0 l 0.39734,-0.0312 v 0 l 0.0394,-0.001 v 0 l 0.0389,-0.002 v 0 h 1.27 v 0 l 0.0356,0.002 v 0 l 0.0358,8e-4 v 0 l 0.36147,0.0259 v 0 l 0.14122,0.0203 v 0 l 0.35413,0.077 v 0 l 0.13691,0.0401 v 0 l 0.33954,0.12675 v 0 l 0.1298,0.0592 v 0 l 0.31808,0.17374 v 0 l 0.12014,0.0772 v 0 l 0.29012,0.21717 v 0 l 0.10795,0.0935 v 0 l 0.25626,0.25626 v 0 l 0.0935,0.10795 v 0 l 0.21717,0.29012 v 0 l 0.0772,0.12014 v 0 l 0.17374,0.31808 v 0 l 0.0592,0.1298 v 0 l 0.12675,0.33954 v 0 l 0.0401,0.13691 v 0 l 0.077,0.35413 v 0 l 0.0203,0.14122 v 0 l 0.0259,0.36147 v 0 l 8e-4,0.0358 v 0 l 10e-4,0.0352 v 0 0.98466 0 0 0 0 l 0.0163,0.0343 v 0 l 0.0363,0.1016 v 0 l 0.0262,0.10464 v 0 l 0.0158,0.10668 v 0 l 0.005,0.1077 v 0 2.2 0 l -0.005,0.10769 v 0 l -0.0158,0.10668 v 0 l -0.0262,0.10465 v 0 l -0.0363,0.1016 v 0 l -0.0462,0.0975 v 0 l -0.0554,0.0927 v 0 l -0.0643,0.0866 v 0 l -0.0724,0.08 v 0 l -0.08,0.0724 v 0 l -0.0866,0.0643 v 0 l -0.0927,0.0554 v 0 l -0.0975,0.0462 v 0 l -0.1016,0.0363 v 0 l -0.10464,0.0262 v 0 l -0.10668,0.0158 v 0 l -0.10822,0.006 v 0 l -0.1077,-0.005 v 0 l -0.10668,-0.0158 v 0 l -0.10464,-0.0262 v 0 l -0.10161,-0.0363 v 0 l -0.0975,-0.0462 v 0 l -0.0927,-0.0554 v 0 l -0.0866,-0.0643 v 0 l -0.08,-0.0724 v 0 l -0.0724,-0.08 v 0 l -0.0643,-0.0866 v 0 l -0.0554,-0.0927 v 0 l -0.0462,-0.0975 v 0 l -0.0363,-0.1016 v 0 l -0.0262,-0.10465 v 0 l -0.0158,-0.10668 v 0 l -0.005,-0.1077 v 0 -2.19999 0 l 0.005,-0.1077 v 0 l 0.0158,-0.10668 v 0 l 0.0262,-0.10465 v 0 l 0.0363,-0.1016 v 0 l 0.0163,-0.0343 v 0 0 0 0 -0.94894 0 l -0.0182,-0.25451 v 0 l -0.0467,-0.21437 v 0 l -0.0767,-0.20549 v 0 l -0.10515,-0.19253 v 0 l -0.13157,-0.17552 v 0 l -0.1552,-0.15519 v 0 l -0.17551,-0.13157 v 0 l -0.19253,-0.10516 v 0 l -0.20549,-0.0767 v 0 l -0.21438,-0.0467 v 0 l -0.2545,-0.0182 v 0 h -1.195 v 0 l -0.27973,0.022 v 0 0 l -0.23444,0.0564 v 0 0 l -0.22276,0.0922 v 0 0 l -0.20574,0.12598 v 0 0 l -0.18339,0.15672 v 0 0 l -0.15671,0.18339 v 0 0 l -0.12599,0.20574 v 0 0 l -0.0922,0.22276 v 0 0 l -0.0564,0.23444 v 0 0 l -0.022,0.2797 v 0 11.35142 0 l 0.022,0.27973 v 0 0 l 0.0564,0.23444 v 0 0 l 0.0922,0.22276 v 0 0 l 0.12599,0.20574 v 0 0 l 0.15671,0.18339 v 0 0 l 0.18339,0.15672 v 0 0 l 0.20574,0.12598 v 0 0 l 0.22276,0.0922 v 0 0 l 0.23444,0.0564 v 0 0 l 0.27973,0.022 v 0 h 16.61821 v 0 0 0 0 0 0 0 0 l 0.5,-0.5 v 0 0 h 1.24501 v 0 0 l 0.87749,0.87749 v 0 0 1.24501 0 0 l -0.87749,0.87749 v 0 0 h -1.24501 v 0 0 l -0.5,-0.5 v 0 0 0 0 0 0 0 0 h -16.65775 v 0 l -0.0391,-0.002 v 0 l -0.0394,-0.001 v 0 l -0.39733,-0.0312 v 0 l -0.078,-0.009 v 0 l -0.077,-0.0153 v 0 l -0.38755,-0.093 v 0 l -0.0757,-0.0213 v 0 l -0.0737,-0.0272 v 0 l -0.36823,-0.15266 v 0 l -0.0714,-0.0328 v 0 l -0.0686,-0.0384 v 0 l -0.33983,-0.20828 v 0 l -0.0653,-0.0437 v 0 l -0.0617,-0.0485 v 0 l -0.30307,-0.25885 v 0 l -0.0577,-0.0533 v 0 l -0.0533,-0.0577 v 0 l -0.25885,-0.30307 v 0 l -0.0485,-0.0617 v 0 l -0.0437,-0.0653 v 0 l -0.20828,-0.33983 v 0 l -0.0384,-0.0686 v 0 l -0.0328,-0.0714 v 0 l -0.15266,-0.36823 v 0 l -0.0272,-0.0737 v 0 l -0.0213,-0.0757 v 0 l -0.093,-0.38755 v 0 l -0.0153,-0.077 v 0 l -0.009,-0.078 v 0 l -0.0312,-0.39733 v 0 z"
           inkscape:connector-curvature="0"
           style="opacity:1;fill:#000000;fill-opacity:1;fill-rule:evenodd;stroke:#000000;stroke-width:0.10000006;stroke-miterlimit:4;stroke-dasharray:none;stroke-opacity:1" />
        <path
           id="path6504"
           d="m 146.33957,140.25806 v 0 0 l 0.87749,-0.87749 v 0 0 h 1.24501 v 0 0 l 0.4811,0.4811 v 0 0 0 0 0 0 0 0 h 5.0388 v 0 0 0 0 0 0 0 0 l 0.74999,-0.75001 v 0 0 h 0.11481 v 0 0 0 0 0 0 0 0 0 0 0 0 0 0 0 0 0 0 0 0 0 0 0 0 0 0 l -0.0229,-0.017 v 0 l -0.0726,-0.0658 v 0 l -0.0658,-0.0726 v 0 l -0.0584,-0.0787 v 0 l -0.0506,-0.0841 v 0 l -0.0419,-0.0886 v 0 l -0.033,-0.0925 v 0 l -0.0238,-0.0953 v 0 l -0.0144,-0.097 v 0 l -0.005,-0.098 v 0 l 0.005,-0.0981 v 0 l 0.0144,-0.097 v 0 l 0.0238,-0.0952 v 0 l 0.033,-0.0925 v 0 l 0.0419,-0.0887 v 0 l 0.0506,-0.0841 v 0 l 0.0584,-0.0787 v 0 l 0.0658,-0.0726 v 0 l 1.2511,-1.25111 v 0 l 0.0726,-0.0658 v 0 l 0.0787,-0.0584 v 0 l 0.0841,-0.0506 v 0 l 0.0886,-0.0419 v 0 l 0.0925,-0.033 v 0 l 0.0952,-0.0238 v 0 l 0.097,-0.0144 v 0 l 0.098,-0.005 v 0 h 3.6003 v 0 0 0 0 0 0 0 0 0 0 0 0 0 0 0 0 -0.8925 0 0 l 0.87749,-0.8775 v 0 0 h 1.24501 v 0 0 l 0.87749,0.8775 v 0 0 1.245 0 0 l -0.51059,0.51059 v 0 0 0 0 0 0 0 0 0 l 0.006,0.0389 v 0 l 0.005,0.0973 v 0 2.3065 0 0 0 0 0 0 0 0 l 0.5,0.5 v 0 0 1.245 0 0 l -0.8775,0.8775 v 0 0 h -1.245 v 0 0 l -0.8775,-0.8775 v 0 0 -1.245 0 0 l 0.5,-0.5 v 0 0 0 0 0 0 0 0 -1.3065 0 0 0 0 0 0 0 0 0 0 0 0 0 0 0 0 h -3.68608 v 0 0 0 0 0 0 0 0 l -0.95822,0.95821 v 0 l -0.0726,0.0658 v 0 l -0.0229,0.017 v 0 0 0 0 0 0 0 0 0 0 0 0 0 0 0 0 0 0 0 0 0 0 0 0 0 0 h 0.11481 v 0 0 l 1.0238,1.0238 v 0 0 1.45239 0 0 l -1.0238,1.0238 v 0 0 h -1.4524 v 0 0 l -0.74999,-0.74998 v 0 0 0 0 0 0 0 0 h -5.001 v 0 0 0 0 0 0 0 0 l -0.51889,0.51889 v 0 0 h -1.24501 v 0 0 L 146.34,141.50286 v 0 0 z"
           inkscape:connector-curvature="0"
           style="opacity:1;fill:#000000;fill-opacity:1;fill-rule:evenodd;stroke:#000000;stroke-width:0.10000006;stroke-miterlimit:4;stroke-dasharray:none;stroke-opacity:1" />
        <path
           id="path6506"
           d="m 160.30957,130.07306 v 0 -1.24501 0 0 l 0.87749,-0.87749 v 0 0 h 1.24501 v 0 0 l 0.87749,0.87749 v 0 0 0.68438 0 0 0 0 0 0 0 0 l 3.98918,3.86965 v 0 l 0.0681,0.0732 v 0 l 0.0605,0.0795 v 0 l 0.0523,0.0851 v 0 l 0.0434,0.0899 v 0 l 0.0343,0.0937 v 0 l 0.0248,0.0968 v 0 l 0.015,0.0988 v 0 l 0.005,0.0998 v 0 l 0.006,6.14377 v 0 0 0 l 0.18568,0.53399 v 0 l 0.30513,0.58615 v 0 l 0.38684,0.53574 v 0 l 0.46043,0.47402 v 0 l 0.52425,0.40228 v 0 l 0.57701,0.32205 v 0 l 0.61761,0.23495 v 0 l 0.30419,0.0676 v 0 0 0 0 0 0 0 0 0 0 0 0 0 0 0 0 0 0 -1.24874 0 l 0.005,-0.098 v 0 l 0.0144,-0.097 v 0 l 0.0239,-0.0952 v 0 l 0.033,-0.0925 v 0 l 0.0224,-0.0472 v 0 0 0 0 0 0 0 0 0 0 0 0 l -0.5985,-0.5985 v 0 0 -1.24501 0 0 l 0.87749,-0.87749 v 0 0 h 1.24501 v 0 0 l 0.87749,0.87749 v 0 0 1.24501 0 0 l -0.5985,0.5985 v 0 0 0 0 0 0 0 0 0 0 0 0 l 0.0224,0.0472 v 0 l 0.033,0.0925 v 0 l 0.0238,0.0952 v 0 l 0.0144,0.097 v 0 l 0.005,0.098 v 0 1.4175 0 0 0 0 0 0 0 0 l 0.5,0.5 v 0 0 1.245 0 0 l -0.8775,0.8775 v 0 0 h -1.245 v 0 0 l -0.84671,-0.84671 v 0 0 0 0 0 0 l -0.33899,-0.0752 v 0 l -0.13919,-0.0417 v 0 l -0.75377,-0.28684 v 0 l -0.13183,-0.0615 v 0 l -0.70424,-0.39307 v 0 l -0.12141,-0.0797 v 0 l -0.63985,-0.49099 v 0 l -0.10846,-0.0965 v 0 l -0.56192,-0.57853 v 0 l -0.0935,-0.11125 v 0 l -0.47216,-0.65388 v 0 l -0.0762,-0.12369 v 0 l -0.37239,-0.71539 v 0 l -0.0576,-0.13335 v 0 l -0.2648,-0.7618 v 0 l -0.005,-0.0187 v 0 0 l -0.007,-0.0184 v 0 l -0.007,-0.0287 v 0 l -0.008,-0.0284 v 0 l -0.004,-0.0192 v 0 l -0.005,-0.0189 v 0 l -0.004,-0.0292 v 0 l -0.006,-0.029 v 0 l -0.002,-0.0194 v 0 l -0.003,-0.0193 v 0 l -10e-4,-0.0295 v 0 l -0.003,-0.0295 v 0 l 1.8e-4,-0.0195 v 0 l -9.8e-4,-0.0195 v 0 l -0.006,-5.88953 v 0 0 0 0 0 0 0 0 l -3.68321,-3.57285 v 0 0 0 0 0 0 0 0 h -0.73261 v 0 0 l -0.87749,-0.8775 z"
           inkscape:connector-curvature="0"
           style="opacity:1;fill:#000000;fill-opacity:1;fill-rule:evenodd;stroke:#000000;stroke-width:0.10000006;stroke-miterlimit:4;stroke-dasharray:none;stroke-opacity:1" />
      </g>
      <g
         style="stroke:none"
         transform="translate(-81.218646,-116.39043)"
         id="g6725">
        <path
           id="path6381"
           d="m 178.59052,155.22312 -0.001,0.0295 -0.004,0.0292 -0.007,0.0284 -0.01,0.0277 -0.0126,0.0267 -0.0151,0.0252 -0.0175,0.0236 -0.0198,0.0218 -0.0218,0.0198 -0.0236,0.0175 -0.0252,0.0151 -0.0267,0.0126 -0.0277,0.01 -0.0284,0.007 -0.0292,0.004 -0.0293,0.001 -0.0295,-0.001 -0.0292,-0.004 -0.0284,-0.007 -0.0277,-0.01 -0.0267,-0.0126 -0.0252,-0.0151 -0.0236,-0.0175 -0.0218,-0.0198 -0.0197,-0.0218 -0.0175,-0.0236 -0.0151,-0.0252 -0.0126,-0.0267 -0.01,-0.0277 -0.007,-0.0284 -0.004,-0.0292 -0.001,-0.0293 0.001,-0.0295 0.004,-0.0292 0.007,-0.0284 0.01,-0.0277 0.0126,-0.0267 0.0151,-0.0252 0.0175,-0.0236 0.0197,-0.0218 0.0218,-0.0198 0.0236,-0.0175 0.0252,-0.0151 0.0267,-0.0126 0.0277,-0.01 0.0284,-0.007 0.0292,-0.004 0.0293,-0.001 0.0295,0.001 0.0292,0.004 0.0284,0.007 0.0277,0.01 0.0267,0.0126 0.0252,0.0151 0.0236,0.0175 0.0218,0.0198 0.0198,0.0218 0.0175,0.0236 0.0151,0.0252 0.0126,0.0267 0.01,0.0277 0.007,0.0284 0.004,0.0292 z"
           inkscape:connector-curvature="0"
           style="opacity:1;fill:#fffeff;fill-opacity:1;fill-rule:evenodd;stroke:none;stroke-width:0.10000006;stroke-miterlimit:4;stroke-dasharray:none;stroke-opacity:1" />
        <path
           id="path6383"
           d="m 168.43052,155.22312 -0.001,0.0295 -0.004,0.0292 -0.007,0.0284 -0.01,0.0277 -0.0126,0.0267 -0.0151,0.0252 -0.0175,0.0236 -0.0198,0.0218 -0.0218,0.0198 -0.0236,0.0175 -0.0252,0.0151 -0.0267,0.0126 -0.0277,0.01 -0.0284,0.007 -0.0292,0.004 -0.0293,0.001 -0.0295,-0.001 -0.0292,-0.004 -0.0284,-0.007 -0.0277,-0.01 -0.0267,-0.0126 -0.0252,-0.0151 -0.0236,-0.0175 -0.0218,-0.0198 -0.0197,-0.0218 -0.0175,-0.0236 -0.0151,-0.0252 -0.0126,-0.0267 -0.01,-0.0277 -0.007,-0.0284 -0.004,-0.0292 -0.001,-0.0293 0.001,-0.0295 0.004,-0.0292 0.007,-0.0284 0.01,-0.0277 0.0126,-0.0267 0.0151,-0.0252 0.0175,-0.0236 0.0197,-0.0218 0.0218,-0.0198 0.0236,-0.0175 0.0252,-0.0151 0.0267,-0.0126 0.0277,-0.01 0.0284,-0.007 0.0292,-0.004 0.0293,-0.001 0.0295,0.001 0.0292,0.004 0.0284,0.007 0.0277,0.01 0.0267,0.0126 0.0252,0.0151 0.0236,0.0175 0.0218,0.0198 0.0197,0.0218 0.0175,0.0236 0.0151,0.0252 0.0126,0.0267 0.01,0.0277 0.007,0.0284 0.004,0.0292 z"
           inkscape:connector-curvature="0"
           style="opacity:1;fill:#fffeff;fill-opacity:1;fill-rule:evenodd;stroke:none;stroke-width:0.10000006;stroke-miterlimit:4;stroke-dasharray:none;stroke-opacity:1" />
        <path
           id="path6385"
           d="m 149.48085,155.22312 -0.002,0.0391 -0.006,0.0389 -0.01,0.0381 -0.0132,0.0371 -0.0168,0.0356 -0.0202,0.0338 -0.0234,0.0315 -0.0264,0.0292 -0.0292,0.0264 -0.0315,0.0234 -0.0338,0.0202 -0.0356,0.0168 -0.0371,0.0132 -0.0381,0.01 -0.0389,0.006 -0.0387,0.002 -0.0391,-0.002 -0.0389,-0.006 -0.0381,-0.01 -0.0371,-0.0132 -0.0356,-0.0168 -0.0338,-0.0202 -0.0315,-0.0234 -0.0292,-0.0264 -0.0264,-0.0292 -0.0234,-0.0315 -0.0202,-0.0338 -0.0168,-0.0356 -0.0132,-0.0371 -0.01,-0.0381 -0.006,-0.0389 -0.002,-0.0387 0.002,-0.0391 0.006,-0.0389 0.01,-0.0381 0.0132,-0.0371 0.0168,-0.0356 0.0202,-0.0338 0.0234,-0.0315 0.0264,-0.0292 0.0292,-0.0264 0.0315,-0.0234 0.0338,-0.0202 0.0356,-0.0168 0.0371,-0.0132 0.0381,-0.01 0.0389,-0.006 0.0391,-0.002 0.0391,0.002 0.0389,0.006 0.0381,0.01 0.0371,0.0132 0.0356,0.0168 0.0338,0.0202 0.0315,0.0234 0.0292,0.0264 0.0264,0.0292 0.0234,0.0315 0.0202,0.0338 0.0168,0.0356 0.0132,0.0371 0.01,0.0381 0.006,0.0389 z"
           inkscape:connector-curvature="0"
           style="opacity:1;fill:#fffeff;fill-opacity:1;fill-rule:evenodd;stroke:none;stroke-width:0.10000006;stroke-miterlimit:4;stroke-dasharray:none;stroke-opacity:1" />
        <path
           id="path6387"
           d="m 116.46085,152.68312 -0.002,0.0391 -0.006,0.0389 -0.01,0.0381 -0.0132,0.0371 -0.0168,0.0356 -0.0202,0.0338 -0.0234,0.0315 -0.0264,0.0292 -0.0292,0.0264 -0.0315,0.0234 -0.0338,0.0202 -0.0356,0.0168 -0.0371,0.0132 -0.0381,0.01 -0.0389,0.006 -0.0387,0.002 -0.0391,-0.002 -0.0389,-0.006 -0.0381,-0.01 -0.0371,-0.0132 -0.0356,-0.0168 -0.0338,-0.0202 -0.0315,-0.0234 -0.0292,-0.0264 -0.0264,-0.0292 -0.0234,-0.0315 -0.0202,-0.0338 -0.0168,-0.0356 -0.0132,-0.0371 -0.01,-0.0381 -0.006,-0.0389 -0.002,-0.0387 0.002,-0.0391 0.006,-0.0389 0.01,-0.0381 0.0132,-0.0371 0.0168,-0.0356 0.0202,-0.0338 0.0234,-0.0315 0.0264,-0.0292 0.0292,-0.0264 0.0315,-0.0234 0.0338,-0.0202 0.0356,-0.0168 0.0371,-0.0132 0.0381,-0.01 0.0389,-0.006 0.0391,-0.002 0.0391,0.002 0.0389,0.006 0.0381,0.01 0.0371,0.0132 0.0356,0.0168 0.0338,0.0202 0.0315,0.0234 0.0292,0.0264 0.0264,0.0292 0.0234,0.0315 0.0202,0.0338 0.0168,0.0356 0.0132,0.0371 0.01,0.0381 0.006,0.0389 z"
           inkscape:connector-curvature="0"
           style="opacity:1;fill:#fffeff;fill-opacity:1;fill-rule:evenodd;stroke:none;stroke-width:0.10000006;stroke-miterlimit:4;stroke-dasharray:none;stroke-opacity:1" />
        <path
           id="path6389"
           d="m 178.59052,151.41312 -0.001,0.0295 -0.004,0.0292 -0.007,0.0284 -0.01,0.0277 -0.0126,0.0267 -0.0151,0.0252 -0.0175,0.0236 -0.0198,0.0218 -0.0218,0.0198 -0.0236,0.0175 -0.0252,0.0151 -0.0267,0.0126 -0.0277,0.01 -0.0284,0.007 -0.0292,0.004 -0.0293,0.001 -0.0295,-0.001 -0.0292,-0.004 -0.0284,-0.007 -0.0277,-0.01 -0.0267,-0.0126 -0.0252,-0.0151 -0.0236,-0.0175 -0.0218,-0.0197 -0.0197,-0.0218 -0.0175,-0.0236 -0.0151,-0.0252 -0.0126,-0.0267 -0.01,-0.0277 -0.007,-0.0285 -0.004,-0.0292 -0.001,-0.0293 0.001,-0.0295 0.004,-0.0292 0.007,-0.0284 0.01,-0.0277 0.0126,-0.0267 0.0151,-0.0252 0.0175,-0.0236 0.0197,-0.0218 0.0218,-0.0198 0.0236,-0.0175 0.0252,-0.0151 0.0267,-0.0126 0.0277,-0.01 0.0284,-0.007 0.0292,-0.004 0.0293,-0.001 0.0295,0.001 0.0292,0.004 0.0284,0.007 0.0277,0.01 0.0267,0.0126 0.0252,0.0151 0.0236,0.0175 0.0218,0.0198 0.0198,0.0218 0.0175,0.0236 0.0151,0.0252 0.0126,0.0267 0.01,0.0277 0.007,0.0284 0.004,0.0292 z"
           inkscape:connector-curvature="0"
           style="opacity:1;fill:#fffeff;fill-opacity:1;fill-rule:evenodd;stroke:none;stroke-width:0.10000006;stroke-miterlimit:4;stroke-dasharray:none;stroke-opacity:1" />
        <path
           id="path6391"
           d="m 121.54085,152.68312 -0.002,0.0391 -0.006,0.0389 -0.01,0.0381 -0.0132,0.0371 -0.0168,0.0356 -0.0202,0.0338 -0.0234,0.0315 -0.0264,0.0292 -0.0292,0.0264 -0.0315,0.0234 -0.0338,0.0202 -0.0356,0.0168 -0.0371,0.0132 -0.0381,0.01 -0.0389,0.006 -0.0387,0.002 -0.0391,-0.002 -0.0389,-0.006 -0.0381,-0.01 -0.0371,-0.0132 -0.0356,-0.0168 -0.0338,-0.0202 -0.0315,-0.0234 -0.0292,-0.0264 -0.0264,-0.0292 -0.0234,-0.0315 -0.0202,-0.0338 -0.0168,-0.0356 -0.0132,-0.0371 -0.01,-0.0381 -0.006,-0.0389 -0.002,-0.0387 0.002,-0.0391 0.006,-0.0389 0.01,-0.0381 0.0132,-0.0371 0.0168,-0.0356 0.0202,-0.0338 0.0234,-0.0315 0.0264,-0.0292 0.0292,-0.0264 0.0315,-0.0234 0.0338,-0.0202 0.0356,-0.0168 0.0371,-0.0132 0.0381,-0.01 0.0389,-0.006 0.0391,-0.002 0.0391,0.002 0.0389,0.006 0.0381,0.01 0.0371,0.0132 0.0356,0.0168 0.0338,0.0202 0.0315,0.0234 0.0292,0.0264 0.0264,0.0292 0.0234,0.0315 0.0202,0.0338 0.0168,0.0356 0.0132,0.0371 0.01,0.0381 0.006,0.0389 z"
           inkscape:connector-curvature="0"
           style="opacity:1;fill:#fffeff;fill-opacity:1;fill-rule:evenodd;stroke:none;stroke-width:0.10000006;stroke-miterlimit:4;stroke-dasharray:none;stroke-opacity:1" />
        <path
           id="path6393"
           d="m 131.65132,148.87312 -0.002,0.0343 -0.005,0.034 -0.008,0.0333 -0.0116,0.0325 -0.0147,0.031 -0.0177,0.0295 -0.0205,0.0277 -0.0231,0.0254 -0.0254,0.0231 -0.0277,0.0205 -0.0295,0.0177 -0.031,0.0147 -0.0325,0.0116 -0.0333,0.008 -0.034,0.005 -0.0345,0.002 -0.0343,-0.002 -0.034,-0.005 -0.0333,-0.008 -0.0325,-0.0116 -0.031,-0.0147 -0.0295,-0.0177 -0.0277,-0.0205 -0.0254,-0.0231 -0.0231,-0.0254 -0.0205,-0.0277 -0.0177,-0.0295 -0.0147,-0.031 -0.0116,-0.0325 -0.008,-0.0333 -0.005,-0.034 -0.002,-0.0345 0.002,-0.0343 0.005,-0.034 0.008,-0.0333 0.0116,-0.0325 0.0147,-0.031 0.0177,-0.0295 0.0205,-0.0277 0.0231,-0.0254 0.0254,-0.0231 0.0277,-0.0205 0.0295,-0.0177 0.031,-0.0147 0.0325,-0.0116 0.0333,-0.008 0.034,-0.005 0.0343,-0.002 0.0343,0.002 0.034,0.005 0.0333,0.008 0.0325,0.0116 0.031,0.0147 0.0295,0.0177 0.0277,0.0205 0.0254,0.0231 0.0231,0.0254 0.0205,0.0277 0.0177,0.0295 0.0147,0.031 0.0116,0.0325 0.008,0.0333 0.005,0.034 z"
           inkscape:connector-curvature="0"
           style="opacity:1;fill:#fffeff;fill-opacity:1;fill-rule:evenodd;stroke:none;stroke-width:0.10000006;stroke-miterlimit:4;stroke-dasharray:none;stroke-opacity:1" />
        <path
           id="path6395"
           d="m 163.35052,147.60312 -10e-4,0.0295 -0.004,0.0292 -0.007,0.0284 -0.01,0.0277 -0.0126,0.0267 -0.0151,0.0252 -0.0175,0.0236 -0.0197,0.0218 -0.0218,0.0198 -0.0236,0.0175 -0.0252,0.0151 -0.0267,0.0126 -0.0277,0.01 -0.0284,0.007 -0.0292,0.004 -0.0293,0.001 -0.0295,-0.001 -0.0292,-0.004 -0.0284,-0.007 -0.0277,-0.01 -0.0267,-0.0126 -0.0252,-0.0151 -0.0236,-0.0175 -0.0218,-0.0198 -0.0198,-0.0218 -0.0175,-0.0236 -0.0151,-0.0252 -0.0126,-0.0267 -0.01,-0.0277 -0.007,-0.0285 -0.004,-0.0292 -0.001,-0.0293 0.001,-0.0295 0.004,-0.0292 0.007,-0.0284 0.01,-0.0277 0.0126,-0.0267 0.0151,-0.0252 0.0175,-0.0236 0.0197,-0.0218 0.0218,-0.0198 0.0236,-0.0175 0.0252,-0.0151 0.0267,-0.0126 0.0277,-0.01 0.0285,-0.007 0.0292,-0.004 0.0293,-10e-4 0.0295,10e-4 0.0292,0.004 0.0284,0.007 0.0277,0.01 0.0267,0.0126 0.0252,0.0151 0.0236,0.0175 0.0218,0.0198 0.0198,0.0218 0.0175,0.0236 0.0151,0.0252 0.0126,0.0267 0.01,0.0277 0.007,0.0284 0.004,0.0292 z"
           inkscape:connector-curvature="0"
           style="opacity:1;fill:#fffeff;fill-opacity:1;fill-rule:evenodd;stroke:none;stroke-width:0.10000006;stroke-miterlimit:4;stroke-dasharray:none;stroke-opacity:1" />
        <path
           id="path6397"
           d="m 173.51052,147.60312 -0.001,0.0295 -0.004,0.0292 -0.007,0.0284 -0.01,0.0277 -0.0126,0.0267 -0.0151,0.0252 -0.0175,0.0236 -0.0197,0.0218 -0.0218,0.0198 -0.0236,0.0175 -0.0252,0.0151 -0.0267,0.0126 -0.0277,0.01 -0.0285,0.007 -0.0292,0.004 -0.0293,0.001 -0.0295,-0.001 -0.0292,-0.004 -0.0284,-0.007 -0.0277,-0.01 -0.0267,-0.0126 -0.0252,-0.0151 -0.0236,-0.0175 -0.0218,-0.0198 -0.0198,-0.0218 -0.0175,-0.0236 -0.0151,-0.0252 -0.0126,-0.0267 -0.01,-0.0277 -0.007,-0.0285 -0.004,-0.0292 -0.001,-0.0293 0.001,-0.0295 0.004,-0.0292 0.007,-0.0284 0.01,-0.0277 0.0126,-0.0267 0.0151,-0.0252 0.0175,-0.0236 0.0198,-0.0218 0.0218,-0.0198 0.0236,-0.0175 0.0252,-0.0151 0.0267,-0.0126 0.0277,-0.01 0.0284,-0.007 0.0292,-0.004 0.0293,-10e-4 0.0295,10e-4 0.0292,0.004 0.0285,0.007 0.0277,0.01 0.0267,0.0126 0.0252,0.0151 0.0236,0.0175 0.0218,0.0198 0.0197,0.0218 0.0175,0.0236 0.0151,0.0252 0.0126,0.0267 0.01,0.0277 0.007,0.0284 0.004,0.0292 z"
           inkscape:connector-curvature="0"
           style="opacity:1;fill:#fffeff;fill-opacity:1;fill-rule:evenodd;stroke:none;stroke-width:0.10000006;stroke-miterlimit:4;stroke-dasharray:none;stroke-opacity:1" />
        <path
           id="path6399"
           d="m 157.05132,145.03772 -0.002,0.0343 -0.005,0.034 -0.008,0.0333 -0.0116,0.0325 -0.0147,0.031 -0.0177,0.0295 -0.0205,0.0277 -0.0231,0.0254 -0.0254,0.0231 -0.0277,0.0205 -0.0295,0.0177 -0.031,0.0147 -0.0325,0.0116 -0.0333,0.008 -0.034,0.005 -0.0345,0.002 -0.0343,-0.002 -0.034,-0.005 -0.0333,-0.008 -0.0325,-0.0116 -0.031,-0.0147 -0.0295,-0.0177 -0.0277,-0.0205 -0.0254,-0.0231 -0.0231,-0.0254 -0.0205,-0.0277 -0.0177,-0.0295 -0.0147,-0.031 -0.0116,-0.0325 -0.008,-0.0333 -0.005,-0.034 -0.002,-0.0343 0.002,-0.0343 0.005,-0.034 0.008,-0.0333 0.0116,-0.0325 0.0147,-0.031 0.0177,-0.0295 0.0205,-0.0277 0.0231,-0.0254 0.0254,-0.0231 0.0277,-0.0205 0.0295,-0.0177 0.031,-0.0147 0.0325,-0.0116 0.0333,-0.008 0.034,-0.005 0.0343,-0.002 0.0343,0.002 0.034,0.005 0.0333,0.008 0.0325,0.0116 0.031,0.0147 0.0295,0.0177 0.0277,0.0205 0.0254,0.0231 0.0231,0.0254 0.0205,0.0277 0.0177,0.0295 0.0147,0.031 0.0116,0.0325 0.008,0.0333 0.005,0.034 z"
           inkscape:connector-curvature="0"
           style="opacity:1;fill:#fffeff;fill-opacity:1;fill-rule:evenodd;stroke:none;stroke-width:0.10000006;stroke-miterlimit:4;stroke-dasharray:none;stroke-opacity:1" />
        <path
           id="path6401"
           d="m 155.73052,151.41312 -0.001,0.0295 -0.004,0.0292 -0.007,0.0284 -0.01,0.0277 -0.0126,0.0267 -0.0151,0.0252 -0.0175,0.0236 -0.0197,0.0218 -0.0218,0.0198 -0.0236,0.0175 -0.0252,0.0151 -0.0267,0.0126 -0.0277,0.01 -0.0284,0.007 -0.0292,0.004 -0.0293,0.001 -0.0295,-0.001 -0.0292,-0.004 -0.0284,-0.007 -0.0277,-0.01 -0.0267,-0.0126 -0.0252,-0.0151 -0.0236,-0.0175 -0.0218,-0.0197 -0.0198,-0.0218 -0.0175,-0.0236 -0.0151,-0.0252 -0.0126,-0.0267 -0.01,-0.0277 -0.007,-0.0285 -0.004,-0.0292 -0.001,-0.0293 0.001,-0.0295 0.004,-0.0292 0.007,-0.0284 0.01,-0.0277 0.0126,-0.0267 0.0151,-0.0252 0.0175,-0.0236 0.0198,-0.0218 0.0218,-0.0198 0.0236,-0.0175 0.0252,-0.0151 0.0267,-0.0126 0.0277,-0.01 0.0284,-0.007 0.0292,-0.004 0.0293,-0.001 0.0295,0.001 0.0292,0.004 0.0284,0.007 0.0277,0.01 0.0267,0.0126 0.0252,0.0151 0.0236,0.0175 0.0218,0.0198 0.0197,0.0218 0.0175,0.0236 0.0151,0.0252 0.0126,0.0267 0.01,0.0277 0.007,0.0284 0.004,0.0292 z"
           inkscape:connector-curvature="0"
           style="opacity:1;fill:#fffeff;fill-opacity:1;fill-rule:evenodd;stroke:none;stroke-width:0.10000006;stroke-miterlimit:4;stroke-dasharray:none;stroke-opacity:1" />
        <path
           id="path6403"
           d="m 168.43052,151.41312 -0.001,0.0295 -0.004,0.0292 -0.007,0.0284 -0.01,0.0277 -0.0126,0.0267 -0.0151,0.0252 -0.0175,0.0236 -0.0198,0.0218 -0.0218,0.0198 -0.0236,0.0175 -0.0252,0.0151 -0.0267,0.0126 -0.0277,0.01 -0.0284,0.007 -0.0292,0.004 -0.0293,0.001 -0.0295,-0.001 -0.0292,-0.004 -0.0284,-0.007 -0.0277,-0.01 -0.0267,-0.0126 -0.0252,-0.0151 -0.0236,-0.0175 -0.0218,-0.0197 -0.0197,-0.0218 -0.0175,-0.0236 -0.0151,-0.0252 -0.0126,-0.0267 -0.01,-0.0277 -0.007,-0.0285 -0.004,-0.0292 -0.001,-0.0293 0.001,-0.0295 0.004,-0.0292 0.007,-0.0284 0.01,-0.0277 0.0126,-0.0267 0.0151,-0.0252 0.0175,-0.0236 0.0197,-0.0218 0.0218,-0.0198 0.0236,-0.0175 0.0252,-0.0151 0.0267,-0.0126 0.0277,-0.01 0.0284,-0.007 0.0292,-0.004 0.0293,-0.001 0.0295,0.001 0.0292,0.004 0.0284,0.007 0.0277,0.01 0.0267,0.0126 0.0252,0.0151 0.0236,0.0175 0.0218,0.0198 0.0197,0.0218 0.0175,0.0236 0.0151,0.0252 0.0126,0.0267 0.01,0.0277 0.007,0.0284 0.004,0.0292 z"
           inkscape:connector-curvature="0"
           style="opacity:1;fill:#fffeff;fill-opacity:1;fill-rule:evenodd;stroke:none;stroke-width:0.10000006;stroke-miterlimit:4;stroke-dasharray:none;stroke-opacity:1" />
        <path
           id="path6405"
           d="m 165.89052,151.41312 -0.001,0.0295 -0.004,0.0292 -0.007,0.0284 -0.01,0.0277 -0.0126,0.0267 -0.0151,0.0252 -0.0175,0.0236 -0.0197,0.0218 -0.0218,0.0198 -0.0236,0.0175 -0.0252,0.0151 -0.0267,0.0126 -0.0277,0.01 -0.0284,0.007 -0.0292,0.004 -0.0293,0.001 -0.0295,-0.001 -0.0292,-0.004 -0.0284,-0.007 -0.0277,-0.01 -0.0267,-0.0126 -0.0252,-0.0151 -0.0236,-0.0175 -0.0218,-0.0197 -0.0198,-0.0218 -0.0175,-0.0236 -0.0151,-0.0252 -0.0126,-0.0267 -0.01,-0.0277 -0.007,-0.0285 -0.004,-0.0292 -0.001,-0.0293 0.001,-0.0295 0.004,-0.0292 0.007,-0.0284 0.01,-0.0277 0.0126,-0.0267 0.0151,-0.0252 0.0175,-0.0236 0.0198,-0.0218 0.0218,-0.0198 0.0236,-0.0175 0.0252,-0.0151 0.0267,-0.0126 0.0277,-0.01 0.0284,-0.007 0.0292,-0.004 0.0293,-0.001 0.0295,0.001 0.0292,0.004 0.0285,0.007 0.0277,0.01 0.0267,0.0126 0.0252,0.0151 0.0236,0.0175 0.0218,0.0198 0.0197,0.0218 0.0175,0.0236 0.0151,0.0252 0.0126,0.0267 0.01,0.0277 0.007,0.0284 0.004,0.0292 z"
           inkscape:connector-curvature="0"
           style="opacity:1;fill:#fffeff;fill-opacity:1;fill-rule:evenodd;stroke:none;stroke-width:0.10000006;stroke-miterlimit:4;stroke-dasharray:none;stroke-opacity:1" />
        <path
           id="path6407"
           d="m 98.680851,136.30012 -0.0019,0.0391 -0.0058,0.0389 -0.0095,0.0381 -0.01323,0.0371 -0.01679,0.0356 -0.02018,0.0338 -0.02339,0.0315 -0.02636,0.0292 -0.02908,0.0264 -0.03152,0.0234 -0.03368,0.0202 -0.03548,0.0168 -0.03696,0.0132 -0.03807,0.009 -0.03884,0.006 -0.03924,0.001 -0.03922,-0.002 -0.03884,-0.006 -0.03807,-0.01 -0.03696,-0.0132 -0.03548,-0.0168 -0.03368,-0.0202 -0.03152,-0.0234 -0.02908,-0.0264 -0.02636,-0.0292 -0.02339,-0.0315 -0.02018,-0.0338 -0.01678,-0.0356 -0.01323,-0.0371 -0.0095,-0.0381 -0.0058,-0.0389 -0.0019,-0.0391 0.0019,-0.0391 0.0058,-0.0389 0.0095,-0.0381 0.01323,-0.0371 0.01678,-0.0356 0.02018,-0.0338 0.02339,-0.0315 0.02636,-0.0292 0.02908,-0.0264 0.03152,-0.0234 0.03368,-0.0202 0.03548,-0.0168 0.03696,-0.0132 0.03807,-0.01 0.03884,-0.006 0.03922,-0.002 0.03922,0.002 0.03884,0.006 0.03807,0.01 0.03696,0.0132 0.03548,0.0168 0.03368,0.0202 0.03152,0.0234 0.02908,0.0264 0.02636,0.0292 0.02339,0.0315 0.02018,0.0338 0.01678,0.0356 0.01323,0.0371 0.0095,0.0381 0.0058,0.0389 z"
           inkscape:connector-curvature="0"
           style="opacity:1;fill:#fffeff;fill-opacity:1;fill-rule:evenodd;stroke:none;stroke-width:0.10000006;stroke-miterlimit:4;stroke-dasharray:none;stroke-opacity:1" />
        <path
           id="path6409"
           d="m 173.51052,134.90312 -0.001,0.0295 -0.004,0.0292 -0.007,0.0284 -0.01,0.0277 -0.0126,0.0267 -0.0151,0.0252 -0.0175,0.0236 -0.0197,0.0218 -0.0218,0.0197 -0.0236,0.0175 -0.0252,0.0151 -0.0267,0.0126 -0.0277,0.01 -0.0285,0.007 -0.0292,0.004 -0.0293,0.001 -0.0295,-0.001 -0.0292,-0.004 -0.0284,-0.007 -0.0277,-0.01 -0.0267,-0.0126 -0.0252,-0.0151 -0.0236,-0.0175 -0.0218,-0.0198 -0.0198,-0.0218 -0.0175,-0.0236 -0.0151,-0.0252 -0.0126,-0.0267 -0.01,-0.0277 -0.007,-0.0284 -0.004,-0.0292 -0.001,-0.0293 0.001,-0.0295 0.004,-0.0292 0.007,-0.0284 0.01,-0.0277 0.0126,-0.0267 0.0151,-0.0252 0.0175,-0.0236 0.0198,-0.0218 0.0218,-0.0197 0.0236,-0.0175 0.0252,-0.0151 0.0267,-0.0126 0.0277,-0.01 0.0284,-0.007 0.0292,-0.004 0.0293,-0.001 0.0295,0.001 0.0292,0.004 0.0285,0.007 0.0277,0.01 0.0267,0.0126 0.0252,0.0151 0.0236,0.0175 0.0218,0.0198 0.0197,0.0218 0.0175,0.0236 0.0151,0.0252 0.0126,0.0267 0.01,0.0277 0.007,0.0284 0.004,0.0292 z"
           inkscape:connector-curvature="0"
           style="opacity:1;fill:#fffeff;fill-opacity:1;fill-rule:evenodd;stroke:none;stroke-width:0.10000006;stroke-miterlimit:4;stroke-dasharray:none;stroke-opacity:1" />
        <path
           id="path6411"
           d="m 163.45085,128.55312 -0.002,0.0391 -0.006,0.0389 -0.01,0.0381 -0.0132,0.0371 -0.0168,0.0356 -0.0202,0.0338 -0.0234,0.0315 -0.0264,0.0292 -0.0292,0.0264 -0.0315,0.0234 -0.0338,0.0202 -0.0356,0.0168 -0.0371,0.0132 -0.0381,0.01 -0.0389,0.006 -0.0387,0.001 -0.0391,-0.002 -0.0389,-0.006 -0.0381,-0.009 -0.0371,-0.0132 -0.0356,-0.0168 -0.0338,-0.0202 -0.0315,-0.0234 -0.0292,-0.0264 -0.0264,-0.0292 -0.0234,-0.0315 -0.0202,-0.0338 -0.0168,-0.0356 -0.0132,-0.0371 -0.01,-0.0381 -0.006,-0.0389 -0.002,-0.0391 0.002,-0.0391 0.006,-0.0389 0.01,-0.0381 0.0132,-0.0371 0.0168,-0.0356 0.0202,-0.0338 0.0234,-0.0315 0.0264,-0.0292 0.0292,-0.0264 0.0315,-0.0234 0.0338,-0.0202 0.0356,-0.0168 0.0371,-0.0132 0.0381,-0.01 0.0389,-0.006 0.0391,-0.002 0.0391,0.002 0.0389,0.006 0.0381,0.01 0.0371,0.0132 0.0356,0.0168 0.0338,0.0202 0.0315,0.0234 0.0292,0.0264 0.0264,0.0292 0.0234,0.0315 0.0202,0.0338 0.0168,0.0356 0.0132,0.0371 0.01,0.0381 0.006,0.0389 z"
           inkscape:connector-curvature="0"
           style="opacity:1;fill:#fffeff;fill-opacity:1;fill-rule:evenodd;stroke:none;stroke-width:0.10000006;stroke-miterlimit:4;stroke-dasharray:none;stroke-opacity:1" />
        <path
           id="path6413"
           d="m 163.35052,134.90312 -10e-4,0.0295 -0.004,0.0292 -0.007,0.0284 -0.01,0.0277 -0.0126,0.0267 -0.0151,0.0252 -0.0175,0.0236 -0.0197,0.0218 -0.0218,0.0197 -0.0236,0.0175 -0.0252,0.0151 -0.0267,0.0126 -0.0277,0.01 -0.0284,0.007 -0.0292,0.004 -0.0293,0.001 -0.0295,-0.001 -0.0292,-0.004 -0.0284,-0.007 -0.0277,-0.01 -0.0267,-0.0126 -0.0252,-0.0151 -0.0236,-0.0175 -0.0218,-0.0198 -0.0198,-0.0218 -0.0175,-0.0236 -0.0151,-0.0252 -0.0126,-0.0267 -0.01,-0.0277 -0.007,-0.0284 -0.004,-0.0292 -0.001,-0.0293 0.001,-0.0295 0.004,-0.0292 0.007,-0.0284 0.01,-0.0277 0.0126,-0.0267 0.0151,-0.0252 0.0175,-0.0236 0.0197,-0.0218 0.0218,-0.0197 0.0236,-0.0175 0.0252,-0.0151 0.0267,-0.0126 0.0277,-0.01 0.0285,-0.007 0.0292,-0.004 0.0293,-0.001 0.0295,0.001 0.0292,0.004 0.0284,0.007 0.0277,0.01 0.0267,0.0126 0.0252,0.0151 0.0236,0.0175 0.0218,0.0198 0.0198,0.0218 0.0175,0.0236 0.0151,0.0252 0.0126,0.0267 0.01,0.0277 0.007,0.0284 0.004,0.0292 z"
           inkscape:connector-curvature="0"
           style="opacity:1;fill:#fffeff;fill-opacity:1;fill-rule:evenodd;stroke:none;stroke-width:0.10000006;stroke-miterlimit:4;stroke-dasharray:none;stroke-opacity:1" />
        <path
           id="path6415"
           d="m 168.53085,128.55312 -0.002,0.0391 -0.006,0.0389 -0.01,0.0381 -0.0132,0.0371 -0.0168,0.0356 -0.0202,0.0338 -0.0234,0.0315 -0.0264,0.0292 -0.0292,0.0264 -0.0315,0.0234 -0.0338,0.0202 -0.0356,0.0168 -0.0371,0.0132 -0.0381,0.01 -0.0389,0.006 -0.0387,0.001 -0.0391,-0.002 -0.0389,-0.006 -0.0381,-0.009 -0.0371,-0.0132 -0.0356,-0.0168 -0.0338,-0.0202 -0.0315,-0.0234 -0.0292,-0.0264 -0.0264,-0.0292 -0.0234,-0.0315 -0.0202,-0.0338 -0.0168,-0.0356 -0.0132,-0.0371 -0.01,-0.0381 -0.006,-0.0389 -0.002,-0.0391 0.002,-0.0391 0.006,-0.0389 0.01,-0.0381 0.0132,-0.0371 0.0168,-0.0356 0.0202,-0.0338 0.0234,-0.0315 0.0264,-0.0292 0.0292,-0.0264 0.0315,-0.0234 0.0338,-0.0202 0.0356,-0.0168 0.0371,-0.0132 0.0381,-0.01 0.0389,-0.006 0.0391,-0.002 0.0391,0.002 0.0389,0.006 0.0381,0.01 0.0371,0.0132 0.0356,0.0168 0.0338,0.0202 0.0315,0.0234 0.0292,0.0264 0.0264,0.0292 0.0234,0.0315 0.0202,0.0338 0.0168,0.0356 0.0132,0.0371 0.01,0.0381 0.006,0.0389 z"
           inkscape:connector-curvature="0"
           style="opacity:1;fill:#fffeff;fill-opacity:1;fill-rule:evenodd;stroke:none;stroke-width:0.10000006;stroke-miterlimit:4;stroke-dasharray:none;stroke-opacity:1" />
        <path
           id="path6417"
           d="m 124.08085,136.30012 -0.002,0.0391 -0.006,0.0389 -0.01,0.0381 -0.0132,0.0371 -0.0168,0.0356 -0.0202,0.0338 -0.0234,0.0315 -0.0264,0.0292 -0.0292,0.0264 -0.0315,0.0234 -0.0338,0.0202 -0.0356,0.0168 -0.0371,0.0132 -0.0381,0.009 -0.0389,0.006 -0.0387,0.001 -0.0391,-0.002 -0.0389,-0.006 -0.0381,-0.01 -0.0371,-0.0132 -0.0356,-0.0168 -0.0338,-0.0202 -0.0315,-0.0234 -0.0292,-0.0264 -0.0264,-0.0292 -0.0234,-0.0315 -0.0202,-0.0338 -0.0168,-0.0356 -0.0132,-0.0371 -0.01,-0.0381 -0.006,-0.0389 -0.002,-0.0391 0.002,-0.0391 0.006,-0.0389 0.01,-0.0381 0.0132,-0.0371 0.0168,-0.0356 0.0202,-0.0338 0.0234,-0.0315 0.0264,-0.0292 0.0292,-0.0264 0.0315,-0.0234 0.0338,-0.0202 0.0356,-0.0168 0.0371,-0.0132 0.0381,-0.01 0.0389,-0.006 0.0391,-0.002 0.0391,0.002 0.0389,0.006 0.0381,0.01 0.0371,0.0132 0.0356,0.0168 0.0338,0.0202 0.0315,0.0234 0.0292,0.0264 0.0264,0.0292 0.0234,0.0315 0.0202,0.0338 0.0168,0.0356 0.0132,0.0371 0.01,0.0381 0.006,0.0389 z"
           inkscape:connector-curvature="0"
           style="opacity:1;fill:#fffeff;fill-opacity:1;fill-rule:evenodd;stroke:none;stroke-width:0.10000006;stroke-miterlimit:4;stroke-dasharray:none;stroke-opacity:1" />
        <path
           id="path6419"
           d="m 139.32085,139.98312 -0.002,0.0391 -0.006,0.0389 -0.01,0.0381 -0.0132,0.0371 -0.0168,0.0356 -0.0202,0.0338 -0.0234,0.0315 -0.0264,0.0292 -0.0292,0.0264 -0.0315,0.0234 -0.0338,0.0202 -0.0356,0.0168 -0.0371,0.0132 -0.0381,0.01 -0.0389,0.006 -0.0387,0.001 -0.0391,-0.002 -0.0389,-0.006 -0.0381,-0.01 -0.0371,-0.0132 -0.0356,-0.0168 -0.0338,-0.0202 -0.0315,-0.0234 -0.0292,-0.0264 -0.0264,-0.0292 -0.0234,-0.0315 -0.0202,-0.0338 -0.0168,-0.0356 -0.0132,-0.0371 -0.01,-0.0381 -0.006,-0.0389 -0.002,-0.0387 0.002,-0.0391 0.006,-0.0389 0.01,-0.0381 0.0132,-0.0371 0.0168,-0.0356 0.0202,-0.0338 0.0234,-0.0315 0.0264,-0.0292 0.0292,-0.0264 0.0315,-0.0234 0.0338,-0.0202 0.0356,-0.0168 0.0371,-0.0132 0.0381,-0.009 0.0389,-0.006 0.0391,-0.002 0.0391,0.002 0.0389,0.006 0.0381,0.009 0.0371,0.0132 0.0356,0.0168 0.0338,0.0202 0.0315,0.0234 0.0292,0.0264 0.0264,0.0292 0.0234,0.0315 0.0202,0.0338 0.0168,0.0356 0.0132,0.0371 0.01,0.0381 0.006,0.0389 z"
           inkscape:connector-curvature="0"
           style="opacity:1;fill:#fffeff;fill-opacity:1;fill-rule:evenodd;stroke:none;stroke-width:0.10000006;stroke-miterlimit:4;stroke-dasharray:none;stroke-opacity:1" />
        <path
           id="path6421"
           d="m 141.86085,139.98312 -0.002,0.0391 -0.006,0.0389 -0.01,0.0381 -0.0132,0.0371 -0.0168,0.0356 -0.0202,0.0338 -0.0234,0.0315 -0.0264,0.0292 -0.0292,0.0264 -0.0315,0.0234 -0.0338,0.0202 -0.0356,0.0168 -0.0371,0.0132 -0.0381,0.01 -0.0389,0.006 -0.0387,0.001 -0.0391,-0.002 -0.0389,-0.006 -0.0381,-0.01 -0.0371,-0.0132 -0.0356,-0.0168 -0.0338,-0.0202 -0.0315,-0.0234 -0.0292,-0.0264 -0.0264,-0.0292 -0.0234,-0.0315 -0.0202,-0.0338 -0.0168,-0.0356 -0.0132,-0.0371 -0.01,-0.0381 -0.006,-0.0389 -0.002,-0.0387 0.002,-0.0391 0.006,-0.0389 0.01,-0.0381 0.0132,-0.0371 0.0168,-0.0356 0.0202,-0.0338 0.0234,-0.0315 0.0264,-0.0292 0.0292,-0.0264 0.0315,-0.0234 0.0338,-0.0202 0.0356,-0.0168 0.0371,-0.0132 0.0381,-0.009 0.0389,-0.006 0.0391,-0.002 0.0391,0.002 0.0389,0.006 0.0381,0.009 0.0371,0.0132 0.0356,0.0168 0.0338,0.0202 0.0315,0.0234 0.0292,0.0264 0.0264,0.0292 0.0234,0.0315 0.0202,0.0338 0.0168,0.0356 0.0132,0.0371 0.01,0.0381 0.006,0.0389 z"
           inkscape:connector-curvature="0"
           style="opacity:1;fill:#fffeff;fill-opacity:1;fill-rule:evenodd;stroke:none;stroke-width:0.10000006;stroke-miterlimit:4;stroke-dasharray:none;stroke-opacity:1" />
        <path
           id="path6423"
           d="m 173.51052,139.60212 -0.001,0.0295 -0.004,0.0292 -0.007,0.0285 -0.01,0.0277 -0.0126,0.0267 -0.0151,0.0252 -0.0175,0.0236 -0.0197,0.0218 -0.0218,0.0198 -0.0236,0.0175 -0.0252,0.0151 -0.0267,0.0126 -0.0277,0.01 -0.0285,0.007 -0.0292,0.004 -0.0293,0.001 -0.0295,-0.001 -0.0292,-0.004 -0.0284,-0.007 -0.0277,-0.01 -0.0267,-0.0126 -0.0252,-0.0151 -0.0236,-0.0175 -0.0218,-0.0197 -0.0198,-0.0218 -0.0175,-0.0236 -0.0151,-0.0252 -0.0126,-0.0267 -0.01,-0.0277 -0.007,-0.0285 -0.004,-0.0292 -0.001,-0.0295 0.001,-0.0295 0.004,-0.0292 0.007,-0.0285 0.01,-0.0277 0.0126,-0.0267 0.0151,-0.0252 0.0175,-0.0236 0.0198,-0.0218 0.0218,-0.0198 0.0236,-0.0175 0.0252,-0.0151 0.0267,-0.0126 0.0277,-0.01 0.0284,-0.007 0.0292,-0.004 0.0295,-0.001 0.0295,0.001 0.0292,0.004 0.0285,0.007 0.0277,0.01 0.0267,0.0126 0.0252,0.0151 0.0236,0.0175 0.0218,0.0197 0.0197,0.0218 0.0175,0.0236 0.0151,0.0252 0.0126,0.0267 0.01,0.0277 0.007,0.0285 0.004,0.0292 z"
           inkscape:connector-curvature="0"
           style="opacity:1;fill:#fffeff;fill-opacity:1;fill-rule:evenodd;stroke:none;stroke-width:0.10000006;stroke-miterlimit:4;stroke-dasharray:none;stroke-opacity:1" />
        <path
           id="path6425"
           d="m 157.05132,139.95772 -0.002,0.0343 -0.005,0.034 -0.008,0.0333 -0.0116,0.0325 -0.0147,0.031 -0.0177,0.0295 -0.0205,0.0277 -0.0231,0.0254 -0.0254,0.0231 -0.0277,0.0205 -0.0295,0.0177 -0.031,0.0147 -0.0325,0.0116 -0.0333,0.008 -0.034,0.005 -0.0345,0.002 -0.0343,-0.002 -0.034,-0.005 -0.0333,-0.008 -0.0325,-0.0116 -0.031,-0.0147 -0.0295,-0.0177 -0.0277,-0.0205 -0.0254,-0.0231 -0.0231,-0.0254 -0.0205,-0.0277 -0.0177,-0.0295 -0.0147,-0.031 -0.0116,-0.0325 -0.008,-0.0333 -0.005,-0.034 -0.002,-0.0343 0.002,-0.0343 0.005,-0.034 0.008,-0.0333 0.0116,-0.0325 0.0147,-0.031 0.0177,-0.0295 0.0205,-0.0277 0.0231,-0.0254 0.0254,-0.0231 0.0277,-0.0205 0.0295,-0.0177 0.031,-0.0147 0.0325,-0.0116 0.0333,-0.008 0.034,-0.005 0.0343,-0.002 0.0343,0.002 0.034,0.005 0.0333,0.008 0.0325,0.0116 0.031,0.0147 0.0295,0.0177 0.0277,0.0205 0.0254,0.0231 0.0231,0.0254 0.0205,0.0277 0.0177,0.0295 0.0147,0.031 0.0116,0.0325 0.008,0.0333 0.005,0.034 z"
           inkscape:connector-curvature="0"
           style="opacity:1;fill:#fffeff;fill-opacity:1;fill-rule:evenodd;stroke:none;stroke-width:0.10000006;stroke-miterlimit:4;stroke-dasharray:none;stroke-opacity:1" />
        <path
           id="path6427"
           d="m 163.35052,139.60212 -10e-4,0.0295 -0.004,0.0292 -0.007,0.0285 -0.01,0.0277 -0.0126,0.0267 -0.0151,0.0252 -0.0175,0.0236 -0.0197,0.0218 -0.0218,0.0198 -0.0236,0.0175 -0.0252,0.0151 -0.0267,0.0126 -0.0277,0.01 -0.0284,0.007 -0.0292,0.004 -0.0293,0.001 -0.0295,-0.001 -0.0292,-0.004 -0.0284,-0.007 -0.0277,-0.01 -0.0267,-0.0126 -0.0252,-0.0151 -0.0236,-0.0175 -0.0218,-0.0197 -0.0198,-0.0218 -0.0175,-0.0236 -0.0151,-0.0252 -0.0126,-0.0267 -0.01,-0.0277 -0.007,-0.0285 -0.004,-0.0292 -0.001,-0.0295 0.001,-0.0295 0.004,-0.0292 0.007,-0.0285 0.01,-0.0277 0.0126,-0.0267 0.0151,-0.0252 0.0175,-0.0236 0.0198,-0.0218 0.0218,-0.0198 0.0236,-0.0175 0.0252,-0.0151 0.0267,-0.0126 0.0277,-0.01 0.0284,-0.007 0.0292,-0.004 0.0295,-0.001 0.0295,0.001 0.0292,0.004 0.0284,0.007 0.0277,0.01 0.0267,0.0126 0.0252,0.0151 0.0236,0.0175 0.0218,0.0197 0.0198,0.0218 0.0175,0.0236 0.0151,0.0252 0.0126,0.0267 0.01,0.0277 0.007,0.0285 0.004,0.0292 z"
           inkscape:connector-curvature="0"
           style="opacity:1;fill:#fffeff;fill-opacity:1;fill-rule:evenodd;stroke:none;stroke-width:0.10000006;stroke-miterlimit:4;stroke-dasharray:none;stroke-opacity:1" />
        <path
           id="path6429"
           d="m 144.40085,139.98312 -0.002,0.0391 -0.006,0.0389 -0.01,0.0381 -0.0132,0.0371 -0.0168,0.0356 -0.0202,0.0338 -0.0234,0.0315 -0.0264,0.0292 -0.0292,0.0264 -0.0315,0.0234 -0.0338,0.0202 -0.0356,0.0168 -0.0371,0.0132 -0.0381,0.01 -0.0389,0.006 -0.0387,0.001 -0.0391,-0.002 -0.0389,-0.006 -0.0381,-0.01 -0.0371,-0.0132 -0.0356,-0.0168 -0.0338,-0.0202 -0.0315,-0.0234 -0.0292,-0.0264 -0.0264,-0.0292 -0.0234,-0.0315 -0.0202,-0.0338 -0.0168,-0.0356 -0.0132,-0.0371 -0.01,-0.0381 -0.006,-0.0389 -0.002,-0.0387 0.002,-0.0391 0.006,-0.0389 0.01,-0.0381 0.0132,-0.0371 0.0168,-0.0356 0.0202,-0.0338 0.0234,-0.0315 0.0264,-0.0292 0.0292,-0.0264 0.0315,-0.0234 0.0338,-0.0202 0.0356,-0.0168 0.0371,-0.0132 0.0381,-0.009 0.0389,-0.006 0.0391,-0.002 0.0391,0.002 0.0389,0.006 0.0381,0.009 0.0371,0.0132 0.0356,0.0168 0.0338,0.0202 0.0315,0.0234 0.0292,0.0264 0.0264,0.0292 0.0234,0.0315 0.0202,0.0338 0.0168,0.0356 0.0132,0.0371 0.01,0.0381 0.006,0.0389 z"
           inkscape:connector-curvature="0"
           style="opacity:1;fill:#fffeff;fill-opacity:1;fill-rule:evenodd;stroke:none;stroke-width:0.10000006;stroke-miterlimit:4;stroke-dasharray:none;stroke-opacity:1" />
        <path
           id="path6431"
           d="m 149.48085,139.98312 -0.002,0.0391 -0.006,0.0389 -0.01,0.0381 -0.0132,0.0371 -0.0168,0.0356 -0.0202,0.0338 -0.0234,0.0315 -0.0264,0.0292 -0.0292,0.0264 -0.0315,0.0234 -0.0338,0.0202 -0.0356,0.0168 -0.0371,0.0132 -0.0381,0.01 -0.0389,0.006 -0.0387,0.001 -0.0391,-0.002 -0.0389,-0.006 -0.0381,-0.01 -0.0371,-0.0132 -0.0356,-0.0168 -0.0338,-0.0202 -0.0315,-0.0234 -0.0292,-0.0264 -0.0264,-0.0292 -0.0234,-0.0315 -0.0202,-0.0338 -0.0168,-0.0356 -0.0132,-0.0371 -0.01,-0.0381 -0.006,-0.0389 -0.002,-0.0387 0.002,-0.0391 0.006,-0.0389 0.01,-0.0381 0.0132,-0.0371 0.0168,-0.0356 0.0202,-0.0338 0.0234,-0.0315 0.0264,-0.0292 0.0292,-0.0264 0.0315,-0.0234 0.0338,-0.0202 0.0356,-0.0168 0.0371,-0.0132 0.0381,-0.009 0.0389,-0.006 0.0391,-0.002 0.0391,0.002 0.0389,0.006 0.0381,0.009 0.0371,0.0132 0.0356,0.0168 0.0338,0.0202 0.0315,0.0234 0.0292,0.0264 0.0264,0.0292 0.0234,0.0315 0.0202,0.0338 0.0168,0.0356 0.0132,0.0371 0.01,0.0381 0.006,0.0389 z"
           inkscape:connector-curvature="0"
           style="opacity:1;fill:#fffeff;fill-opacity:1;fill-rule:evenodd;stroke:none;stroke-width:0.10000006;stroke-miterlimit:4;stroke-dasharray:none;stroke-opacity:1" />
        <path
           id="path6433"
           d="m 163.35052,143.79312 -10e-4,0.0295 -0.004,0.0292 -0.007,0.0284 -0.01,0.0277 -0.0126,0.0267 -0.0151,0.0252 -0.0175,0.0236 -0.0197,0.0218 -0.0218,0.0198 -0.0236,0.0175 -0.0252,0.0151 -0.0267,0.0126 -0.0277,0.01 -0.0284,0.007 -0.0292,0.004 -0.0293,0.001 -0.0295,-0.001 -0.0292,-0.004 -0.0284,-0.007 -0.0277,-0.01 -0.0267,-0.0126 -0.0252,-0.0151 -0.0236,-0.0175 -0.0218,-0.0198 -0.0198,-0.0218 -0.0175,-0.0236 -0.0151,-0.0252 -0.0126,-0.0267 -0.01,-0.0277 -0.007,-0.0284 -0.004,-0.0292 -0.001,-0.0293 0.001,-0.0295 0.004,-0.0292 0.007,-0.0285 0.01,-0.0277 0.0126,-0.0267 0.0151,-0.0252 0.0175,-0.0236 0.0197,-0.0218 0.0218,-0.0197 0.0236,-0.0175 0.0252,-0.0151 0.0267,-0.0126 0.0277,-0.01 0.0285,-0.007 0.0292,-0.004 0.0293,-10e-4 0.0295,10e-4 0.0292,0.004 0.0284,0.007 0.0277,0.01 0.0267,0.0126 0.0252,0.0151 0.0236,0.0175 0.0218,0.0197 0.0198,0.0218 0.0175,0.0236 0.0151,0.0252 0.0126,0.0267 0.01,0.0277 0.007,0.0285 0.004,0.0292 z"
           inkscape:connector-curvature="0"
           style="opacity:1;fill:#fffeff;fill-opacity:1;fill-rule:evenodd;stroke:none;stroke-width:0.10000006;stroke-miterlimit:4;stroke-dasharray:none;stroke-opacity:1" />
        <path
           id="path6435"
           d="m 173.51052,143.79312 -0.001,0.0295 -0.004,0.0292 -0.007,0.0284 -0.01,0.0277 -0.0126,0.0267 -0.0151,0.0252 -0.0175,0.0236 -0.0197,0.0218 -0.0218,0.0198 -0.0236,0.0175 -0.0252,0.0151 -0.0267,0.0126 -0.0277,0.01 -0.0285,0.007 -0.0292,0.004 -0.0293,0.001 -0.0295,-0.001 -0.0292,-0.004 -0.0284,-0.007 -0.0277,-0.01 -0.0267,-0.0126 -0.0252,-0.0151 -0.0236,-0.0175 -0.0218,-0.0198 -0.0198,-0.0218 -0.0175,-0.0236 -0.0151,-0.0252 -0.0126,-0.0267 -0.01,-0.0277 -0.007,-0.0284 -0.004,-0.0292 -0.001,-0.0293 0.001,-0.0295 0.004,-0.0292 0.007,-0.0285 0.01,-0.0277 0.0126,-0.0267 0.0151,-0.0252 0.0175,-0.0236 0.0198,-0.0218 0.0218,-0.0197 0.0236,-0.0175 0.0252,-0.0151 0.0267,-0.0126 0.0277,-0.01 0.0284,-0.007 0.0292,-0.004 0.0293,-10e-4 0.0295,10e-4 0.0292,0.004 0.0285,0.007 0.0277,0.01 0.0267,0.0126 0.0252,0.0151 0.0236,0.0175 0.0218,0.0197 0.0197,0.0218 0.0175,0.0236 0.0151,0.0252 0.0126,0.0267 0.01,0.0277 0.007,0.0285 0.004,0.0292 z"
           inkscape:connector-curvature="0"
           style="opacity:1;fill:#fffeff;fill-opacity:1;fill-rule:evenodd;stroke:none;stroke-width:0.10000006;stroke-miterlimit:4;stroke-dasharray:none;stroke-opacity:1" />
        <path
           id="path6437"
           d="m 131.65132,143.79312 -0.002,0.0343 -0.005,0.034 -0.008,0.0333 -0.0116,0.0325 -0.0147,0.031 -0.0177,0.0295 -0.0205,0.0277 -0.0231,0.0254 -0.0254,0.0231 -0.0277,0.0205 -0.0295,0.0177 -0.031,0.0147 -0.0325,0.0116 -0.0333,0.008 -0.034,0.005 -0.0345,0.002 -0.0343,-0.002 -0.034,-0.005 -0.0333,-0.008 -0.0325,-0.0116 -0.031,-0.0147 -0.0295,-0.0177 -0.0277,-0.0205 -0.0254,-0.0231 -0.0231,-0.0254 -0.0205,-0.0277 -0.0177,-0.0295 -0.0147,-0.031 -0.0116,-0.0325 -0.008,-0.0333 -0.005,-0.034 -0.002,-0.0345 0.002,-0.0343 0.005,-0.034 0.008,-0.0333 0.0116,-0.0325 0.0147,-0.031 0.0177,-0.0295 0.0205,-0.0277 0.0231,-0.0254 0.0254,-0.0231 0.0277,-0.0205 0.0295,-0.0177 0.031,-0.0147 0.0325,-0.0116 0.0333,-0.008 0.034,-0.005 0.0343,-0.002 0.0343,0.002 0.034,0.005 0.0333,0.008 0.0325,0.0116 0.031,0.0147 0.0295,0.0177 0.0277,0.0205 0.0254,0.0231 0.0231,0.0254 0.0205,0.0277 0.0177,0.0295 0.0147,0.031 0.0116,0.0325 0.008,0.0333 0.005,0.034 z"
           inkscape:connector-curvature="0"
           style="opacity:1;fill:#fffeff;fill-opacity:1;fill-rule:evenodd;stroke:none;stroke-width:0.10000006;stroke-miterlimit:4;stroke-dasharray:none;stroke-opacity:1" />
      </g>
    </g>
  </g>
</svg>
