<?xml version="1.0" encoding="UTF-8" standalone="no"?>
<!-- Created with Inkscape (http://www.inkscape.org/) -->

<svg
   xmlns:dc="http://purl.org/dc/elements/1.1/"
   xmlns:cc="http://creativecommons.org/ns#"
   xmlns:rdf="http://www.w3.org/1999/02/22-rdf-syntax-ns#"
   xmlns:svg="http://www.w3.org/2000/svg"
   xmlns="http://www.w3.org/2000/svg"
   xmlns:sodipodi="http://sodipodi.sourceforge.net/DTD/sodipodi-0.dtd"
   xmlns:inkscape="http://www.inkscape.org/namespaces/inkscape"
   width="210mm"
   height="297mm"
   viewBox="0 0 210 297"
   version="1.1"
   id="svg8"
   inkscape:version="0.92.5 (2060ec1f9f, 2020-04-08)"
   sodipodi:docname="navi.svg">
  <defs
     id="defs2" />
  <sodipodi:namedview
     id="base"
     pagecolor="#ffffff"
     bordercolor="#666666"
     borderopacity="1.0"
     inkscape:pageopacity="0.0"
     inkscape:pageshadow="2"
     inkscape:zoom="1.2942381"
     inkscape:cx="198.42043"
     inkscape:cy="1045.4992"
     inkscape:document-units="mm"
     inkscape:current-layer="layer1"
     showgrid="false"
     inkscape:window-width="1360"
     inkscape:window-height="706"
     inkscape:window-x="-8"
     inkscape:window-y="-8"
     inkscape:window-maximized="1" />
  <metadata
     id="metadata5">
    <rdf:RDF>
      <cc:Work
         rdf:about="">
        <dc:format>image/svg+xml</dc:format>
        <dc:type
           rdf:resource="http://purl.org/dc/dcmitype/StillImage" />
        <dc:title></dc:title>
      </cc:Work>
    </rdf:RDF>
  </metadata>
  <g
     inkscape:label="Capa 1"
     inkscape:groupmode="layer"
     id="layer1">
    <g
       id="g4546">
      <g
         id="g4535"
         transform="translate(-7.7684057,-10.63045)">
        <rect
           style="opacity:1;fill:none;fill-opacity:1;stroke:#000000;stroke-width:0.029;stroke-miterlimit:4;stroke-dasharray:none;stroke-opacity:1"
           id="rect4518"
           width="114.97063"
           height="19.970648"
           x="13.573643"
           y="15.77993" />
        <path
           style="fill:none;fill-opacity:1;stroke:#000000;stroke-width:0.04428263;stroke-miterlimit:4;stroke-dasharray:none;stroke-opacity:1"
           d="m 25.832706,35.591072 c -0.169582,-0.141686 -0.174338,-0.376914 -0.197495,-9.767924 -0.02349,-9.528601 -0.02196,-9.624765 0.156658,-9.828887 0.17714,-0.202425 0.285235,-0.206136 6.005009,-0.206136 4.270751,0 5.876785,0.03191 6.020154,0.119502 0.107542,0.06572 0.900495,0.723795 1.762115,1.462378 4.003289,3.431634 4.29386,3.663275 4.431519,3.532718 0.106842,-0.101322 0.1352,-0.576587 0.154761,-2.593758 l 0.02394,-2.469692 20.988438,-0.02579 20.98844,-0.02578 3.632878,4.143288 c 2.2379,2.552321 3.698341,4.143288 3.80335,4.143288 0.102054,0 0.899968,-0.830046 1.9882,-2.068246 l 1.817739,-2.068249 V 17.98571 c 0,-1.381877 0.03136,-1.987925 0.107438,-2.074827 0.08212,-0.09387 2.238861,-0.122756 9.16182,-0.122756 8.65808,0 9.06088,0.0082 9.20254,0.187077 0.13566,0.171303 0.14816,1.003618 0.14816,9.87177 0,9.154995 -0.009,9.684739 -0.15666,9.685528 -4.08771,0.02185 -10.8888,-0.01317 -10.94998,-0.05647 -0.0493,-0.03484 -0.0832,-1.914556 -0.0832,-4.608223 0,-4.066974 -0.0151,-4.556073 -0.14255,-4.611954 -0.10283,-0.04511 -1.24409,1.194603 -4.0955,4.448745 -2.698222,3.079312 -4.058581,4.561368 -4.285754,4.669138 -0.282108,0.133823 -0.909648,0.15788 -4.118284,0.15788 h -3.785465 l -3.669459,-4.194226 c -2.018205,-2.30682 -3.72,-4.194224 -3.781769,-4.194224 -0.08824,0 -0.112308,0.899393 -0.112308,4.196757 v 4.196748 l -0.229654,0.09978 C 80.250698,35.79594 69.551319,35.769228 69.363154,35.608313 69.240583,35.50353 69.209223,35.258907 69.189386,34.252868 l -0.0242,-1.227579 -2.988244,-0.02694 c -2.130698,-0.01926 -3.02341,0.0059 -3.110785,0.0892 -0.09053,0.0859 -0.122543,0.41932 -0.122543,1.276519 0,1.042458 -0.01758,1.171064 -0.173153,1.266203 -0.221996,0.13577 -19.88666,0.147812 -20.299733,0.01246 -0.156841,-0.05138 -1.546357,-1.172132 -3.087815,-2.490529 -1.541459,-1.318387 -2.884259,-2.44629 -2.984001,-2.506459 -0.11912,-0.07185 -0.234313,-0.07553 -0.335696,-0.01071 -0.138896,0.08882 -0.154346,0.326323 -0.154346,2.372568 0,1.892455 -0.02336,2.311994 -0.139356,2.501214 L 35.63016,35.73617 h -4.811841 c -4.014171,0 -4.840648,-0.02404 -4.985611,-0.145177 z m 7.838186,-5.897127 c 0,-2.206574 0.034,-3.557442 0.09267,-3.682732 0.147283,-0.314489 0.543702,-0.243181 1.128353,0.202966 0.288899,0.220457 2.255268,1.877687 4.36971,3.682733 l 3.844438,3.281898 h 4.548215 4.548214 l -0.02296,-7.493342 -0.02296,-7.493338 h -2.909368 -2.909367 l -0.04476,3.347075 c -0.04993,3.734089 -0.05507,3.763917 -0.648137,3.761416 -0.408096,-0.0015 -0.734084,-0.23847 -3.035966,-2.204837 -1.115403,-0.952825 -2.853238,-2.434432 -3.86186,-3.292457 l -1.833862,-1.560048 h -4.530549 -4.530549 v 7.467767 7.467764 h 2.909368 2.909369 z m 27.054525,2.129411 0.02497,-1.355449 5.348762,-0.02636 5.348761,-0.02637 v 1.38183 1.381827 h 3.580762 3.58076 v -4.887352 -4.887351 l -2.309465,-2.632011 -2.309471,-2.632007 -9.887496,0.02602 -9.887496,0.02602 -0.02296,7.493339 -0.02296,7.493338 h 3.265427 3.265427 z m 0.06227,-6.461537 c -0.02052,-0.02328 -0.02526,-0.760195 -0.01053,-1.637581 l 0.02678,-1.595248 5.299617,0.02637 5.299618,0.02636 0.02465,1.611198 0.02464,1.611195 h -5.313738 c -2.922556,0 -5.330521,-0.01906 -5.351036,-0.04234 z m 53.160173,2.266112 0.0232,-5.39743 -3.46966,0.02679 -3.46965,0.02675 -0.0233,5.268355 c -0.0128,2.897595 -0.004,5.326437 0.02,5.397439 0.034,0.101466 0.77654,0.123357 3.46976,0.1023 l 3.42651,-0.02684 z m -18.437258,5.199857 c 0.13294,-0.08052 2.261966,-2.462804 4.731138,-5.293931 3.08346,-3.535462 4.55353,-5.291666 4.69413,-5.607845 0.18089,-0.40672 0.20923,-0.647421 0.24331,-2.066553 l 0.0386,-1.606208 -0.212,-0.05923 c -0.1166,-0.03255 -1.3703,-0.04634 -2.786,-0.03053 l -2.574002,0.02868 -0.02735,1.135511 c -0.04165,1.730376 -0.01391,1.683808 -3.127566,5.232547 -2.242681,2.55602 -2.663582,2.992223 -2.887319,2.992223 -0.226018,0 -0.833492,-0.652194 -4.432369,-4.758626 l -4.170448,-4.758618 -4.359375,0.0054 c -2.397655,0.0031 -4.359373,0.01945 -4.359373,0.03658 0,0.01713 2.930629,3.375339 6.512509,7.462702 l 6.51251,7.431569 2.980952,0.0019 c 2.415705,9.98e-4 3.026789,-0.02633 3.222694,-0.145048 z M 113.96946,19.739131 c 0,-1.032613 -0.03,-1.396992 -0.12241,-1.484585 -0.0876,-0.08309 -1.07328,-0.108458 -3.46886,-0.08923 l -3.34646,0.02682 -0.0248,1.457747 -0.0248,1.457751 h 3.4937 3.49371 z"
           id="path4531"
           inkscape:connector-curvature="0" />
      </g>
    </g>
    <rect
       style="opacity:1;fill:none;fill-opacity:1;stroke:#000000;stroke-width:0.029;stroke-miterlimit:4;stroke-dasharray:none;stroke-opacity:1"
       id="rect4569"
       width="114.97063"
       height="19.970648"
       x="5.8052368"
       y="25.120131" />
  </g>
</svg>
