<?xml version="1.0" encoding="UTF-8" standalone="no"?>
<!-- Created with Inkscape (http://www.inkscape.org/) -->

<svg
   xmlns:dc="http://purl.org/dc/elements/1.1/"
   xmlns:cc="http://creativecommons.org/ns#"
   xmlns:rdf="http://www.w3.org/1999/02/22-rdf-syntax-ns#"
   xmlns:svg="http://www.w3.org/2000/svg"
   xmlns="http://www.w3.org/2000/svg"
   xmlns:sodipodi="http://sodipodi.sourceforge.net/DTD/sodipodi-0.dtd"
   xmlns:inkscape="http://www.inkscape.org/namespaces/inkscape"
   width="210mm"
   height="297mm"
   viewBox="0 0 210 297"
   version="1.1"
   id="svg8"
   inkscape:version="0.92.5 (2060ec1f9f, 2020-04-08)"
   sodipodi:docname="vectores.svg">
  <defs
     id="defs2">
    <clipPath
       clipPathUnits="userSpaceOnUse"
       id="clipPath874">
      <g
         inkscape:label="Clip"
         id="use876">
        <path
           inkscape:connector-curvature="0"
           id="path880"
           d="m 249.23456,226.57094 c -2.60751,-0.5181 -4.98508,-1.34606 -7.65506,-2.66578 -5.64541,-2.79042 -9.90923,-6.67508 -13.05057,-11.89008 -4.30689,-7.14994 -3.38672,-13.18546 2.20087,-14.43591 3.43228,-0.76812 10.1634,1.49233 16.00291,5.37409 3.00853,1.9999 7.54193,6.45747 9.36885,9.21214 0.72382,1.09141 1.43192,2.00374 1.57355,2.02741 0.14163,0.0237 2.1625,-2.30528 4.49084,-5.17543 5.15445,-6.35394 12.63621,-15.52707 14.88281,-18.24734 0.9095,-1.10125 1.65364,-2.0804 1.65364,-2.17589 0,-0.0955 -3.78023,-1.46261 -8.40052,-3.03807 -4.62028,-1.57546 -15.4252,-5.26953 -24.01093,-8.20905 -11.79071,-4.03681 -15.68608,-5.27022 -15.91965,-5.0407 -0.42163,0.41432 -11.85789,18.1691 -14.767,22.92574 -6.65298,10.87818 -8.28685,12.73794 -11.52194,13.11485 -2.86728,0.33406 -8.35166,-1.52046 -12.25784,-4.14495 -2.07711,-1.39556 -5.17333,-4.40718 -6.67955,-6.49702 -2.3076,-3.20174 -3.69435,-7.22332 -3.47154,-10.06752 0.14898,-1.90169 0.71241,-3.00203 2.11955,-4.13935 1.8857,-1.52412 5.25333,-1.21483 9.94885,0.91372 4.19844,1.9032 8.7888,5.83946 11.91594,10.21796 1.11622,1.56289 1.62462,2.08462 1.80477,1.85208 0.13795,-0.17805 6.47658,-10.32498 14.08587,-22.54873 7.60928,-12.22375 13.97859,-22.38064 14.15402,-22.57088 0.26015,-0.2821 1.6562,0.0517 7.57041,1.81012 3.98829,1.1858 12.43066,3.68424 18.76082,5.55209 6.33015,1.86785 16.50999,4.88153 22.62187,6.69705 6.11187,1.81553 12.83891,3.80194 14.94896,4.41425 2.11005,0.6123 3.92895,1.19855 4.04201,1.30276 0.11306,0.10422 -1.85587,2.6211 -4.37536,5.59309 -2.51952,2.97198 -12.72834,15.03687 -22.68627,26.81086 -12.6487,14.95547 -18.45475,21.62884 -19.26472,22.14251 -2.03867,1.29288 -4.61627,1.57532 -8.08559,0.88598 z M 95.46838,224.83807 c -9.67773,-7.22626 -19.30677,-23.90524 -21.79571,-37.75353 -2.71363,-15.09848 2.21858,-25.90254 14.67411,-32.1438 5.14971,-2.58043 10.39852,-3.73161 17.05355,-3.74022 5.17602,-0.007 7.68787,0.36038 11.90625,1.73998 8.48895,2.77627 15.7516,9.25886 19.54993,17.45012 3.3407,7.20438 2.32059,13.02213 -3.26965,18.64691 -2.07722,2.09006 -2.75288,2.58388 -5.16778,3.77701 -4.36238,2.15531 -8.00595,2.65515 -11.96805,1.64181 -7.95074,-2.03346 -12.36696,-8.5428 -9.56424,-14.09732 1.24106,-2.45957 3.28262,-4.1586 6.34011,-5.27637 1.26723,-0.46328 2.1721,-0.57554 4.74114,-0.58822 3.31436,-0.0164 3.96354,0.11013 8.15233,1.58836 1.90627,0.67273 2.16331,0.70366 3.30729,0.39791 2.09293,-0.55937 3.44592,-2.35955 3.07878,-4.09636 -0.66825,-3.16119 -4.58381,-7.6013 -8.48901,-9.62626 -3.73034,-1.93429 -8.31553,-2.91475 -12.13481,-2.59483 -11.37016,0.95244 -20.24496,6.85917 -25.2607,16.81256 -4.05841,8.05364 -4.62896,16.90504 -1.69306,26.2661 1.93946,6.18395 6.58671,13.77291 12.01012,19.61251 2.29175,2.46762 2.53456,3.14662 1.17307,3.28033 -0.62228,0.0611 -1.21381,-0.22903 -2.64367,-1.29669 z M 58.96596,172.38894 c -2.4162,-0.80195 -4.04968,-2.13365 -4.92127,-4.01208 -0.6351,-1.36874 -0.62807,-2.35206 0.0265,-3.70421 1.82357,-3.767 8.93416,-2.98944 11.36097,1.24236 1.33292,2.32432 0.92922,4.62819 -1.03925,5.93086 -1.20895,0.80005 -3.85496,1.06483 -5.42695,0.54307 z M 70.932,154.7799 c -2.87924,-0.9516 -5.21917,-3.72095 -5.21917,-6.17698 0,-2.04836 1.56627,-3.98128 3.80889,-4.70052 2.39376,-0.76771 5.99422,0.28551 7.84688,2.29541 1.34514,1.4593 1.83798,2.60482 1.83798,4.27205 0,3.54399 -4.11194,5.6858 -8.27458,4.31004 z m 5.09958,-36.65947 c -2.91668,-0.82104 -5.46395,-2.42622 -7.72397,-4.8673 -5.64889,-6.10149 -6.977,-15.204085 -3.09989,-21.246045 1.13003,-1.761 3.62429,-4.00017 5.45193,-4.89435 1.2727,-0.62268 1.869,-0.749 3.51832,-0.74533 1.68543,0.004 2.19625,0.11978 3.37611,0.7668 2.58461,1.41737 3.84653,3.88706 3.86096,7.5562 0.0178,4.5353 -2.22469,8.827405 -5.45252,10.435905 -2.20336,1.09798 -4.40143,0.87756 -6.74396,-0.67628 l -1.12448,-0.74589 v 1.02151 c 0,1.60509 0.95543,4.26046 2.0536,5.70746 3.10231,4.08776 9.37049,5.58334 13.95054,3.32859 3.10179,-1.52701 5.99635,-4.86156 8.40151,-9.67859 1.0148,-2.03242 7.07977,-16.633105 7.07977,-17.043685 0,-0.14052 -0.68461,-0.62138 -1.52136,-1.06858 -6.37811,-3.40878 -11.38388,-9.93118 -13.66608,-17.8066 -2.12343,-7.32748 -1.92354,-16.24972 0.53957,-24.08544 2.96735,-9.439771 10.15586,-18.191764 19.37002,-23.582943 5.17231,-3.026306 13.4193,-6.091131 24.28964,-9.026752 l 5.59616,-1.5112891 1.6546,-4.001937 c 4.78861,-11.5820816 10.04256,-19.7553509 17.46344,-27.1668729 7.13439,-7.125387 15.1401,-11.543709 19.92778,-10.998072 2.69509,0.30715 3.45475,1.549898 3.41578,5.588007 -0.0902,9.345808 -5.93356,22.0465723 -14.98853,32.5780699 -7.77919,9.0476811 -18.57918,15.8923751 -29.1404,18.4682631 l -1.85208,0.451723 -2.91042,6.644164 c -1.60073,3.65429 -3.22518,7.378649 -3.6099,8.276339 l -0.69948,1.63218 1.9849,1.29651 c 3.84275,2.51002 6.48879,6.06607 7.76014,10.42894 0.80571,2.76497 1.01671,8.98145 0.41379,12.1914 -1.19691,6.3724 -4.02005,11.73596 -8.62757,16.3912 -5.66347,5.7221 -11.66196,7.91234 -18.52084,6.76252 -1.38245,-0.23175 -2.76296,-0.49064 -3.0678,-0.57532 -0.48761,-0.13543 -0.68354,0.14283 -1.62909,2.31357 -8.18405,18.788535 -9.28457,20.882525 -12.76886,24.295655 -1.99341,1.95269 -3.70478,2.97598 -5.95912,3.56316 -1.84749,0.48121 -5.33397,0.49272 -7.00221,0.0231 z m 34.1772,-33.338455 c 3.5441,-0.75115 6.47923,-2.73211 9.35753,-6.31553 3.25309,-4.05003 4.62481,-7.86579 4.61484,-12.83734 -0.009,-4.56339 -1.37605,-8.20963 -4.20389,-11.21397 -0.85998,-0.91366 -1.62843,-1.59741 -1.70767,-1.51945 -0.19708,0.1939 -13.86653,30.98033 -13.97399,31.47233 -0.16344,0.74825 3.21875,0.98503 5.91318,0.41396 z m -8.56047,-1.93168 c 0.14768,-0.40018 3.36487,-7.62962 7.14932,-16.06543 3.78445,-8.4358 6.83004,-15.41998 6.76798,-15.52039 -0.0621,-0.10041 -0.94588,-0.33145 -1.96406,-0.51341 -6.27547,-1.12148 -13.18087,3.7399 -14.92582,10.50774 -0.63395,2.45878 -0.54404,5.0527 0.25792,7.44171 0.62708,1.86803 0.69757,3.46244 0.13778,3.11647 -0.5027,-0.31069 -2.40187,-4.65317 -2.95781,-6.76309 -0.69105,-2.62269 -0.81275,-6.69767 -0.26856,-8.99266 1.45122,-6.12025 7.89692,-12.73013 14.57071,-14.94183 2.6798,-0.88808 5.75921,-1.28273 8.27285,-1.06023 1.27739,0.11308 2.05754,0.0849 2.05754,-0.0744 0,-0.14108 1.42531,-3.39145 3.16735,-7.223039 1.74204,-3.831589 3.12089,-7.012982 3.06411,-7.069761 -0.18951,-0.189503 -7.41853,1.237297 -11.12836,2.196417 -16.75376,4.33143 -27.08185,13.569713 -29.7823,26.639713 -1.00219,4.85056 -0.41225,10.59754 1.58798,15.46947 1.9288,4.69795 4.66156,8.27327 8.0955,10.59146 1.97163,1.33102 4.91534,2.98175 5.32453,2.98582 0.16766,0.002 0.42567,-0.3244 0.57334,-0.72458 z M 140.7659,8.8156829 c 5.50402,-1.1368851 13.75419,-5.218006 19.35996,-9.57680803 5.55585,-4.31998357 9.14296,-9.24581487 9.48705,-13.02763787 0.1115,-1.225566 0.0344,-1.598235 -0.48853,-2.361543 -0.34151,-0.498484 -1.15671,-1.193153 -1.81155,-1.543709 -1.04124,-0.557404 -1.45771,-0.624279 -3.3193,-0.533 -1.6885,0.08279 -2.49438,0.275507 -3.8972,0.931965 -6.00433,2.809764 -15.20551,11.7690873 -18.87502,18.3788749 -1.26847,2.284849 -2.94107,6.1346159 -3.1763,7.310776 -0.19997,0.999853 -0.13203,1.01037 2.72089,0.421082 z m 137.86628,75.6739321 -0.7317,-0.86141 2.2991,-1.79527 c 7.48302,-5.84316 11.83216,-12.59558 13.06372,-20.28252 0.4449,-2.7768 0.1851,-8.87935 -0.50567,-11.87945 -1.50932,-6.55498 -4.89355,-13.68501 -9.57101,-20.164532 -2.09524,-2.902461 -2.57398,-3.490286 -2.7196,-3.339161 -0.068,0.07059 -3.071,5.605214 -6.6733,12.299173 -3.6023,6.69396 -9.33656,17.34505 -12.74278,23.6691 -3.40622,6.32405 -6.71049,12.22328 -7.34281,13.10939 -3.78586,5.30541 -9.10258,7.93625 -16.68797,8.2576 -5.22964,0.22155 -9.36357,-0.6001 -13.74796,-2.73251 -7.66108,-3.72606 -11.02892,-10.66826 -8.08072,-16.65692 1.0107,-2.05301 3.16433,-4.29751 5.41995,-5.64862 3.4405,-2.06086 8.79259,-3.45846 13.2441,-3.45846 4.2402,0 10.13278,1.41947 13.36146,3.21867 2.71394,1.51235 5.34856,3.96407 6.41011,5.96511 0.33024,0.62252 0.67717,1.13185 0.77096,1.13185 0.0938,0 1.59748,-2.64914 3.34154,-5.88698 1.74406,-3.23784 4.68971,-8.68495 6.54587,-12.10469 1.85619,-3.41974 4.88897,-9.01568 6.73952,-12.435416 1.85058,-3.41974 6.55672,-12.111302 10.45811,-19.314583 11.43801,-21.1183317 13.56704,-25.0500777 15.79287,-29.165166 l 2.10812,-3.897458 1.56541,1.063046 c 0.86098,0.584675 1.5654,1.174006 1.5654,1.309623 0,0.135618 -0.24762,0.721659 -0.55028,1.302313 -1.29862,2.491457 -1.82017,6.7781493 -1.3204,10.8523053 0.39666,3.23364457 1.24135,6.7718086 3.18664,13.3481387 2.50918,8.482626 3.30809,12.730643 3.61286,19.210114 0.26146,5.558465 -0.45056,10.748503 -2.15506,15.708573 -0.49363,1.43643 -0.9562,2.6704 -1.02796,2.74216 -0.0995,0.0995 -1.51706,-0.62715 -2.22927,-1.14283 -0.0476,-0.0345 0.16634,-0.96418 0.47551,-2.06597 2.68841,-9.580902 1.1343,-20.944219 -4.34618,-31.77839 -1.47193,-2.909772 -3.75369,-6.5751742 -5.23618,-8.4112471 l -0.59613,-0.738333 -1.25789,2.4581239 c -1.34456,2.6275511 -1.78575,4.3411122 -1.78326,6.9260062 0.003,2.190517 0.6242,6.037239 1.54525,9.555033 5.08809,19.433167 5.86078,23.270427 6.05641,30.077397 0.15762,5.48373 -0.23873,8.55685 -1.65441,12.82747 -1.77104,5.34261 -4.52316,9.75495 -8.72694,13.99144 -2.1359,2.15252 -5.1586,4.55125 -6.87916,5.45909 -0.14552,0.0768 -0.59386,-0.24803 -0.99627,-0.72181 z"
           style="fill:#000000;stroke-width:0.26458332" />
      </g>
    </clipPath>
  </defs>
  <sodipodi:namedview
     id="base"
     pagecolor="#ffffff"
     bordercolor="#666666"
     borderopacity="1.0"
     inkscape:pageopacity="0.0"
     inkscape:pageshadow="2"
     inkscape:zoom="1.0602985"
     inkscape:cx="407.08208"
     inkscape:cy="914.00158"
     inkscape:document-units="mm"
     inkscape:current-layer="layer1"
     showgrid="false"
     inkscape:window-width="1360"
     inkscape:window-height="706"
     inkscape:window-x="-8"
     inkscape:window-y="-8"
     inkscape:window-maximized="1" />
  <metadata
     id="metadata5">
    <rdf:RDF>
      <cc:Work
         rdf:about="">
        <dc:format>image/svg+xml</dc:format>
        <dc:type
           rdf:resource="http://purl.org/dc/dcmitype/StillImage" />
        <dc:title></dc:title>
      </cc:Work>
    </rdf:RDF>
  </metadata>
  <g
     inkscape:label="Capa 1"
     inkscape:groupmode="layer"
     id="layer1">
    <path
       style="fill:none;stroke:#000000;stroke-width:0.07;stroke-miterlimit:4;stroke-dasharray:none;stroke-opacity:1"
       d="m 25.47393,38.078018 c -2.081571,-0.433282 -3.719208,-1.11374 -5.415635,-2.250269 -1.104361,-0.739871 -2.85254,-2.484237 -3.581376,-3.573568 -2.916103,-4.358432 -3.298613,-9.631946 -1.02658,-14.153087 1.374509,-2.735158 3.482771,-4.877886 6.128278,-6.228461 2.045602,-1.044309 3.669965,-1.464186 6.012164,-1.554067 1.327164,-0.05093 1.758022,-0.02255 2.800796,0.184466 3.087757,0.612991 5.377203,1.824372 7.509521,3.973416 1.188391,1.197708 1.871083,2.143202 2.601673,3.603211 2.63338,5.262491 1.695765,11.523858 -2.369857,15.825862 -2.667262,2.822352 -6.395489,4.419978 -10.246153,4.390693 -0.90468,-0.0069 -1.776285,-0.0857 -2.412831,-0.218196 z m 3.457361,-4.646902 c 0.463711,-0.890813 0.64243,-1.064848 1.093531,-1.064848 0.280296,0 0.304668,-0.02608 0.202643,-0.216807 -0.160664,-0.30037 -0.14499,-0.81113 0.033,-1.075298 0.08193,-0.121603 0.308187,-0.503591 0.502788,-0.848865 l 0.353822,-0.627767 -2.759228,-1.596775 c -2.472635,-1.430931 -2.787219,-1.584024 -3.028779,-1.473909 -0.845038,0.385224 -1.939492,-0.253297 -1.939492,-1.131537 0,-0.210813 -0.152352,-0.354747 -0.723237,-0.683264 -0.397791,-0.228896 -0.743883,-0.416184 -0.769105,-0.416184 -0.02522,0 -0.277933,0.399615 -0.56158,0.888035 -0.29847,0.513942 -0.614298,0.919337 -0.74974,0.962342 -0.336617,0.106898 -0.445314,0.498743 -0.444839,1.603657 v 0.97348 l 0.514942,0.211906 c 0.603784,0.248457 0.939603,0.720398 0.940221,1.321308 0,0.226781 0.07965,0.491602 0.17649,0.58849 0.160073,0.160154 0.220665,0.15001 0.666901,-0.11163 0.284785,-0.166982 0.744859,-0.314035 1.095931,-0.350283 0.592221,-0.06115 0.611675,-0.05384 0.914837,0.343822 0.364078,0.477569 0.530367,0.501047 0.963902,0.136067 0.332569,-0.279974 1.173586,-0.51439 1.845484,-0.51439 0.511737,0 0.782021,0.288514 1.012098,1.080361 0.183593,0.631852 0.180807,0.986204 -0.02013,2.56253 -0.06395,0.501692 -0.05351,0.542824 0.09962,0.392312 0.09409,-0.09247 0.354862,-0.521209 0.579502,-0.952753 z m 7.730723,0.0084 1.229008,-0.235007 0.648988,-0.839483 c 3.012423,-3.896601 3.574585,-9.267746 1.438531,-13.744296 -0.692965,-1.45224 -1.288544,-2.324369 -2.350216,-3.441551 -3.420621,-3.599429 -8.3222,-4.985851 -13.125445,-3.712573 -1.279389,0.339153 -3.469129,1.398195 -4.477797,2.165639 -0.940794,0.715802 -2.398178,2.235539 -3.014242,3.14319 -1.401352,2.064638 -2.359736,5.12662 -2.359736,7.539231 v 0.529131 l 1.446063,0.03425 1.446064,0.03426 -0.0058,-0.448363 c -0.0048,-0.375483 0.228984,-0.856098 1.438753,-2.957092 0.794507,-1.379808 1.545376,-2.574343 1.668619,-2.654527 0.123234,-0.08018 0.368126,-0.181249 0.544213,-0.224594 0.3001,-0.07388 0.312129,-0.06383 0.19211,0.160539 -0.07042,0.131649 -0.08845,0.240133 -0.04007,0.241074 0.04838,9.83e-4 0.159374,0.04694 0.246648,0.102211 0.129064,0.08174 0.07158,0.247168 -0.30809,0.886566 -0.256724,0.43235 -0.466765,0.829689 -0.466765,0.882981 0,0.124453 1.20024,0.816669 1.41604,0.816669 0.199366,0 0.8246,0.314018 0.8246,0.414141 0,0.03967 -0.150811,0.339476 -0.335129,0.666237 -0.322474,0.571688 -0.32698,0.598464 -0.119392,0.709618 0.118648,0.06354 0.258587,0.11551 0.310964,0.11551 0.136508,0 0.509632,-0.663952 0.523748,-0.931972 0.0065,-0.124516 0.08296,-0.250062 0.169808,-0.278989 0.102553,-0.03417 0.135916,0.0047 0.0952,0.11085 -0.07437,0.193902 0.316097,0.482246 0.42165,0.311365 0.03793,-0.06139 0.118371,-0.08106 0.178774,-0.04371 0.06066,0.03751 -0.01318,0.181975 -0.164953,0.322701 -0.151125,0.140127 -0.357038,0.413935 -0.457576,0.608465 -0.167103,0.323301 -0.167417,0.359585 -0.0037,0.422448 0.09851,0.03781 0.30431,0.0117 0.457316,-0.05806 0.891237,-0.406282 1.777046,0.08334 1.93934,1.071937 0.06208,0.378117 0.154179,0.446589 2.173475,1.615648 1.159756,0.671434 2.150456,1.220791 2.201563,1.220791 0.138836,0 0.563165,-0.764918 0.563165,-1.015204 0,-0.292027 0.18224,-0.277823 0.260153,0.02028 0.05006,0.191528 0.118299,0.223967 0.349165,0.165997 0.311368,-0.07819 0.408234,0.116863 0.114116,0.229783 -0.09505,0.03649 -0.27718,0.271022 -0.404731,0.521174 -0.222402,0.436176 -0.223629,0.460882 -0.02984,0.602666 0.302833,0.221547 0.337772,0.19875 0.72005,-0.469754 l 0.353177,-0.617596 0.337154,0.197263 c 0.185437,0.108492 0.381964,0.280063 0.436725,0.381271 0.08273,0.152914 1.224566,0.880839 1.381692,0.880839 0.02644,0 0.227408,-0.315254 0.446595,-0.700558 0.611244,-1.074491 0.584724,-1.045036 0.788557,-0.875785 0.131081,0.108851 0.215327,0.114461 0.326935,0.02179 0.213195,-0.177028 0.297781,-0.04448 0.297781,0.466618 0,0.363187 -0.248027,0.874647 -1.363412,2.811562 -0.749883,1.302186 -1.438567,2.456189 -1.530417,2.564457 -0.190642,0.224711 -0.185124,0.234622 0.259151,0.465229 0.385036,0.199862 1.030834,0.15433 2.911411,-0.205255 z m -2.792772,-5.187548 c -0.243888,-0.159509 -0.521167,-0.380984 -0.616169,-0.492148 -0.095,-0.111163 -2.239719,-1.393598 -4.766039,-2.849844 -2.526321,-1.456255 -4.895793,-2.827388 -5.265496,-3.046955 -0.369702,-0.219567 -0.773018,-0.40544 -0.896252,-0.413039 -0.250391,-0.01545 -1.176336,-0.481762 -1.176336,-0.592415 0,-0.21488 0.824753,-1.501733 0.934292,-1.457769 0.389738,0.156435 13.125928,7.586824 13.155261,7.674877 0.04065,0.12198 -0.749194,1.483748 -0.854882,1.473926 -0.03901,-0.0037 -0.270481,-0.137106 -0.514379,-0.296624 z m 0.240567,-1.314525 c -0.02082,-0.06249 -0.311377,-0.276058 -0.645692,-0.474602 -0.55085,-0.327146 -0.620971,-0.343805 -0.747877,-0.177745 -0.233177,0.30512 -0.166853,0.408084 0.504141,0.782607 0.591163,0.329978 0.65583,0.344083 0.785728,0.171454 0.07786,-0.103456 0.124524,-0.239227 0.1037,-0.301714 z m -10.166358,-5.65624 c 0.08112,-0.15165 0.07423,-0.242319 -0.02407,-0.316966 -0.261238,-0.198383 -1.219658,-0.723275 -1.251624,-0.685468 -0.01763,0.02085 -0.08894,0.14743 -0.158488,0.281301 -0.115495,0.222336 -0.07561,0.273029 0.460962,0.58599 0.689346,0.402061 0.820685,0.420297 0.973217,0.135143 z m 11.209481,5.423703 c -0.338901,-0.206439 -0.6918,-0.447746 -0.784224,-0.536237 -0.09243,-0.08849 -0.899056,-0.579448 -1.792514,-1.091016 -0.89345,-0.511567 -3.353401,-1.930767 -5.466544,-3.153789 -2.113152,-1.223023 -3.892492,-2.223674 -3.954086,-2.223674 -0.0616,0 -0.434853,-0.185783 -0.829454,-0.412859 l -0.717443,-0.412851 0.246271,-0.232758 c 0.13546,-0.128019 0.389997,-0.463983 0.565655,-0.746592 0.333052,-0.535825 0.806722,-0.893527 1.06187,-0.801881 0.08189,0.02941 0.223386,-0.05293 0.314439,-0.182988 0.09105,-0.130062 0.233849,-0.236476 0.317333,-0.236476 0.170498,0 12.12517,6.880745 12.374934,7.122634 0.132253,0.128083 0.135541,0.208375 0.01901,0.464252 -0.09767,0.214486 -0.103771,0.32177 -0.01987,0.349746 0.234511,0.07821 0.123485,0.857693 -0.210651,1.478847 -0.182392,0.339064 -0.333624,0.704752 -0.33607,0.812644 -0.0059,0.258853 -0.06426,0.244273 -0.788666,-0.197002 z m 0.120645,-1.615827 c 0.180118,-0.180201 0.327481,-0.434904 0.327481,-0.566007 0,-0.582198 -0.546694,-1.123947 -1.134212,-1.123947 -0.376545,0 -0.882361,0.596725 -0.882361,1.04094 0,0.893717 1.043696,1.294748 1.689092,0.649014 z m -2.214882,-1.455583 c 0.234566,-0.386066 0.410474,-0.785152 0.390895,-0.886871 -0.03524,-0.183014 -0.492704,-0.463767 -4.617279,-2.833651 -1.597502,-0.917885 -2.155266,-1.188011 -2.264966,-1.096921 -0.222179,0.184484 -0.967091,1.564049 -0.88752,1.643661 0.195665,0.195766 6.744447,3.938834 6.840354,3.909728 0.06162,-0.01871 0.303952,-0.34988 0.538516,-0.735946 z m -4.17955,-1.803618 -0.228617,-0.448354 h 0.22799 c 0.136992,0 0.31659,0.145395 0.449981,0.36429 0.311824,0.511692 0.277162,0.29597 -0.05913,-0.368018 l -0.281963,-0.556723 h 0.541293 c 0.509318,0 0.552453,0.02341 0.730099,0.396121 0.244792,0.513592 0.237995,0.604566 -0.03976,0.5319 -0.125697,-0.03289 -0.303441,-0.20471 -0.394987,-0.381819 -0.09154,-0.177108 -0.191196,-0.32202 -0.221461,-0.32202 -0.03026,0 0.07186,0.250519 0.226943,0.556723 0.155075,0.306194 0.281963,0.583615 0.281963,0.616485 0,0.03288 -0.225841,0.05977 -0.501866,0.05977 -0.472721,0 -0.515139,-0.02604 -0.730483,-0.448356 z m -3.576403,-2.457335 c 0.223503,-0.223618 0.327481,-0.439887 0.327481,-0.681158 0,-0.482192 -0.526336,-1.008796 -1.008291,-1.008796 -0.481947,0 -1.008282,0.526604 -1.008282,1.008796 0,0.241271 0.103977,0.45754 0.327481,0.681158 0.44028,0.440514 0.921331,0.440514 1.361611,0 z m 9.514093,3.178236 c -0.708603,-0.406936 -1.414402,-0.88454 -1.568447,-1.061363 -0.36337,-0.417089 -5.068315,-3.134299 -5.427153,-3.134299 -0.233195,0 -2.620491,-1.286915 -2.901594,-1.564156 -0.120789,-0.119139 0.113892,-0.565531 0.297323,-0.565531 0.07645,0 0.704698,0.327862 1.396095,0.72858 0.691388,0.400716 1.313568,0.728579 1.382606,0.728579 0.16052,0 5.619022,3.144273 5.722032,3.296085 0.04246,0.06257 0.646891,0.444367 1.34317,0.848436 0.696287,0.404068 1.280572,0.810557 1.298431,0.903305 0.01785,0.09276 -0.03202,0.256756 -0.11082,0.364442 -0.132002,0.18038 -0.244677,0.137563 -1.431643,-0.544078 z m 2.776344,-0.243287 c -0.262061,-0.162601 -0.359402,-0.169107 -0.697908,-0.04663 -0.382671,0.138441 -0.425574,0.123476 -1.57795,-0.550432 -0.651522,-0.381012 -1.295341,-0.791031 -1.430703,-0.911164 -0.310525,-0.275584 -5.433503,-3.238626 -5.735681,-3.317422 -0.123234,-0.03214 -0.785818,-0.379523 -1.472414,-0.771968 -1.15208,-0.658513 -1.254096,-0.744191 -1.322875,-1.111008 -0.05505,-0.293551 -0.175352,-0.456993 -0.460136,-0.625105 -0.4396,-0.259499 -0.449417,-0.288641 -0.211708,-0.628189 l 0.173902,-0.248413 0.434673,0.22187 c 0.553188,0.282358 0.620569,0.399024 0.413277,0.715551 -0.09238,0.141049 -0.130615,0.316894 -0.08498,0.39077 0.05471,0.08856 0.478337,-0.267679 1.243868,-1.046004 0.91713,-0.932482 1.225722,-1.180322 1.469619,-1.180322 0.86778,0 8.969781,4.692828 9.21762,5.33902 0.05095,0.132849 -0.560057,2.636541 -0.789293,3.234216 -0.113328,0.295486 0.290006,0.191187 0.427401,-0.110518 0.07018,-0.154115 0.176589,-0.280216 0.236445,-0.280216 0.08766,0 0.770027,0.370034 0.966348,0.524032 0.08441,0.0662 -0.249711,0.596931 -0.373867,0.593875 -0.06661,-0.0016 -0.258148,-0.08802 -0.425637,-0.191939 z m -1.121654,-1.198854 c 0.280619,-0.356924 0.744357,-1.995145 0.65866,-2.326799 -0.04852,-0.187763 -0.489533,-0.502642 -1.610202,-1.149675 -6.347204,-3.664604 -7.094052,-4.074551 -7.316865,-4.016259 -0.265438,0.06945 -1.574161,1.488427 -1.708913,1.852878 -0.0623,0.168524 -0.02718,0.325291 0.115827,0.516926 0.285904,0.383136 8.965401,5.392096 9.346998,5.394175 0.185733,9.83e-4 0.381651,-0.102274 0.514495,-0.271246 z"
       id="path826"
       inkscape:connector-curvature="0" />
    <path
       inkscape:connector-curvature="0"
       id="path854-6"
       d="m 53.568265,35.934913 c -0.441689,-0.124335 -0.82744,-0.367416 -1.169688,-0.737082 -0.855445,-0.923984 -1.056563,-2.302443 -0.46943,-3.217411 0.171127,-0.266677 0.548844,-0.605768 0.825614,-0.741178 0.192734,-0.0943 0.283034,-0.11342 0.532799,-0.112866 0.255237,6.06e-4 0.332592,0.01814 0.511268,0.116119 0.391399,0.21464 0.582499,0.588639 0.584686,1.144278 0.0025,0.686807 -0.3369,1.336783 -0.825705,1.580369 -0.333673,0.166273 -0.666535,0.132894 -1.02128,-0.102416 l -0.170284,-0.112951 v 0.154693 c 0,0.243068 0.144682,0.645185 0.310984,0.864312 0.469805,0.619034 1.419028,0.845518 2.112617,0.504067 0.469718,-0.231243 0.908057,-0.736213 1.272287,-1.465683 0.153675,-0.307782 1.072127,-2.518846 1.072127,-2.581023 0,-0.02128 -0.103673,-0.0941 -0.230391,-0.16182 -0.96587,-0.516212 -1.723921,-1.503936 -2.069532,-2.696555 -0.321557,-1.109643 -0.291288,-2.460789 0.08171,-3.647396 0.449361,-1.42952 1.537962,-2.754884 2.933313,-3.571301 0.783272,-0.458291 2.032164,-0.922415 3.678319,-1.366972 l 0.847461,-0.228864 0.250565,-0.606037 c 0.725165,-1.753941 1.5208,-2.991666 2.644587,-4.114035 1.080401,-1.079037 2.292755,-1.748129 3.017778,-1.665499 0.408132,0.04652 0.523174,0.234708 0.517272,0.846222 -0.01364,1.415289 -0.898554,3.33864 -2.269796,4.933484 -1.178046,1.370143 -2.813556,2.406674 -4.412901,2.796755 l -0.280471,0.0684 -0.440742,1.006163 c -0.242409,0.55339 -0.488406,1.117391 -0.546667,1.253334 l -0.105928,0.24717 0.300583,0.196339 c 0.581927,0.380106 0.982633,0.918619 1.175164,1.579313 0.122009,0.418715 0.153965,1.360112 0.06266,1.846214 -0.181258,0.965009 -0.608778,1.777243 -1.306526,2.482213 -0.857646,0.86653 -1.766035,1.198211 -2.804717,1.024087 -0.20935,-0.0351 -0.41841,-0.07429 -0.464575,-0.08712 -0.07384,-0.0205 -0.103512,0.02163 -0.246698,0.350357 -1.239358,2.845255 -1.406016,3.162359 -1.933664,3.67923 -0.301875,0.295707 -0.561033,0.45067 -0.902426,0.539589 -0.279777,0.07288 -0.807751,0.07462 -1.060381,0.0035 z m 5.175649,-5.048633 c 0.536704,-0.113752 0.981183,-0.413739 1.417063,-0.956396 0.492635,-0.61332 0.700361,-1.191162 0.698849,-1.944032 -0.0012,-0.69106 -0.208378,-1.243231 -0.636617,-1.698196 -0.130231,-0.13836 -0.2466,-0.241905 -0.258599,-0.230098 -0.02987,0.02936 -2.099893,4.691528 -2.116164,4.766035 -0.02477,0.113309 0.487435,0.149168 0.895468,0.06269 z M 57.44755,30.593756 c 0.02238,-0.0606 0.509564,-1.155398 1.082663,-2.432881 0.573106,-1.277482 1.034312,-2.335136 1.024913,-2.350341 -0.0094,-0.01521 -0.143239,-0.05019 -0.297424,-0.07775 -0.95033,-0.169832 -1.996057,0.566354 -2.260305,1.591247 -0.09601,0.372347 -0.08239,0.76516 0.03904,1.126942 0.09496,0.282885 0.105631,0.524337 0.02084,0.471943 -0.07613,-0.04705 -0.363726,-0.704655 -0.447916,-1.024172 -0.104646,-0.39717 -0.123081,-1.014268 -0.04069,-1.361811 0.219769,-0.926824 1.195874,-1.927796 2.206526,-2.262726 0.40582,-0.134488 0.872152,-0.194252 1.252806,-0.160558 0.193442,0.01713 0.311581,0.01286 0.311581,-0.01121 0,-0.02137 0.215847,-0.513588 0.479652,-1.093825 0.263807,-0.58024 0.472616,-1.062018 0.464016,-1.070617 -0.0287,-0.0287 -1.123432,0.187373 -1.685233,0.332618 -2.537118,0.655932 -4.101156,2.054938 -4.510105,4.034203 -0.151764,0.734549 -0.06243,1.604847 0.240484,2.34263 0.292088,0.711438 0.705925,1.25287 1.225945,1.603926 0.298573,0.201564 0.744355,0.451543 0.806323,0.45216 0.02539,3.02e-4 0.06446,-0.04913 0.08683,-0.109723 z M 63.371355,19.38227 c 0.833506,-0.172166 2.082876,-0.790194 2.931788,-1.450272 0.841356,-0.654198 1.384574,-1.400145 1.436676,-1.97285 0.01691,-0.185594 0.0049,-0.242029 -0.07397,-0.357621 -0.0517,-0.07549 -0.175165,-0.180685 -0.27433,-0.233773 -0.157683,-0.08441 -0.220751,-0.09454 -0.50266,-0.08071 -0.255704,0.01254 -0.377741,0.04172 -0.590177,0.141134 -0.909274,0.425497 -2.302658,1.782259 -2.858356,2.783217 -0.192088,0.346008 -0.445383,0.929001 -0.481004,1.107114 -0.0303,0.151413 -0.01998,0.153005 0.412042,0.06377 z"
       style="fill:none;stroke:#000000;stroke-width:0.06161452;stroke-miterlimit:4;stroke-dasharray:none;stroke-opacity:1"
       sodipodi:nodetypes="ccsccsccccscccsssccsccssssccccccccsccccsccscccccscccccccscccsccsccccccsscccccccs" />
    <path
       inkscape:connector-curvature="0"
       id="path854-2"
       d="m 103.40504,21.861415 c -0.29857,-0.05933 -0.57081,-0.154131 -0.87654,-0.305245 -0.64642,-0.319516 -1.13465,-0.764328 -1.49435,-1.36147 -0.49316,-0.818701 -0.38779,-1.509796 0.25201,-1.652979 0.39302,-0.08795 1.16376,0.170879 1.83241,0.615359 0.34449,0.228997 0.86357,0.73941 1.07277,1.054833 0.0829,0.124971 0.16396,0.229437 0.18017,0.232148 0.0162,0.0027 0.24762,-0.263966 0.51423,-0.592611 0.59021,-0.727556 1.44691,-1.777923 1.70415,-2.089406 0.10414,-0.126098 0.18935,-0.238216 0.18935,-0.24915 0,-0.01094 -0.43285,-0.167476 -0.9619,-0.347873 -0.52904,-0.180398 -1.76626,-0.603386 -2.74935,-0.939975 -1.35009,-0.462233 -1.79614,-0.603465 -1.82288,-0.577184 -0.0483,0.04744 -1.357784,2.080447 -1.690894,2.625105 -0.7618,1.245603 -0.94888,1.458554 -1.31932,1.501712 -0.32831,0.03825 -0.9563,-0.1741 -1.40358,-0.474616 -0.23784,-0.159798 -0.59237,-0.504643 -0.76484,-0.74394 -0.26423,-0.366614 -0.42302,-0.827104 -0.39751,-1.152778 0.0171,-0.217752 0.0816,-0.343747 0.2427,-0.473975 0.21592,-0.174519 0.60153,-0.139104 1.13919,0.104625 0.48074,0.217926 1.00636,0.668646 1.36444,1.170005 0.12781,0.178958 0.18602,0.238698 0.20665,0.212072 0.0158,-0.02039 0.7416,-1.182259 1.612904,-2.581936 0.8713,-1.399676 1.60061,-2.562687 1.6207,-2.584471 0.0298,-0.0323 0.18964,0.0059 0.86685,0.207267 0.45668,0.13578 1.42336,0.421863 2.14819,0.635741 0.72483,0.213877 1.89047,0.558958 2.59031,0.766843 0.69984,0.207887 1.47011,0.43534 1.71172,0.505452 0.24162,0.07011 0.44989,0.13724 0.46284,0.149172 0.0129,0.01193 -0.21251,0.300128 -0.501,0.640435 -0.2885,0.340306 -1.45746,1.721793 -2.59769,3.069969 -1.44834,1.712472 -2.11315,2.476604 -2.2059,2.535422 -0.23344,0.14804 -0.52859,0.180381 -0.92583,0.101449 z"
       style="fill:none;stroke:#000000;stroke-width:0.05;stroke-opacity:1;stroke-miterlimit:4;stroke-dasharray:none"
       sodipodi:nodetypes="sssccccccssscsscscccscscssccccscs" />
    <path
       inkscape:connector-curvature="0"
       id="path854-1"
       d="m 128.33899,28.852306 -0.10941,-0.128807 0.34378,-0.268442 c 1.11892,-0.873718 1.76924,-1.883393 1.9534,-3.032807 0.0665,-0.41521 0.0277,-1.327713 -0.0756,-1.776313 -0.22569,-0.980154 -0.73173,-2.046295 -1.43114,-3.015166 -0.3133,-0.433999 -0.38488,-0.521896 -0.40666,-0.499299 -0.0102,0.01056 -0.4592,0.838138 -0.99784,1.839074 -0.53865,1.000935 -1.39608,2.593573 -1.90541,3.539197 -0.50933,0.945624 -1.00341,1.827724 -1.09796,1.960225 -0.56609,0.793306 -1.36109,1.18669 -2.49532,1.234744 -0.78198,0.03311 -1.40012,-0.08973 -2.05571,-0.408591 -1.14554,-0.557147 -1.64913,-1.595202 -1.20829,-2.490677 0.15113,-0.306983 0.47315,-0.642599 0.81043,-0.844628 0.51445,-0.308156 1.31474,-0.517137 1.98037,-0.517137 0.63403,0 1.51514,0.212251 1.99791,0.481282 0.40581,0.226139 0.79977,0.59274 0.95849,0.891952 0.0494,0.09308 0.10126,0.169243 0.11529,0.169243 0.014,0 0.23886,-0.396121 0.49965,-0.880269 0.26079,-0.484148 0.70124,-1.298645 0.97879,-1.809992 0.27756,-0.511348 0.73104,-1.348099 1.00775,-1.859446 0.27671,-0.511348 0.98042,-1.810981 1.56379,-2.888074 1.7103,-3.157786 2.02865,-3.745693 2.36147,-4.361015 l 0.31522,-0.58278 0.23408,0.158955 c 0.12874,0.08743 0.23407,0.175547 0.23407,0.195826 0,0.02028 -0.037,0.107908 -0.0823,0.194732 -0.19418,0.372544 -0.27217,1.013524 -0.19744,1.622726 0.0593,0.483521 0.18562,1.012577 0.47649,1.995923 0.3752,1.268392 0.49466,1.90359 0.54023,2.872454 0.0391,0.831147 -0.0674,1.607204 -0.32224,2.348874 -0.0738,0.214787 -0.14298,0.3993 -0.15371,0.410031 -0.0149,0.01488 -0.22684,-0.09378 -0.33334,-0.170886 -0.007,-0.0052 0.0249,-0.144171 0.0711,-0.30892 0.402,-1.432615 0.16961,-3.131752 -0.64987,-4.751765 -0.2201,-0.435094 -0.56129,-0.983174 -0.78296,-1.257719 l -0.0891,-0.110402 -0.18809,0.367559 c -0.20105,0.392893 -0.26702,0.649119 -0.26665,1.035633 4.5e-4,0.327544 0.0933,0.902738 0.23106,1.428747 0.76081,2.905806 0.87635,3.479585 0.9056,4.497419 0.0236,0.819972 -0.0357,1.27949 -0.24737,1.91807 -0.26483,0.798869 -0.67635,1.458637 -1.30493,2.092113 -0.31938,0.321862 -0.77136,0.680539 -1.02863,0.816286 -0.0218,0.01147 -0.0888,-0.0371 -0.14897,-0.10793 z"
       style="fill:none;stroke:#000000;stroke-width:0.05;stroke-opacity:1;stroke-miterlimit:4;stroke-dasharray:none"
       sodipodi:nodetypes="cccccscsscscccsccsscccsccsccsccscccccccscsscc" />
    <path
       inkscape:connector-curvature="0"
       id="path854-6-5"
       d="m 75.014912,36.875937 c -0.441688,-0.124334 -0.82744,-0.367416 -1.169687,-0.737083 -0.855445,-0.923985 -1.056564,-2.302442 -0.46943,-3.21741 0.171127,-0.266678 0.548843,-0.60577 0.825613,-0.741179 0.192734,-0.09429 0.283034,-0.11342 0.5328,-0.112865 0.255236,6.86e-4 0.332591,0.01814 0.511267,0.116119 0.391399,0.214639 0.582498,0.588639 0.584687,1.144278 0.0025,0.686808 -0.3369,1.336784 -0.825706,1.580369 -0.333673,0.166273 -0.666535,0.132894 -1.02128,-0.102416 l -0.170285,-0.112952 v 0.154695 c 0,0.243068 0.144683,0.645186 0.310984,0.864312 0.469806,0.619034 1.419031,0.845518 2.112618,0.504067 0.469718,-0.231243 0.908057,-0.736212 1.272287,-1.465685 0.153675,-0.307779 1.072127,-2.518844 1.072127,-2.58102 0,-0.02128 -0.103673,-0.0941 -0.23039,-0.161821 -0.965871,-0.516211 -1.723922,-1.503936 -2.069532,-2.696555 -0.321558,-1.109642 -0.291289,-2.460789 0.08171,-3.647396 0.449361,-1.42952 1.537962,-2.754884 2.933313,-3.571301 0.783272,-0.458293 2.032164,-0.922416 3.678319,-1.366974 l 0.847461,-0.228863 0.250566,-0.606036 c 0.725164,-1.753941 1.520799,-2.991667 2.644586,-4.114035 1.080402,-1.079039 2.292755,-1.74813 3.017778,-1.665502 0.408134,0.04652 0.523175,0.23471 0.517273,0.846223 -0.01364,1.41529 -0.898554,3.338642 -2.269795,4.933486 -1.178048,1.370143 -2.813556,2.406674 -4.412904,2.796756 l -0.280469,0.0684 -0.440743,1.006163 c -0.242408,0.55339 -0.488406,1.117391 -0.546667,1.253334 l -0.105928,0.24717 0.300584,0.196337 c 0.581927,0.380107 0.982634,0.918621 1.175164,1.579315 0.122009,0.418716 0.153965,1.360112 0.06266,1.846214 -0.181256,0.965009 -0.608776,1.777245 -1.306526,2.482213 -0.857646,0.86653 -1.766035,1.198212 -2.804716,1.024087 -0.20935,-0.0351 -0.418411,-0.07429 -0.464574,-0.08712 -0.07384,-0.0205 -0.103512,0.02163 -0.246698,0.350357 -1.239359,2.845253 -1.406018,3.162359 -1.933666,3.67923 -0.301874,0.295705 -0.561032,0.45067 -0.902426,0.539589 -0.279777,0.07288 -0.80775,0.07462 -1.060381,0.0035 z m 5.17565,-5.048633 c 0.536704,-0.113752 0.981183,-0.413738 1.417062,-0.956398 0.492635,-0.613318 0.700363,-1.19116 0.698851,-1.94403 -0.0012,-0.691061 -0.20838,-1.243231 -0.636618,-1.698196 -0.130231,-0.138361 -0.246601,-0.241905 -0.2586,-0.230098 -0.02987,0.02937 -2.099893,4.691528 -2.116163,4.766033 -0.02478,0.113309 0.487435,0.149169 0.895468,0.06269 z m -1.296365,-0.292525 c 0.02238,-0.0606 0.509564,-1.155396 1.082663,-2.43288 0.573107,-1.277482 1.034312,-2.335136 1.024912,-2.350341 -0.0094,-0.01521 -0.143237,-0.05019 -0.297423,-0.07775 -0.95033,-0.169832 -1.996057,0.566354 -2.260305,1.591248 -0.09601,0.372346 -0.08239,0.765158 0.03904,1.12694 0.09496,0.282886 0.105632,0.524336 0.02084,0.471944 -0.07612,-0.04705 -0.363726,-0.704656 -0.447916,-1.024174 -0.104646,-0.397168 -0.123081,-1.014266 -0.04069,-1.36181 0.219771,-0.926823 1.195874,-1.927796 2.206526,-2.262726 0.40582,-0.134487 0.872152,-0.194252 1.252808,-0.160557 0.19344,0.01712 0.31158,0.01285 0.31158,-0.01121 0,-0.02137 0.215846,-0.513588 0.479651,-1.093825 0.263807,-0.58024 0.472616,-1.062018 0.464016,-1.070615 -0.02871,-0.0287 -1.123431,0.187371 -1.685233,0.332616 -2.537117,0.655933 -4.101155,2.054939 -4.510105,4.034203 -0.151764,0.734549 -0.06243,1.604848 0.240484,2.342631 0.29209,0.711438 0.705925,1.252868 1.225944,1.603925 0.298574,0.201565 0.744358,0.451545 0.806326,0.452161 0.02538,3.26e-4 0.06446,-0.04912 0.08682,-0.109723 z m 5.923805,-11.211486 c 0.833506,-0.172165 2.082876,-0.790193 2.931788,-1.450271 0.841357,-0.654199 1.384575,-1.400147 1.436678,-1.972851 0.01691,-0.185593 0.0049,-0.242028 -0.07397,-0.357621 -0.05169,-0.07549 -0.175166,-0.180685 -0.274329,-0.233774 -0.157684,-0.08441 -0.220752,-0.09454 -0.502661,-0.08072 -0.255704,0.01254 -0.377742,0.04173 -0.590176,0.141134 -0.909275,0.425498 -2.302659,1.78226 -2.858356,2.783218 -0.192089,0.346008 -0.445383,0.929001 -0.481006,1.107113 -0.0303,0.151413 -0.01998,0.153005 0.412042,0.06377 z"
       style="fill:none;stroke:#000000;stroke-width:0.06161452;stroke-miterlimit:4;stroke-dasharray:none;stroke-opacity:1"
       sodipodi:nodetypes="ccsccsccccscccsssccsccssssccccccccsccccsccscccccscccccccscccsccsccccccsscccccccs" />
    <path
       inkscape:connector-curvature="0"
       id="path854-2-5"
       d="m 101.71619,34.907684 c -0.29857,-0.05933 -0.57081,-0.15413 -0.87654,-0.305244 -0.64643,-0.319516 -1.134645,-0.764328 -1.494345,-1.36147 -0.493156,-0.8187 -0.38779,-1.509795 0.25201,-1.652977 0.39301,-0.08795 1.163755,0.170878 1.832405,0.615358 0.34449,0.228997 0.86358,0.73941 1.07277,1.054833 0.0829,0.124971 0.16397,0.229436 0.18018,0.232147 0.0162,0.0027 0.24762,-0.263965 0.51423,-0.59261 0.59021,-0.727556 1.44691,-1.777922 1.70415,-2.089406 0.10415,-0.126098 0.18935,-0.238215 0.18935,-0.249149 0,-0.01094 -0.43285,-0.167476 -0.9619,-0.347873 -0.52905,-0.180398 -1.76626,-0.603386 -2.74936,-0.939975 -1.3501,-0.462233 -1.796135,-0.603464 -1.822875,-0.577183 -0.0483,0.04744 -1.357788,2.080446 -1.690895,2.625104 -0.761802,1.245601 -0.948886,1.458553 -1.319327,1.50171 -0.32831,0.03825 -0.956298,-0.174099 -1.403577,-0.474615 -0.237839,-0.159798 -0.59237,-0.504643 -0.764836,-0.743939 -0.264231,-0.366614 -0.423022,-0.827104 -0.397507,-1.152778 0.01706,-0.217752 0.08157,-0.343747 0.242698,-0.473975 0.215922,-0.174519 0.60153,-0.139104 1.139188,0.104625 0.480742,0.217926 1.006357,0.668646 1.364432,1.170004 0.127813,0.178958 0.186027,0.238699 0.206657,0.212072 0.01582,-0.02039 0.741601,-1.182258 1.612905,-2.581934 0.871302,-1.399676 1.600607,-2.562687 1.620697,-2.58447 0.0298,-0.0323 0.18964,0.0059 0.86685,0.207267 0.45667,0.135779 1.42337,0.421863 2.1482,0.63574 0.72484,0.213877 1.89048,0.558958 2.59031,0.766843 0.69984,0.207887 1.47012,0.43534 1.71173,0.505452 0.24161,0.07011 0.44988,0.13724 0.46283,0.149172 0.0129,0.01193 -0.2125,0.300128 -0.501,0.640435 -0.2885,0.340305 -1.45745,1.721791 -2.59768,3.069967 -1.44835,1.712471 -2.11317,2.476603 -2.20591,2.53542 -0.23344,0.148041 -0.52859,0.180382 -0.92584,0.101449 z"
       style="fill:none;stroke:#000000;stroke-width:0.05;stroke-opacity:1;stroke-miterlimit:4;stroke-dasharray:none"
       sodipodi:nodetypes="sssccccccssscsscscccscscssccccscs" />
    <path
       inkscape:connector-curvature="0"
       id="path854-1-1"
       d="m 150.12105,29.439592 -0.10941,-0.128807 0.34378,-0.268441 c 1.11892,-0.873719 1.76924,-1.883394 1.9534,-3.032808 0.0665,-0.41521 0.0277,-1.327714 -0.0756,-1.776313 -0.22569,-0.980154 -0.73173,-2.046295 -1.43114,-3.015166 -0.3133,-0.434 -0.38488,-0.521896 -0.40666,-0.499299 -0.0102,0.01056 -0.4592,0.838138 -0.99784,1.839073 -0.53865,1.000936 -1.39608,2.593574 -1.90541,3.539198 -0.50933,0.945624 -1.00341,1.827724 -1.09796,1.960225 -0.56609,0.793306 -1.36109,1.18669 -2.49532,1.234744 -0.78198,0.03311 -1.40012,-0.08973 -2.05571,-0.408591 -1.14554,-0.557147 -1.64913,-1.595202 -1.20829,-2.490677 0.15113,-0.306983 0.47315,-0.642599 0.81043,-0.844628 0.51445,-0.308156 1.31474,-0.517137 1.98037,-0.517137 0.63403,0 1.51514,0.212251 1.99791,0.481282 0.40581,0.226139 0.79977,0.59274 0.95849,0.891952 0.0494,0.09308 0.10126,0.169243 0.11529,0.169243 0.014,0 0.23886,-0.396121 0.49965,-0.880269 0.26079,-0.484148 0.70124,-1.298645 0.97879,-1.809993 0.27756,-0.511347 0.73104,-1.348098 1.00775,-1.859445 0.27671,-0.511348 0.98042,-1.810981 1.56379,-2.888075 1.7103,-3.157786 2.02865,-3.745693 2.36147,-4.361015 l 0.31522,-0.582779 0.23408,0.158955 c 0.12874,0.08742 0.23407,0.175547 0.23407,0.195826 0,0.02028 -0.037,0.107908 -0.0823,0.194732 -0.19418,0.372543 -0.27217,1.013524 -0.19744,1.622726 0.0593,0.483521 0.18562,1.012576 0.47649,1.995923 0.3752,1.268392 0.49465,1.90359 0.54023,2.872453 0.0391,0.831148 -0.0674,1.607205 -0.32225,2.348875 -0.0738,0.214787 -0.14297,0.3993 -0.15371,0.410031 -0.0149,0.01488 -0.22683,-0.09378 -0.33333,-0.170886 -0.007,-0.0052 0.0249,-0.144172 0.0711,-0.30892 0.40199,-1.432616 0.16961,-3.131752 -0.64987,-4.751766 -0.2201,-0.435093 -0.56129,-0.983174 -0.78296,-1.257719 l -0.0891,-0.110401 -0.18809,0.367558 c -0.20105,0.392893 -0.26702,0.649119 -0.26665,1.035634 4.5e-4,0.327544 0.0933,0.902737 0.23106,1.428747 0.76081,2.905806 0.87635,3.479585 0.9056,4.497419 0.0236,0.819972 -0.0357,1.27949 -0.24737,1.918069 -0.26483,0.79887 -0.67635,1.458638 -1.30493,2.092114 -0.31938,0.321862 -0.77136,0.68054 -1.02863,0.816286 -0.0218,0.01146 -0.0888,-0.0371 -0.14897,-0.10793 z"
       style="fill:none;stroke:#000000;stroke-width:0.05;stroke-opacity:1;stroke-miterlimit:4;stroke-dasharray:none"
       sodipodi:nodetypes="cccccscsscscccsccsscccsccsccsccscccccccscsscc" />
    <text
       xml:space="preserve"
       style="font-style:normal;font-variant:normal;font-weight:normal;font-stretch:normal;font-size:30.30095291px;line-height:1.25;font-family:'Cordia New';-inkscape-font-specification:'Cordia New';letter-spacing:0px;word-spacing:0px;fill:none;fill-opacity:1;stroke:#000000;stroke-width:0.07;stroke-miterlimit:4;stroke-dasharray:none;stroke-opacity:1"
       x="161.94911"
       y="33.563683"
       id="text977"><tspan
         sodipodi:role="line"
         id="tspan975"
         x="161.94911"
         y="33.563683"
         style="font-style:normal;font-variant:normal;font-weight:normal;font-stretch:normal;font-family:Gungsuh;-inkscape-font-specification:Gungsuh;fill:none;stroke:#000000;stroke-width:0.07;stroke-miterlimit:4;stroke-dasharray:none;stroke-opacity:1">SA</tspan></text>
    <path
       style="fill:none;stroke:#000000;stroke-width:0.07;stroke-miterlimit:4;stroke-dasharray:none;stroke-opacity:1"
       d="m 152.02067,80.310127 c -1.53138,-1.4021 -3.60734,-2.467319 -4.43278,-2.274545 -0.47489,0.110912 -4.26366,1.692518 -4.78169,1.996105 -0.7023,0.411571 -1.39721,0.394453 -2.23979,-0.05517 -0.35899,-0.191562 -0.82634,-0.348296 -1.03857,-0.348296 h -0.38588 l 0.23187,-0.551469 c 0.12752,-0.303306 0.33236,-0.636363 0.4552,-0.740121 0.56603,-0.478136 4.36128,-1.569085 6.22949,-1.790674 l 0.59743,-0.07087 0.0682,-1.238829 c 0.27052,-4.910606 0.20277,-6.36746 -0.33921,-7.293935 -0.34133,-0.583455 -1.21276,-1.246156 -1.87115,-1.422956 -0.46436,-0.124699 -1.66866,-0.923122 -1.9978,-1.32449 -0.13417,-0.163628 -0.13417,-0.296726 0,-0.86187 l 0.15869,-0.668357 0.66756,-0.100253 c 0.36717,-0.05513 0.66757,-0.150717 0.66757,-0.212399 0,-0.250525 -0.63713,-1.693355 -0.95085,-2.153277 -0.21687,-0.317927 -0.70241,-0.729081 -1.37105,-1.160989 -0.5694,-0.367805 -1.03714,-0.72098 -1.0394,-0.784834 -0.002,-0.06386 0.0686,-0.255478 0.15747,-0.425833 0.14659,-0.280961 0.13629,-0.346983 -0.11086,-0.71069 -0.43536,-0.640699 -0.4662,-0.936887 -0.11697,-1.123785 0.36361,-0.194592 0.36437,-0.225159 0.0226,-0.907236 -0.39718,-0.792791 -0.58251,-1.690519 -0.48085,-2.329259 0.0473,-0.297175 0.0947,-0.996972 0.1054,-1.555092 l 0.0194,-1.014769 -0.66881,-0.412813 c -0.36785,-0.22705 -0.74768,-0.525404 -0.84406,-0.663015 -0.15989,-0.228267 -0.15413,-0.272683 0.0657,-0.506711 0.13253,-0.141082 0.22319,-0.346004 0.20144,-0.455376 -0.0217,-0.109376 -0.40524,-0.405239 -0.85222,-0.657474 -0.88834,-0.5013 -1.40215,-0.943178 -1.71754,-1.477104 -0.20054,-0.339485 -0.19942,-0.348752 0.06,-0.491927 0.1454,-0.08027 0.56478,-0.1434 0.93194,-0.140308 0.36716,0.003 0.66757,-0.03168 0.66757,-0.07725 0,-0.161812 -1.00103,-0.995613 -1.97368,-1.643974 -0.54276,-0.361801 -1.34617,-1.022233 -1.78536,-1.467633 l -0.79852,-0.809815 0.08,-0.533587 c 0.044,-0.293473 0.13071,-0.533587 0.19266,-0.533587 0.0619,0 0.43057,0.107099 0.81913,0.237996 0.38857,0.1309 0.72629,0.21819 0.7505,0.193981 0.0242,-0.0242 -0.13921,-0.405588 -0.36314,-0.847514 -0.55203,-1.089409 -0.62243,-1.49551 -0.29008,-1.673378 0.59414,-0.317973 2.12255,0.5025 3.44619,1.849967 l 0.8287,0.843615 0.20362,-0.429093 c 0.112,-0.236002 0.26904,-0.454199 0.349,-0.484882 0.25245,-0.09688 0.78127,0.261367 1.51557,1.026683 1.55958,1.625468 2.6758,4.021344 3.47907,7.467584 0.28147,1.20759 0.32559,1.640643 0.33118,3.250762 0.005,1.49262 -0.0358,1.994437 -0.20841,2.554173 -0.25278,0.819592 -0.33844,2.933516 -0.18319,4.520928 0.0948,0.968877 0.5355,3.433366 0.63112,3.528983 0.0236,0.02357 0.39025,-0.0728 0.8149,-0.214124 1.37996,-0.459224 2.0625,-0.585226 3.56164,-0.657517 l 1.47447,-0.0711 0.2891,-0.825266 c 0.76697,-2.189476 0.9415,-3.30018 0.9415,-5.991657 0,-1.245157 -0.0403,-2.453275 -0.0896,-2.684701 -0.0848,-0.398125 -0.12853,-0.431509 -0.81269,-0.62003 -1.35982,-0.374703 -2.17433,-1.028591 -2.17433,-1.745561 0,-0.51417 0.35095,-0.916306 1.11521,-1.277859 0.43904,-0.207696 0.62505,-0.357405 0.58234,-0.468686 -0.0976,-0.254437 0.21687,-1.159352 0.6228,-1.791933 l 0.36809,-0.573608 -0.57035,-0.704874 c -0.31368,-0.387683 -0.76092,-1.027063 -0.99388,-1.420847 l -0.42355,-0.71597 0.35882,-0.150869 c 0.23349,-0.09818 0.33647,-0.209066 0.29486,-0.317507 -0.12263,-0.319556 -0.22128,-1.564485 -0.14733,-1.859128 0.094,-0.374609 0.4508,-0.392418 0.71408,-0.03565 0.1461,0.197975 0.20768,0.221818 0.25433,0.09847 0.22965,-0.607151 1.0213,-2.004218 1.3551,-2.391425 0.34007,-0.394468 0.43218,-0.444522 0.61177,-0.332419 0.16031,0.100075 0.20686,0.261593 0.19257,0.668129 -0.0103,0.294883 0.0157,0.514342 0.058,0.487685 0.0423,-0.02667 0.42121,-0.279798 0.84203,-0.562535 0.65857,-0.44247 0.87585,-0.524406 1.56,-0.588295 0.43717,-0.04083 0.80372,-0.06221 0.81455,-0.04755 0.0108,0.01466 0.0511,0.1918 0.0894,0.393611 0.066,0.347176 0.0308,0.392276 -0.6529,0.83775 -0.82832,0.53967 -1.65532,1.264192 -1.55618,1.363338 0.037,0.03704 0.25979,0.0038 0.49501,-0.07379 1.13925,-0.375989 2.38367,0.226395 3.50623,1.697258 0.51487,0.674636 0.60951,0.875416 0.60951,1.29312 0,0.452616 -0.025,0.494481 -0.29601,0.494481 -0.42613,0 -0.96267,-0.300085 -1.56156,-0.873376 -0.57051,-0.546123 -1.42526,-0.872724 -2.25598,-0.862014 l -0.47234,0.0062 0.29024,0.190133 c 0.7003,0.458744 1.58047,1.486538 1.72981,2.019913 0.20855,0.744858 0.14521,0.96293 -0.29208,1.00564 -0.29494,0.02881 -0.49967,-0.08415 -1.13412,-0.625761 -0.42582,-0.363503 -0.79584,-0.639281 -0.82229,-0.61284 -0.0265,0.02645 0.0531,0.274144 0.17684,0.550445 0.1237,0.276303 0.1959,0.549322 0.16043,0.60671 -0.0958,0.154945 -0.53864,0.126729 -1.09567,-0.0698 -0.27147,-0.09578 -0.51315,-0.174148 -0.53704,-0.174148 -0.0239,0 -0.0434,0.23674 -0.0434,0.526088 0,0.396319 0.0501,0.543777 0.20317,0.597792 0.40707,0.143667 0.72438,0.551258 1.0135,1.301867 0.38466,0.998634 0.36024,0.970919 1.12517,1.277368 0.71989,0.288403 0.94469,0.482237 1.13265,0.976597 0.0964,0.253648 0.0837,0.403116 -0.0577,0.6765 -0.17868,0.345526 -0.88749,0.75102 -1.09193,0.624673 -0.0566,-0.03501 -0.13893,-0.0055 -0.1829,0.06571 -0.14491,0.234467 -1.13746,0.803233 -1.40172,0.803233 -0.29558,0 -0.2529,-0.268719 -0.56247,3.541011 -0.19932,2.453025 -0.52682,4.963579 -0.86614,6.639551 -0.17786,0.878549 -0.18412,1.076565 -0.0482,1.528026 0.26952,0.895522 0.21227,1.2167 -0.29925,1.67883 -0.33277,0.300634 -0.60625,0.433172 -1.01586,0.492318 -0.30828,0.04452 -0.96388,0.206849 -1.45687,0.36074 -0.85865,0.268035 -0.90115,0.297958 -1.01004,0.711199 -0.0625,0.237268 -0.16575,0.875474 -0.22941,1.418236 -0.14451,1.232251 -0.27392,6.323973 -0.17349,6.826138 0.0673,0.336243 0.11484,0.372071 0.49526,0.372899 1.33188,0.003 4.84326,1.067782 5.97337,1.811496 0.40333,0.265428 1.00241,1.231702 1.00593,1.622487 4.3e-4,0.06935 -0.3146,0.21387 -0.70049,0.321156 -0.58301,0.162091 -0.74196,0.263441 -0.94026,0.599531 -0.21914,0.371424 -0.28274,0.404027 -0.77864,0.399186 -0.48335,-0.0047 -0.60698,-0.06659 -1.17854,-0.589906 z"
       id="path990"
       inkscape:connector-curvature="0"
       sodipodi:nodetypes="scccscccccccccccsscscccccssccccccsccsccccssccccccccsccsscsccsccsccccccccccccccccccccccccsscccccscccccsscsccsccssccccccccccccccs" />
    <path
       style="fill:none;stroke:#000000;stroke-width:0.07;stroke-miterlimit:4;stroke-dasharray:none;stroke-opacity:1"
       d="m 178.4326,69.223855 c -0.66144,-0.797505 -0.7405,-0.961972 -0.68769,-1.430496 0.0866,-0.768183 0.63809,-1.275427 1.43737,-1.322009 0.17941,-0.01044 0.68512,0.01409 1.1238,0.05456 l 0.79758,0.07357 0.25036,-0.565437 c 0.13769,-0.310995 0.27404,-0.710808 0.30301,-0.888481 l 0.0527,-0.323043 -0.42457,0.218562 c -0.89421,0.46031 -2.54864,0.192456 -3.36462,-0.544734 -0.5216,-0.471235 -0.88498,-1.194785 -0.88945,-1.771027 -0.005,-0.702678 0.16871,-0.984712 0.73905,-1.196894 0.83404,-0.310278 1.36709,-0.02132 1.78766,0.969032 0.1825,0.429748 0.26681,0.519982 0.56193,0.601471 0.83205,0.229743 1.53194,-0.126017 2.15573,-1.09579 0.20899,-0.324905 0.46302,-0.655927 0.5645,-0.735601 0.10149,-0.07968 0.23738,-0.345116 0.30199,-0.589868 0.10775,-0.408194 0.0999,-0.469753 -0.0956,-0.744217 -0.43931,-0.616955 -0.61939,-1.172362 -0.55573,-1.714004 0.0569,-0.484353 0.0457,-0.517791 -0.26461,-0.790278 l -0.32406,-0.284523 -0.76213,0.124801 c -1.39066,0.227728 -3.46116,0.103471 -5.08889,-0.305402 l -0.6303,-0.158328 -0.75677,0.619539 c -0.41623,0.340744 -1.10306,0.866602 -1.52629,1.16857 -0.92162,0.657551 -1.22566,0.699046 -1.91571,0.261429 -0.4419,-0.280245 -0.4535,-0.300003 -0.4535,-0.772611 0,-0.366732 -0.0353,-0.485007 -0.14486,-0.485007 -0.091,0 -0.14487,-0.09184 -0.14487,-0.247138 0,-0.135928 0.0342,-0.225987 0.0761,-0.20013 0.0418,0.02584 0.1944,-0.163499 0.33904,-0.42079 0.14462,-0.257294 0.57028,-0.752331 0.94588,-1.100085 0.60773,-0.562667 0.75759,-0.832565 0.46228,-0.832565 -0.0533,0 -0.33319,-0.111807 -0.62204,-0.248457 -0.44362,-0.209864 -0.52511,-0.288615 -0.52465,-0.507024 0.001,-0.446736 0.19336,-0.9765 0.39364,-1.083682 0.28619,-0.153172 0.55373,-0.0265 1.15473,0.54677 0.62639,0.597467 1.41834,0.986684 2.60387,1.279705 0.868,0.21454 2.22308,0.429346 2.2895,0.362933 0.0914,-0.09141 -0.58055,-0.463264 -1.03012,-0.570055 -0.35829,-0.08511 -0.48678,-0.160855 -0.48678,-0.286978 0,-0.111733 -0.1848,-0.261983 -0.53116,-0.431856 l -0.53117,-0.26051 -0.002,-0.776638 c -0.003,-1.285117 -0.38001,-2.673164 -1.21606,-4.474471 -0.32705,-0.704657 -0.38189,-0.889947 -0.25203,-0.85154 0.50646,0.149785 1.77356,0.44012 2.1707,0.497377 0.44117,0.0636 0.47971,0.04933 0.96577,-0.357535 0.97421,-0.815493 1.76412,-1.31437 2.41364,-1.524368 l 0.36212,-0.117094 v -0.772845 -0.772845 l 0.55531,0.498265 c 0.83229,0.746777 0.99604,0.813717 1.57527,0.643921 0.46648,-0.136742 0.47701,-0.135268 0.47846,0.0669 0.002,0.309476 0.0899,0.392085 0.71976,0.678001 1.00084,0.454319 1.90626,1.213992 2.65518,2.227765 0.62818,0.850345 0.80404,1.284782 0.85318,2.107665 0.0246,0.41278 0.0812,0.772978 0.12561,0.800442 0.10252,0.06336 0.60712,-0.929863 0.76342,-1.502663 0.0652,-0.239025 0.24269,-0.695349 0.39438,-1.014051 0.18764,-0.394265 0.28442,-0.764649 0.30282,-1.158914 l 0.0271,-0.579458 0.46293,-0.0296 c 0.41948,-0.02683 0.49501,0.0025 0.80463,0.312093 0.34041,0.340405 0.34145,0.34408 0.27443,0.969896 l -0.0673,0.628196 0.42156,0.180654 c 0.23185,0.09936 0.68231,0.25592 1.00101,0.347913 0.31871,0.09199 0.82774,0.298979 1.13119,0.45997 0.45523,0.241507 0.57872,0.363351 0.70596,0.696527 0.10705,0.280285 0.2718,0.476173 0.5386,0.640341 0.32139,0.197761 0.37979,0.28163 0.35638,0.511748 -0.0225,0.221198 -0.0986,0.299355 -0.38758,0.398182 -0.19777,0.06763 -0.52078,0.264499 -0.71781,0.437485 -0.3457,0.30353 -0.38039,0.312623 -0.99248,0.260112 -0.51567,-0.04424 -1.7535,-0.382409 -2.51986,-0.688418 -0.10452,-0.04174 -0.26581,0.121576 -0.55608,0.56308 -0.47872,0.728145 -1.48087,1.678218 -2.21057,2.095709 -0.28302,0.161927 -0.51458,0.333796 -0.51458,0.381938 0,0.04814 0.17798,0.17832 0.39551,0.289295 0.65335,0.333314 1.20347,0.95749 1.38045,1.566291 0.20137,0.692681 0.1961,1.016939 -0.0274,1.691511 -0.13091,0.394998 -0.21422,1.088383 -0.29255,2.434893 -0.0602,1.035442 -0.1782,2.482939 -0.26215,3.216658 -0.084,0.733719 -0.13582,1.35086 -0.11526,1.371425 0.0205,0.02055 0.36215,-0.04849 0.75907,-0.153451 1.11624,-0.295186 1.69093,-0.117194 2.23441,0.692042 0.33899,0.504732 0.35449,0.968652 0.0515,1.54158 -0.3682,0.69628 -1.31177,1.058989 -2.75207,1.057886 -0.9829,-7.3e-4 -2.57138,-0.245419 -2.91634,-0.449191 -0.27037,-0.159708 -0.28151,-0.157215 -0.61807,0.138292 -0.30418,0.267069 -0.85929,0.502553 -1.18827,0.504083 -0.0638,2.91e-4 -0.1557,0.07161 -0.20431,0.158488 -0.0744,0.132952 -0.33954,0.16557 -1.67507,0.206083 l -1.58668,0.04813 -0.39119,-0.471665 z"
       id="path990-5"
       inkscape:connector-curvature="0"
       sodipodi:nodetypes="cccccccccccccsccccccccccccssscccsccccsccscccccccsccccsccsccccccccscccccscccscccsccccssccccccccccccc" />
    <path
       style="fill:none;stroke:#000000;stroke-width:0.07;stroke-miterlimit:4;stroke-dasharray:none;stroke-opacity:1"
       d="m 122.85731,71.365219 c 0.66144,-0.797505 0.7405,-0.961972 0.68769,-1.430496 -0.0866,-0.768183 -0.63809,-1.275427 -1.43737,-1.322009 -0.17941,-0.01044 -0.68512,0.01409 -1.1238,0.05456 l -0.79758,0.07357 -0.25036,-0.565437 c -0.13769,-0.310995 -0.27404,-0.710808 -0.30301,-0.888481 l -0.0527,-0.323043 0.42457,0.218562 c 0.89421,0.46031 2.54864,0.192456 3.36462,-0.544734 0.5216,-0.471235 0.88498,-1.194785 0.88945,-1.771027 0.005,-0.702678 -0.16871,-0.984712 -0.73905,-1.196894 -0.83404,-0.310278 -1.36709,-0.02132 -1.78766,0.969032 -0.1825,0.429748 -0.26681,0.519982 -0.56193,0.601471 -0.83205,0.229743 -1.53194,-0.126017 -2.15573,-1.09579 -0.20899,-0.324905 -0.46302,-0.655927 -0.5645,-0.735601 -0.10149,-0.07968 -0.23738,-0.345116 -0.30199,-0.589868 -0.10775,-0.408194 -0.0999,-0.469753 0.0956,-0.744217 0.43931,-0.616955 0.61939,-1.172362 0.55573,-1.714004 -0.0569,-0.484353 -0.0457,-0.517791 0.26461,-0.790278 l 0.32406,-0.284523 0.76213,0.124801 c 1.39066,0.227728 3.46116,0.103471 5.08889,-0.305402 l 0.6303,-0.158328 0.75677,0.619539 c 0.41623,0.340744 1.10306,0.866602 1.52629,1.16857 0.92162,0.657551 1.22566,0.699046 1.91571,0.261429 0.4419,-0.280245 0.4535,-0.300003 0.4535,-0.772611 0,-0.366732 0.0353,-0.485007 0.14486,-0.485007 0.091,0 0.14487,-0.09184 0.14487,-0.247138 0,-0.135929 -0.0342,-0.225987 -0.0761,-0.20013 -0.0418,0.02584 -0.1944,-0.163499 -0.33904,-0.42079 -0.14462,-0.257294 -0.57028,-0.752331 -0.94588,-1.100085 -0.60773,-0.562667 -0.75759,-0.832565 -0.46228,-0.832565 0.0533,0 0.33319,-0.111807 0.62204,-0.248457 0.44362,-0.209864 0.52511,-0.288615 0.52465,-0.507024 -0.001,-0.446736 -0.19336,-0.9765 -0.39364,-1.083682 -0.28619,-0.153172 -0.55373,-0.0265 -1.15473,0.54677 -0.62639,0.597467 -1.41834,0.986684 -2.60387,1.279705 -0.868,0.21454 -2.22308,0.429346 -2.2895,0.362932 -0.0914,-0.09141 0.58055,-0.463264 1.03012,-0.570054 0.35829,-0.08511 0.48678,-0.160855 0.48678,-0.286978 0,-0.111733 0.1848,-0.261983 0.53116,-0.431856 l 0.53117,-0.26051 0.002,-0.776638 c 0.003,-1.285117 0.38001,-2.673164 1.21606,-4.474471 0.32705,-0.704657 0.38189,-0.889947 0.25203,-0.85154 -0.50646,0.149785 -1.77356,0.44012 -2.1707,0.497377 -0.44117,0.0636 -0.47971,0.04933 -0.96577,-0.357535 -0.97421,-0.815493 -1.76412,-1.31437 -2.41364,-1.524368 l -0.36212,-0.117094 v -0.772845 -0.772845 l -0.55531,0.498265 c -0.83228,0.746777 -0.99603,0.813717 -1.57526,0.643921 -0.46648,-0.136742 -0.47701,-0.135268 -0.47846,0.0669 -0.002,0.309476 -0.0899,0.392085 -0.71976,0.678001 -1.00084,0.454319 -1.90626,1.213992 -2.65518,2.227765 -0.62818,0.850345 -0.80404,1.284782 -0.85318,2.107665 -0.0246,0.41278 -0.0812,0.772978 -0.12561,0.800442 -0.10252,0.06336 -0.60712,-0.929863 -0.76342,-1.502663 -0.0652,-0.239025 -0.24269,-0.695349 -0.39438,-1.014051 -0.18764,-0.394265 -0.28442,-0.764649 -0.30282,-1.158914 l -0.0271,-0.579458 -0.46293,-0.0296 c -0.41948,-0.02683 -0.49501,0.0025 -0.80463,0.312093 -0.34041,0.340405 -0.34145,0.34408 -0.27443,0.969896 l 0.0673,0.628196 -0.42156,0.180654 c -0.23185,0.09936 -0.68231,0.25592 -1.00101,0.347913 -0.31871,0.09199 -0.82774,0.298979 -1.13119,0.45997 -0.45523,0.241507 -0.57872,0.363351 -0.70596,0.696527 -0.10705,0.280285 -0.27181,0.476173 -0.53861,0.640341 -0.32138,0.197761 -0.37978,0.28163 -0.35638,0.511748 0.0225,0.221198 0.0986,0.299355 0.38759,0.398182 0.19777,0.06763 0.52078,0.264499 0.7178,0.437485 0.34571,0.30353 0.3804,0.312623 0.99249,0.260112 0.51567,-0.04424 1.7535,-0.382409 2.51986,-0.688418 0.10452,-0.04174 0.26581,0.121576 0.55608,0.56308 0.47872,0.728145 1.48087,1.678218 2.21057,2.095709 0.28302,0.161927 0.51458,0.333796 0.51458,0.381938 0,0.04814 -0.17798,0.17832 -0.39551,0.289295 -0.65335,0.333314 -1.20347,0.95749 -1.38045,1.566291 -0.20137,0.692681 -0.1961,1.016939 0.0274,1.691511 0.13091,0.394998 0.21422,1.088383 0.29255,2.434893 0.0602,1.035442 0.1782,2.482939 0.26215,3.216658 0.084,0.733719 0.13582,1.35086 0.11526,1.371425 -0.0205,0.02055 -0.36215,-0.04849 -0.75907,-0.153451 -1.11624,-0.295186 -1.69093,-0.117194 -2.23441,0.692042 -0.33899,0.504732 -0.35449,0.968652 -0.0515,1.54158 0.3682,0.69628 1.31177,1.058989 2.75207,1.057886 0.9829,-7.41e-4 2.57138,-0.245419 2.91634,-0.449191 0.27037,-0.159708 0.28151,-0.157215 0.61807,0.138292 0.30418,0.267069 0.85929,0.502553 1.18827,0.504083 0.0638,2.91e-4 0.1557,0.07161 0.20431,0.158488 0.0744,0.132952 0.33954,0.16557 1.67506,0.206083 l 1.58668,0.04813 0.39119,-0.471665 z"
       id="path990-5-5"
       inkscape:connector-curvature="0"
       sodipodi:nodetypes="cccccccccccccsccccccccccccssscccsccccsccscccccccsccccsccsccccccccscccccscccscccsccccssccccccccccccc" />
  </g>
</svg>
